<?xml version="1.0" standalone="no"?>
<!DOCTYPE svg PUBLIC "-//W3C//DTD SVG 20010904//EN"
 "http://www.w3.org/TR/2001/REC-SVG-20010904/DTD/svg10.dtd">
<svg version="1.0" xmlns="http://www.w3.org/2000/svg"
 width="25" height="25" viewBox="0 0 297.000000 300.000000"
 preserveAspectRatio="xMidYMid meet">
<metadata>
Created by potrace 1.16, written by Peter Selinger 2001-2019
</metadata>
<g transform="translate(0.000000,300.000000) scale(0.100000,-0.100000)"
fill="#000000" stroke="none">
<path d="M876 2923 c-13 -43 -22 -81 -18 -84 8 -7 265 -89 279 -89 8 0 53 124
53 147 0 6 -9 13 -20 16 -16 4 -22 -4 -36 -47 -9 -28 -18 -53 -20 -54 -7 -8
-74 21 -74 31 1 7 7 29 14 49 11 31 11 38 -1 42 -26 10 -31 7 -43 -31 -7 -21
-16 -41 -19 -46 -6 -6 -66 8 -79 19 -2 1 5 25 15 53 16 46 16 53 3 61 -25 16
-28 13 -54 -67z"/>
<path d="M1406 2833 c-15 -49 -63 -196 -106 -328 -43 -132 -124 -382 -180
-555 -56 -173 -148 -457 -205 -630 -57 -173 -133 -405 -169 -515 -35 -110
-105 -324 -154 -475 -49 -151 -93 -286 -97 -300 l-8 -24 29 19 c35 22 655 470
810 583 l108 80 66 -46 c147 -105 533 -385 701 -509 99 -73 179 -129 179 -125
0 4 -18 62 -40 127 -96 283 -311 968 -308 980 2 7 127 102 278 211 310 223
412 296 560 404 l103 75 -588 5 -588 5 -63 190 c-53 159 -228 700 -281 868 -9
26 -16 47 -17 47 -1 0 -14 -39 -30 -87z"/>
<path d="M800 2685 c-13 -41 -22 -76 -19 -78 8 -6 146 -47 157 -47 6 0 17 20
23 45 6 25 15 48 20 50 4 3 24 -1 43 -9 l36 -15 -15 -42 c-21 -58 -19 -71 7
-67 17 2 26 17 43 75 l22 72 -76 26 c-42 14 -79 25 -83 25 -3 0 -14 -22 -23
-50 -18 -55 -18 -55 -64 -39 -35 12 -36 18 -16 73 15 44 12 56 -14 56 -13 0
-23 -19 -41 -75z"/>
<path d="M722 2440 c-17 -49 -27 -92 -24 -94 16 -9 260 -86 275 -86 11 0 23
25 42 86 15 48 23 90 18 94 -7 6 -264 90 -276 90 -3 0 -19 -40 -35 -90z m171
-6 c48 -15 87 -33 87 -40 0 -17 -21 -74 -28 -74 -3 0 -50 14 -104 32 -88 29
-97 34 -92 53 17 52 25 67 37 62 6 -2 51 -17 100 -33z"/>
<path d="M633 2170 l-29 -90 138 -45 c76 -25 143 -45 147 -45 15 0 72 180 58
185 -7 2 -69 22 -139 44 -69 23 -131 41 -136 41 -5 0 -23 -41 -39 -90z m160
-1 c107 -32 108 -33 95 -72 -6 -17 -14 -35 -17 -39 -10 -11 -201 52 -201 66 0
32 23 77 37 72 7 -3 46 -15 86 -27z"/>
<path d="M575 1987 c-3 -7 -13 -39 -24 -72 -10 -33 -22 -67 -25 -76 -6 -14 15
-25 131 -63 76 -25 143 -46 148 -46 10 0 71 168 63 174 -1 2 -34 14 -73 26
-38 13 -75 25 -81 27 -6 2 -17 -17 -24 -42 -11 -40 -11 -48 1 -56 20 -13 29
-11 29 5 0 23 18 28 55 16 40 -13 39 -10 21 -55 l-15 -34 -93 31 c-51 17 -96
34 -100 37 -4 4 1 30 12 59 11 29 20 56 20 61 0 14 -41 21 -45 8z"/>
<path d="M457 1623 c-4 -3 -7 -14 -7 -23 0 -12 24 -25 89 -46 49 -16 88 -31
85 -33 -5 -6 -130 -2 -170 5 -28 5 -31 3 -41 -31 -9 -27 -9 -37 0 -41 61 -22
281 -93 284 -91 1 2 4 14 5 26 3 21 -6 27 -81 52 -46 16 -87 31 -90 34 -3 4
40 3 96 -1 l102 -7 11 28 c6 15 9 32 7 38 -1 5 -63 29 -137 53 -147 48 -144
47 -153 37z"/>
<path d="M382 1377 c-16 -21 -52 -141 -45 -148 11 -9 255 -89 274 -89 10 0 22
23 37 73 27 90 27 87 -2 87 -19 0 -25 -7 -30 -33 -11 -57 -26 -70 -65 -56 -30
11 -32 14 -26 43 13 57 11 71 -9 71 -14 0 -22 -10 -29 -35 -12 -49 -19 -53
-61 -36 -41 17 -41 15 -21 63 8 19 15 41 15 48 0 18 -27 26 -38 12z"/>
<path d="M315 1110 c-30 -19 -37 -32 -60 -107 l-13 -42 138 -46 c76 -25 142
-45 147 -45 5 0 19 30 30 66 20 62 21 68 6 99 -14 30 -25 36 -113 64 -54 17
-99 31 -101 31 -2 0 -17 -9 -34 -20z m120 -60 c56 -18 95 -36 95 -44 0 -20
-21 -76 -28 -76 -4 1 -50 16 -102 34 -101 35 -101 35 -80 92 5 13 12 24 15 24
2 0 48 -14 100 -30z"/>
<path d="M455 769 c-9 -27 -18 -49 -19 -49 -1 0 -55 18 -120 40 -65 22 -122
37 -126 35 -4 -3 -10 -14 -13 -25 -4 -17 10 -24 138 -65 78 -25 145 -45 148
-45 6 0 47 118 47 136 0 6 -9 14 -20 17 -16 4 -22 -4 -35 -44z"/>
<path d="M144 657 c-17 -48 -54 -162 -54 -168 0 -12 283 -100 291 -91 4 4 17
39 29 77 13 39 25 76 27 82 6 14 -5 19 -169 72 -82 27 -121 36 -124 28z m141
-88 c104 -33 100 -28 74 -96 l-8 -22 -93 31 c-51 17 -97 34 -102 38 -9 9 13
80 25 80 4 0 51 -14 104 -31z"/>
<path d="M32 313 c-17 -48 -30 -88 -29 -89 1 -1 62 -20 134 -43 73 -23 139
-44 147 -47 11 -4 21 16 40 79 14 47 26 87 26 90 0 6 -160 61 -163 56 -7 -10
-27 -77 -27 -87 0 -17 40 -15 46 3 7 18 44 20 68 2 20 -15 13 -65 -10 -74 -19
-7 -185 47 -191 63 -3 7 3 36 12 65 15 43 15 53 4 60 -8 5 -17 9 -20 9 -4 0
-20 -39 -37 -87z"/>
</g>
</svg>
