<?xml version="1.0" standalone="no"?>
<!DOCTYPE svg PUBLIC "-//W3C//DTD SVG 20010904//EN"
 "http://www.w3.org/TR/2001/REC-SVG-20010904/DTD/svg10.dtd">
<svg version="1.0" xmlns="http://www.w3.org/2000/svg"
 width="25" height="25" viewBox="0 0 1200.000000 960.000000"
 preserveAspectRatio="xMidYMid meet">
<metadata>
Created by potrace 1.16, written by Peter Selinger 2001-2019
</metadata>
<g transform="translate(0.000000,960.000000) scale(0.100000,-0.100000)"
fill="#000000" stroke="none">
<path d="M6170 8789 c-30 -13 -103 -21 -465 -54 -334 -30 -467 -52 -606 -101
-363 -126 -527 -276 -937 -859 -89 -127 -104 -135 -168 -85 l-39 32 -6 -89
c-12 -180 -50 -255 -209 -413 -82 -82 -123 -131 -142 -171 -33 -69 -58 -203
-58 -315 0 -108 -17 -224 -41 -290 -25 -67 -97 -147 -166 -186 l-53 -30 44
-49 c58 -64 69 -102 64 -203 -4 -64 -12 -99 -41 -169 -45 -107 -46 -129 -6
-164 17 -16 43 -48 57 -72 45 -77 42 -167 -13 -481 -73 -417 -73 -503 11
-1300 31 -291 92 -669 134 -820 13 -47 13 -136 -1 -163 -6 -12 -30 -41 -52
-64 l-40 -42 65 -70 c84 -88 88 -106 49 -208 -33 -83 -40 -161 -18 -199 7 -12
46 -47 87 -78 108 -81 211 -185 390 -396 87 -102 195 -223 241 -269 118 -117
271 -248 304 -261 37 -14 99 -15 155 -1 102 24 212 6 302 -49 29 -18 91 -63
138 -100 75 -59 346 -250 355 -250 2 0 20 28 41 62 20 35 41 68 46 74 6 8 25
-5 60 -42 60 -64 147 -110 233 -122 33 -5 195 -7 360 -5 369 7 360 4 450 148
97 156 180 235 245 235 31 0 44 -7 74 -40 20 -22 38 -40 41 -40 3 0 5 20 5 44
0 108 24 134 365 409 594 476 813 670 948 837 228 282 357 598 357 868 0 145
-32 253 -110 381 -29 47 -103 207 -151 325 -46 113 -33 221 38 313 67 88 66
81 60 453 -3 184 -3 451 1 593 l7 259 29 23 29 23 -37 45 -37 45 66 51 c61 48
65 54 61 84 -93 579 -361 1230 -776 1887 -243 385 -318 485 -460 614 -159 144
-286 208 -690 348 l-295 102 -135 3 c-76 1 -146 -2 -160 -8z m-91 -1504 c199
-52 374 -157 523 -314 94 -98 118 -141 118 -216 0 -49 -4 -59 -36 -94 -41 -46
-110 -72 -319 -120 -236 -54 -472 -76 -980 -91 -382 -12 -463 -18 -603 -50
-130 -29 -231 -36 -287 -20 -99 28 -179 139 -179 250 0 67 8 82 126 241 51 69
114 156 140 192 l48 67 45 -32 c66 -47 72 -41 116 102 18 58 39 61 168 24 156
-45 298 -37 611 33 246 55 378 62 509 28z m-571 -1188 c44 -13 106 -39 137
-58 66 -39 165 -134 233 -223 48 -64 213 -270 316 -394 98 -119 94 -105 48
-160 -22 -26 -56 -57 -76 -67 -48 -26 -74 -12 -127 67 -95 142 -143 141 -206
-2 -25 -56 -59 -87 -98 -92 l-30 -3 -5 -90 c-4 -57 -12 -104 -24 -128 -57
-118 -238 -175 -514 -164 -190 8 -307 42 -380 111 -78 73 -87 123 -67 390 8
116 18 229 21 251 38 246 412 577 660 584 18 1 68 -9 112 -22z m-1092 -249
c137 -148 183 -230 170 -300 -7 -39 -40 -87 -80 -119 -25 -20 -28 -20 -51 -5
-13 9 -53 43 -89 77 -115 107 -151 217 -105 319 19 43 65 100 80 100 4 0 37
-33 75 -72z m1047 -1189 c34 -42 53 -105 37 -124 -31 -37 -83 -49 -225 -49
-137 0 -142 0 -207 31 -51 24 -68 37 -68 52 0 27 9 31 180 80 80 23 150 44
155 46 6 3 30 3 55 1 36 -3 50 -11 73 -37z"/>
<path d="M5015 5623 c-38 -2 -73 -7 -77 -12 -5 -4 11 -26 34 -50 181 -189 475
-217 662 -64 34 28 106 114 106 127 0 4 -24 6 -52 4 -36 -3 -106 -27 -213 -73
-190 -81 -228 -88 -272 -51 -17 14 -40 48 -52 76 -17 40 -26 50 -44 48 -12 -1
-53 -4 -92 -5z"/>
</g>
</svg>
