<?xml version="1.0" standalone="no"?>
<!DOCTYPE svg PUBLIC "-//W3C//DTD SVG 20010904//EN"
 "http://www.w3.org/TR/2001/REC-SVG-20010904/DTD/svg10.dtd">
<svg version="1.0" xmlns="http://www.w3.org/2000/svg"
 width="25" height="25" viewBox="0 0 300.000000 272.000000"
 preserveAspectRatio="xMidYMid meet">
<metadata>
Created by potrace 1.16, written by Peter Selinger 2001-2019
</metadata>
<g transform="translate(0.000000,272.000000) scale(0.100000,-0.100000)"
fill="#000000" stroke="none">
<path d="M1345 2709 c-147 -21 -320 -89 -454 -177 -31 -20 -96 -75 -144 -122
-144 -137 -240 -300 -294 -497 -24 -87 -27 -115 -28 -258 0 -88 4 -188 9 -222
l8 -61 -218 -163 c-121 -89 -221 -163 -222 -165 -2 -1 14 -43 35 -92 120 -271
327 -516 577 -683 497 -333 1145 -358 1666 -64 228 128 400 289 549 512 72
108 178 321 165 333 -6 5 -414 306 -441 324 -1 1 4 38 12 81 80 451 -147 914
-557 1135 -198 106 -444 150 -663 119z m316 -104 c383 -67 687 -344 789 -720
33 -121 38 -319 11 -450 -11 -54 -17 -102 -13 -105 4 -3 77 -57 162 -121 85
-63 181 -134 213 -158 l58 -42 -56 -108 c-333 -640 -1092 -951 -1783 -729
-351 112 -654 356 -842 679 -22 37 -49 88 -60 113 l-19 45 220 163 c185 137
219 166 214 183 -42 144 -46 396 -7 536 89 318 330 574 642 678 147 50 320 63
471 36z"/>
<path d="M1336 2078 c-32 -200 -60 -372 -62 -383 -5 -20 31 -53 44 -40 5 5 70
403 73 445 2 36 19 -48 45 -218 15 -100 31 -179 35 -175 4 5 11 34 16 66 9 49
4 100 -33 350 -24 161 -44 298 -44 305 0 6 -4 12 -8 12 -4 0 -34 -163 -66
-362z"/>
<path d="M1602 2328 c-26 -140 -122 -718 -196 -1183 -31 -192 -59 -360 -61
-372 -5 -20 -1 -23 25 -23 16 0 30 3 30 8 -1 24 214 1318 219 1325 4 4 20 -77
35 -180 36 -242 34 -236 58 -187 18 37 18 43 3 139 -9 55 -32 207 -50 339 -19
131 -36 240 -38 243 -3 2 -14 -47 -25 -109z"/>
<path d="M1062 2025 c-17 -14 -44 -56 -62 -93 -17 -37 -47 -84 -67 -104 l-36
-37 57 -52 c31 -28 63 -64 71 -79 7 -14 23 -78 35 -141 21 -114 47 -175 89
-213 24 -22 28 -20 32 14 2 15 -6 39 -19 58 -15 20 -27 58 -33 100 -20 135
-30 171 -70 232 -21 33 -46 63 -54 66 -8 4 -15 10 -15 15 0 16 74 119 85 119
22 0 35 -25 35 -70 0 -74 27 -135 88 -202 l56 -60 -64 -387 c-35 -212 -66
-398 -68 -413 l-4 -28 102 0 101 0 -3 28 c-3 27 -4 27 -65 24 -35 -2 -63 0
-63 5 0 4 27 186 62 404 l62 396 -60 59 c-89 86 -110 159 -80 272 16 60 11 68
-45 60 -22 -4 -28 -1 -24 9 3 7 8 20 11 28 10 24 -21 18 -54 -10z"/>
<path d="M1820 1788 c-71 -36 -110 -110 -110 -212 0 -26 25 -208 55 -403 30
-195 53 -358 50 -362 -2 -4 -37 -8 -77 -8 -71 0 -73 -1 -76 -27 l-3 -26 114 0
114 0 -18 118 c-66 421 -92 619 -93 702 -1 84 2 99 22 127 28 40 75 56 121 43
38 -11 101 -66 101 -87 0 -8 -18 -31 -40 -52 -40 -38 -52 -71 -25 -71 20 0 65
-22 65 -32 0 -4 -12 -8 -26 -8 -31 0 -64 -17 -64 -32 0 -6 11 -21 25 -34 34
-31 31 -44 -8 -44 -18 0 -53 -10 -77 -22 -38 -19 -44 -27 -42 -48 5 -34 8 -35
39 -14 19 12 49 19 93 20 61 1 66 3 75 28 6 18 5 37 -3 58 -14 38 -8 47 19 29
27 -16 34 -8 34 39 0 29 -8 47 -29 69 -27 29 -28 29 -8 40 12 6 28 11 36 11
21 0 20 16 -3 66 -38 84 -124 153 -191 154 -14 0 -46 -10 -70 -22z"/>
<path d="M1523 1328 c-9 -55 -6 -96 23 -313 19 -137 34 -253 34 -257 0 -5 14
-8 30 -8 17 0 30 1 30 3 0 1 -20 139 -45 306 -25 168 -45 311 -45 318 0 7 -4
13 -8 13 -5 0 -13 -28 -19 -62z"/>
<path d="M563 1072 c-12 -21 -228 -148 -266 -157 l-26 -7 26 -33 c26 -32 27
-33 37 -14 10 18 206 142 213 135 2 -2 -26 -55 -63 -119 -41 -74 -64 -126 -62
-141 l3 -24 129 39 c71 22 134 39 140 39 17 0 -156 -169 -177 -172 -17 -3 -16
-6 10 -40 30 -40 43 -47 43 -22 0 9 52 68 115 132 l115 116 -23 25 c-12 14
-22 27 -22 28 0 1 -52 -14 -114 -33 -62 -19 -119 -34 -126 -34 -8 0 13 48 52
116 l65 115 -23 27 c-13 15 -26 30 -29 34 -3 4 -10 0 -17 -10z"/>
<path d="M2380 1064 c-23 -15 -110 -124 -110 -138 0 -3 7 -6 15 -6 22 0 253
-169 257 -188 3 -13 11 -6 31 23 24 36 26 40 10 44 -27 5 -232 154 -233 169 0
18 37 52 58 52 46 0 65 -41 49 -102 l-7 -28 84 0 c114 0 143 7 167 42 25 35
22 41 -17 29 -16 -5 -63 -12 -104 -15 l-75 -6 0 45 c0 31 -6 50 -20 64 -28 28
-74 35 -105 15z"/>
<path d="M2145 800 c-38 -39 -63 -70 -55 -70 19 0 204 -185 223 -222 l14 -27
75 77 76 77 -15 34 -15 35 -17 -40 c-10 -22 -34 -51 -53 -66 l-35 -27 -42 43
-41 42 23 22 c13 12 29 22 35 22 17 0 15 10 -5 32 -16 18 -18 17 -50 -14 l-33
-32 -32 31 c-30 30 -30 33 -15 56 8 13 29 30 46 39 l31 15 -23 21 -23 22 -69
-70z"/>
<path d="M857 706 c-76 -28 -119 -89 -119 -167 0 -167 190 -265 313 -162 37
31 69 95 69 138 0 34 -32 110 -58 138 -46 51 -143 76 -205 53z m143 -62 c103
-61 68 -218 -56 -253 -64 -17 -139 33 -151 102 -7 47 27 119 70 146 39 25 99
27 137 5z"/>
<path d="M1883 633 c-32 -16 -44 -33 -23 -33 13 0 140 -254 140 -280 0 -11 2
-20 5 -20 3 0 46 20 95 45 l90 45 0 40 0 41 -29 -34 c-26 -29 -105 -68 -115
-56 -16 19 -116 246 -112 256 7 17 -11 16 -51 -4z"/>
<path d="M1745 590 c-113 -16 -175 -81 -175 -181 0 -110 72 -183 180 -182 80
0 136 26 144 65 3 17 4 33 2 35 -2 2 -21 -7 -41 -22 -74 -50 -171 -27 -206 48
-22 51 -24 77 -5 122 19 45 64 68 128 63 49 -3 49 -3 46 26 -4 34 -7 36 -73
26z"/>
<path d="M1199 568 c12 -33 -17 -289 -35 -309 -13 -15 -12 -17 8 -23 13 -3 33
-6 46 -6 19 0 21 3 13 18 -6 12 -5 58 3 133 l12 114 39 -60 c21 -33 62 -97 91
-142 53 -82 90 -117 98 -91 3 7 11 82 20 167 9 85 20 159 26 165 18 18 10 26
-27 26 l-38 0 -2 -103 c-3 -169 -6 -169 -97 -22 -92 148 -98 155 -136 155 -26
0 -29 -2 -21 -22z"/>
</g>
</svg>
