<?xml version="1.0" standalone="no"?>
<!DOCTYPE svg PUBLIC "-//W3C//DTD SVG 20010904//EN"
 "http://www.w3.org/TR/2001/REC-SVG-20010904/DTD/svg10.dtd">
<svg version="1.0" xmlns="http://www.w3.org/2000/svg"
 width="25" height="25" viewBox="0 0 750.000000 1000.000000"
 preserveAspectRatio="xMidYMid meet">
<metadata>
Created by potrace 1.16, written by Peter Selinger 2001-2019
</metadata>
<g transform="translate(0.000000,1000.000000) scale(0.100000,-0.100000)"
fill="#000000" stroke="none">
<path d="M3556 9560 c-244 -483 -259 -506 -446 -662 -270 -227 -579 -379 -970
-477 -150 -38 -299 -68 -380 -77 -36 -4 -68 -9 -73 -11 -4 -2 4 -19 17 -36 91
-122 148 -341 162 -622 14 -306 -42 -589 -152 -767 l-36 -60 23 -16 c59 -41
169 -145 227 -213 107 -127 124 -170 208 -521 41 -172 78 -322 82 -332 6 -14
21 31 51 155 104 419 205 627 411 842 l88 93 -39 159 c-56 230 -83 443 -70
551 20 164 90 316 169 369 104 69 246 23 307 -98 l25 -51 0 -2752 c0 -3003 3
-2825 -56 -3003 -51 -155 -153 -286 -268 -347 l-59 -32 48 -21 c148 -65 345
-237 444 -387 87 -131 204 -377 259 -546 46 -141 118 -414 158 -601 9 -43 18
-76 20 -74 2 2 42 138 88 303 115 409 137 475 205 609 148 290 336 514 559
663 75 50 97 72 73 72 -18 0 -163 144 -206 205 -59 82 -110 191 -137 295 l-23
85 0 2755 0 2756 26 49 c14 28 44 64 68 82 86 66 203 36 305 -78 91 -101 126
-203 126 -366 0 -132 -28 -280 -89 -459 l-47 -141 55 -29 c156 -81 323 -230
383 -340 30 -55 99 -315 149 -559 18 -88 35 -163 38 -167 3 -4 39 113 79 260
41 147 90 308 109 357 72 184 184 348 292 426 33 24 60 47 60 52 1 4 -9 24
-22 45 -106 171 -153 419 -144 757 8 288 41 443 128 603 28 51 36 74 27 76 -7
3 -58 12 -113 21 -55 10 -170 35 -255 56 -523 128 -923 345 -1187 641 -70 79
-77 92 -269 502 -109 232 -201 425 -204 429 -4 4 -105 -186 -224 -423z m430
-2526 c9 -36 23 -59 52 -84 l39 -35 -39 -35 c-30 -26 -43 -48 -52 -84 l-13
-50 -49 -1 c-28 0 -63 7 -83 17 l-34 17 25 10 c14 5 28 17 32 26 4 13 13 15
35 10 23 -5 32 -2 40 13 6 11 7 22 4 26 -3 3 -92 6 -196 6 -157 0 -193 -3
-207 -15 -16 -14 -19 -13 -33 8 -8 13 -29 30 -46 37 -32 13 -41 30 -16 30 8 0
29 13 47 29 25 22 38 27 50 20 10 -5 103 -8 210 -7 164 3 193 5 193 18 0 10
-13 16 -42 18 -24 2 -43 7 -43 11 0 4 -12 14 -27 21 l-28 13 28 9 c15 5 27 13
27 18 0 4 25 7 57 5 l56 -2 13 -49z m-240 -594 c122 0 203 4 216 11 16 9 23 7
35 -10 8 -12 28 -28 45 -37 l32 -16 -33 -27 c-26 -21 -34 -37 -38 -72 -4 -32
-13 -50 -34 -67 -25 -21 -32 -22 -72 -11 -32 8 -55 8 -83 0 -51 -14 -52 -14
-59 9 -3 11 -11 20 -17 20 -5 0 -12 -9 -15 -20 -6 -21 -28 -27 -38 -10 -8 13
-121 13 -146 -1 -15 -8 -25 -6 -46 10 -14 12 -32 21 -39 21 -30 0 -22 20 13
35 20 9 40 21 44 26 4 7 49 12 110 12 90 2 104 4 107 20 3 15 -7 17 -99 17
-85 0 -110 4 -150 23 -27 12 -48 24 -49 27 0 4 16 12 35 19 19 7 40 21 45 32
10 17 13 18 26 4 13 -12 49 -15 210 -15z m-14 -543 c108 -13 204 -20 214 -17
13 5 29 -5 54 -32 20 -21 44 -38 53 -38 27 0 20 -14 -19 -35 -19 -10 -42 -30
-50 -45 -13 -21 -21 -25 -53 -22 -50 5 -370 -27 -392 -39 -12 -6 -20 -5 -25 2
-3 6 -24 18 -46 28 l-41 17 53 27 c33 17 68 27 95 27 46 0 69 17 63 47 -3 15
-14 18 -63 19 -37 0 -76 8 -102 20 -45 20 -55 34 -25 34 9 1 28 7 42 15 31 17
7 18 242 -8z m-197 -517 c5 -7 84 -10 231 -9 190 1 228 -1 242 -14 9 -9 30
-21 46 -27 l30 -11 -32 -19 c-37 -23 -55 -62 -49 -103 3 -23 -1 -31 -19 -37
-12 -5 -27 -16 -32 -26 -7 -13 -13 -14 -30 -5 -26 14 -92 14 -127 1 -22 -8
-29 -6 -54 22 l-28 32 18 30 c32 53 28 56 -77 56 -52 0 -103 -4 -113 -10 -14
-7 -23 -4 -37 12 -11 11 -35 28 -54 36 l-35 15 33 10 c19 6 41 21 50 33 19 26
28 29 37 14z m79 -543 c28 9 36 7 60 -14 l28 -24 -28 -21 c-20 -16 -38 -21
-69 -19 -28 1 -46 -3 -54 -13 -19 -23 25 -40 81 -32 60 9 104 38 136 91 19 32
31 42 42 37 8 -4 52 -7 96 -7 l81 0 9 -30 c5 -17 23 -39 41 -50 18 -11 32 -22
33 -25 0 -3 -14 -13 -30 -22 -17 -10 -37 -32 -44 -49 -13 -31 -16 -32 -72 -33
-44 -1 -66 3 -86 18 l-27 19 28 26 c23 22 36 26 69 23 47 -5 65 13 36 35 -45
34 -158 -19 -212 -98 -19 -27 -31 -36 -42 -31 -8 4 -49 7 -92 7 -76 0 -76 0
-94 33 -10 18 -31 43 -47 54 l-28 20 39 34 c22 18 43 45 46 58 6 23 8 24 37
14 21 -7 41 -8 63 -1z m364 -523 c8 -54 36 -106 69 -128 l34 -24 -31 -22 c-34
-24 -70 -87 -70 -123 0 -23 -4 -24 -57 -24 -32 -1 -65 5 -73 12 -8 7 -22 15
-30 18 -11 3 -7 8 13 16 15 6 30 17 33 25 4 10 14 13 33 10 29 -6 58 16 46 36
-4 6 -76 10 -199 10 -158 0 -196 -3 -206 -15 -10 -12 -16 -10 -41 15 -16 16
-38 32 -49 35 -27 9 -25 22 3 29 13 3 35 17 50 31 15 16 28 22 32 15 4 -6 79
-10 211 -10 190 0 205 1 202 18 -3 12 -13 17 -40 17 -20 0 -44 7 -54 16 -11 9
-26 19 -34 22 -11 3 -7 8 12 15 14 6 28 14 31 19 3 4 29 8 59 7 44 0 53 -4 56
-20z m-235 -629 c86 -9 172 -15 190 -14 26 2 39 -5 69 -34 20 -20 43 -37 52
-37 26 0 18 -14 -20 -35 -19 -10 -42 -30 -50 -45 -13 -21 -21 -25 -53 -22 -50
5 -370 -27 -392 -39 -12 -6 -20 -5 -25 2 -3 6 -25 19 -48 29 l-41 17 36 16
c20 8 40 20 43 26 4 6 31 11 60 11 57 0 80 15 74 47 -3 15 -14 18 -63 19 -37
0 -76 8 -102 20 -45 20 -55 34 -25 34 9 0 31 8 47 18 22 14 38 17 60 11 17 -4
101 -15 188 -24z m7 -525 c137 0 210 4 217 11 8 8 14 6 22 -10 7 -11 26 -28
44 -37 18 -9 34 -18 36 -20 2 -2 -13 -18 -33 -37 -27 -26 -36 -42 -36 -67 0
-44 -48 -90 -82 -77 -25 9 -113 5 -139 -7 -12 -5 -18 -1 -23 18 -8 33 -24 33
-37 -1 -7 -20 -13 -23 -21 -15 -14 14 -154 16 -163 2 -3 -5 -22 2 -42 15 -20
14 -42 25 -49 25 -8 0 -14 5 -14 10 0 6 6 10 13 10 6 0 28 10 47 22 30 18 47
21 117 19 97 -3 123 3 123 30 0 19 -6 20 -104 18 -57 -1 -110 2 -117 7 -7 4
-29 15 -48 25 l-35 17 34 14 c19 8 41 23 49 32 10 12 17 14 25 6 6 -6 86 -10
216 -10z"/>
</g>
</svg>
