<?xml version="1.0" standalone="no"?>
<!DOCTYPE svg PUBLIC "-//W3C//DTD SVG 20010904//EN"
 "http://www.w3.org/TR/2001/REC-SVG-20010904/DTD/svg10.dtd">
<svg version="1.0" xmlns="http://www.w3.org/2000/svg"
 width="25" height="25" viewBox="0 0 1920.000000 1920.000000"
 preserveAspectRatio="xMidYMid meet">
<metadata>
Created by potrace 1.16, written by Peter Selinger 2001-2019
</metadata>
<g transform="translate(0.000000,1920.000000) scale(0.100000,-0.100000)"
fill="#000000" stroke="none">
<path d="M9245 17813 c-981 -46 -1901 -287 -2770 -728 -1944 -985 -3336 -2816
-3740 -4920 -113 -588 -146 -1156 -104 -1780 136 -2033 1125 -3880 2729 -5099
989 -752 2175 -1226 3419 -1366 305 -34 476 -43 806 -43 498 0 886 37 1350
129 1773 352 3352 1386 4397 2879 1050 1498 1460 3324 1157 5147 -170 1026
-571 2004 -1167 2848 -1171 1658 -2993 2714 -5012 2904 -313 30 -781 43 -1065
29z m760 -113 c1541 -81 2981 -684 4160 -1741 161 -145 446 -434 588 -596 909
-1042 1481 -2307 1651 -3648 43 -333 51 -472 50 -865 0 -450 -19 -697 -85
-1100 -409 -2504 -2202 -4592 -4640 -5404 -654 -218 -1300 -329 -1994 -343
-2097 -41 -4055 849 -5394 2452 -866 1037 -1415 2322 -1556 3640 -49 460 -49
994 1 1465 244 2330 1650 4358 3749 5407 825 413 1750 662 2680 723 325 21
527 24 790 10z"/>
<path d="M8886 17430 c-2 -3 13 -175 33 -384 25 -251 33 -379 26 -381 -24 -8
-759 -134 -762 -132 -1 2 -12 48 -23 103 -11 54 -22 109 -25 120 -5 20 9 25
248 84 138 35 255 65 259 69 5 5 -78 480 -86 488 -6 6 -1091 -275 -1090 -283
1 -5 52 -170 114 -368 61 -197 109 -361 106 -364 -7 -7 -706 -302 -715 -302
-7 0 -121 201 -121 212 0 2 117 62 260 133 143 71 260 133 260 137 0 19 -194
468 -201 466 -35 -13 -1059 -554 -1059 -559 0 -5 86 -152 190 -328 105 -176
190 -324 190 -328 -1 -4 -154 -122 -341 -262 -285 -213 -342 -252 -353 -240
-89 100 -146 168 -145 175 0 5 106 97 235 204 129 107 234 199 234 205 -1 15
-275 410 -283 408 -10 -3 -1046 -873 -1052 -883 -3 -5 138 -124 312 -266 175
-141 322 -260 326 -264 5 -4 -13 -23 -40 -42 -26 -19 -196 -142 -378 -273
-181 -130 -334 -239 -340 -242 -6 -2 -19 5 -28 15 -16 17 -8 29 139 233 86
117 167 228 180 246 l24 32 -185 163 c-102 90 -191 163 -197 163 -8 0 -768
-1060 -768 -1071 0 -1 111 -66 246 -144 l246 -143 -48 -48 c-26 -26 -75 -63
-108 -81 -57 -31 -67 -33 -156 -33 -91 0 -99 2 -183 42 -49 24 -102 52 -119
64 -16 12 -31 20 -33 18 -6 -7 -304 -658 -450 -984 -314 -705 -344 -815 -273
-1019 36 -104 35 -92 23 -613 l-7 -313 371 0 c204 0 371 -2 371 -4 0 -2 25
-248 55 -547 31 -298 55 -549 53 -557 -2 -11 -37 -22 -122 -38 -66 -13 -121
-22 -123 -21 -1 2 -27 153 -57 336 -30 183 -57 335 -60 338 -4 5 -488 -46
-494 -52 -2 -2 258 -1377 263 -1382 1 -2 167 45 369 103 203 57 373 103 378
102 8 -3 178 -431 308 -775 l20 -53 -111 -56 c-62 -30 -115 -52 -119 -47 -5 4
-63 127 -130 273 -67 146 -125 268 -129 272 -3 4 -110 -34 -238 -84 l-231 -91
12 -27 c45 -107 543 -1120 550 -1120 6 0 347 192 668 376 6 4 494 -675 504
-701 4 -10 -77 -89 -167 -162 -14 -12 -39 15 -203 217 l-187 231 -127 -87
c-234 -161 -282 -195 -282 -205 0 -11 841 -1004 850 -1004 4 0 116 133 250
295 133 162 246 296 250 298 5 2 546 -464 619 -533 12 -12 3 -28 -63 -109 -42
-53 -80 -96 -84 -96 -4 0 -100 74 -215 165 -114 91 -211 165 -215 164 -9 -1
-321 -355 -328 -372 -4 -12 211 -174 907 -684 l57 -42 208 327 c114 180 208
328 209 330 5 6 690 -358 688 -365 -1 -7 -112 -214 -118 -221 -1 -1 -116 52
-255 118 -140 65 -256 118 -258 116 -17 -17 -239 -443 -234 -448 7 -7 1079
-468 1096 -471 5 -1 32 68 61 153 104 305 197 575 200 578 2 3 757 -198 763
-203 3 -2 -50 -237 -55 -244 -1 -2 -124 20 -273 50 -171 34 -273 50 -278 44
-12 -14 -135 -465 -128 -472 8 -8 1126 -216 1132 -211 4 5 94 694 94 723 0 13
52 15 376 15 l377 0 -5 -64 c-9 -113 -68 -186 -160 -200 -24 -4 -88 -2 -143 4
-70 7 -115 7 -150 0 -87 -19 -84 -12 -100 -241 -8 -112 -15 -212 -15 -221 0
-17 34 -18 570 -18 314 0 570 3 570 8 0 4 -14 177 -31 385 -18 207 -30 379
-28 382 8 7 751 136 756 131 8 -7 62 -229 58 -236 -2 -3 -119 -35 -259 -71
-193 -48 -256 -68 -256 -79 1 -8 22 -118 49 -245 43 -209 49 -230 67 -227 21
4 1018 259 1047 268 9 3 17 10 17 16 0 7 -50 171 -112 365 -69 217 -108 357
-102 362 10 10 679 297 704 303 10 2 32 -31 67 -97 29 -55 52 -106 53 -113 0
-7 -115 -68 -256 -137 -166 -81 -254 -129 -252 -138 11 -44 185 -457 193 -457
12 0 1036 529 1053 545 11 10 -22 71 -178 334 -106 177 -190 327 -187 334 5
12 647 494 671 503 6 2 47 -36 90 -86 77 -90 79 -92 60 -110 -10 -10 -119
-101 -241 -203 l-222 -185 142 -206 c83 -120 147 -204 154 -201 7 2 243 199
524 436 486 411 511 433 493 448 -11 9 -149 121 -307 250 -287 234 -288 234
-269 255 11 12 146 173 301 359 155 185 284 337 287 337 11 0 183 -135 184
-144 0 -6 -264 -376 -352 -493 -6 -8 50 -63 178 -175 103 -90 191 -163 195
-163 9 0 759 1054 759 1067 0 4 -145 94 -322 199 -178 105 -326 195 -331 198
-6 6 353 764 371 783 8 8 215 -87 220 -100 1 -5 -45 -125 -103 -266 -59 -142
-105 -259 -103 -261 11 -10 450 -226 453 -223 14 14 464 1213 458 1219 -4 4
-169 55 -366 112 -197 58 -360 107 -362 109 -2 2 16 98 40 213 23 116 53 269
64 340 36 214 40 235 57 270 20 43 73 69 122 60 34 -5 132 -34 132 -38 0 -1
-18 -132 -40 -292 -21 -159 -36 -293 -32 -296 15 -14 494 -96 497 -85 2 6 36
295 74 641 39 347 73 642 76 658 l4 27 -394 0 c-369 0 -395 1 -396 18 0 9 -13
179 -28 377 -15 198 -26 362 -25 364 5 6 231 -11 243 -18 7 -4 26 -59 42 -122
17 -63 34 -117 37 -121 7 -6 411 17 417 24 12 13 106 214 120 256 l17 53 -32
132 c-39 160 -111 413 -220 767 -81 264 -83 269 -402 975 -177 391 -324 714
-329 719 -4 4 -70 -24 -147 -64 l-139 -71 -152 93 c-83 51 -151 96 -151 100 0
4 81 66 180 139 100 72 179 135 178 140 -5 13 -842 999 -848 999 -5 0 -378
-470 -476 -598 -8 -12 -69 36 -315 248 -167 144 -313 271 -323 281 -19 17 -17
20 54 114 41 53 76 98 79 99 3 2 60 -39 126 -90 66 -52 163 -128 217 -169 l96
-74 167 195 c92 107 166 196 164 198 -18 14 -948 694 -956 699 -7 5 -88 -112
-218 -313 -114 -176 -211 -323 -216 -326 -11 -7 -670 337 -676 353 -4 11 103
223 113 223 3 0 115 -52 251 -115 135 -63 250 -115 254 -115 7 0 252 440 247
445 -7 6 -1099 475 -1106 475 -4 0 -63 -164 -131 -365 -68 -201 -128 -365
-135 -365 -11 0 -748 191 -755 196 -1 1 9 57 25 123 21 92 31 121 43 121 9 0
132 -23 274 -51 141 -29 259 -50 260 -48 6 7 144 474 142 477 -2 2 -83 18
-181 37 -99 19 -346 66 -551 104 -205 39 -376 71 -381 71 -20 0 -53 -113 -82
-282 -34 -191 -82 -294 -177 -378 -95 -83 -180 -102 -377 -83 -84 9 -169 4
-208 -12 -17 -7 -18 4 -18 139 l0 146 265 0 265 0 0 23 c0 12 7 112 15 222 8
110 15 203 15 207 0 8 -1140 16 -1144 8z m1004 -225 l0 -115 -287 0 -286 0 6
-122 c4 -68 10 -182 13 -254 l7 -131 106 -6 c58 -4 188 -10 288 -13 100 -4
187 -10 194 -14 6 -4 12 -25 13 -46 l1 -38 -75 -18 c-118 -28 -240 -46 -435
-63 -386 -33 -530 -54 -756 -110 -251 -63 -893 -265 -1202 -379 -54 -20 -116
-36 -137 -36 -55 0 -104 45 -127 116 -9 29 -15 55 -12 58 2 2 144 61 314 131
171 70 315 130 321 134 8 4 -24 122 -102 371 -62 200 -111 367 -108 370 6 5
798 219 801 216 5 -5 73 -235 73 -248 0 -9 -79 -33 -257 -77 -142 -35 -259
-65 -261 -66 -4 -4 118 -459 127 -472 6 -10 955 158 967 170 3 3 -8 174 -23
381 l-29 376 433 0 433 0 0 -115z m979 20 c222 -41 405 -76 407 -77 7 -8 -60
-248 -70 -248 -6 0 -132 20 -280 45 -148 25 -272 42 -276 38 -4 -4 -27 -116
-50 -248 -24 -132 -44 -242 -46 -244 -6 -7 -90 29 -138 59 -34 22 -53 43 -68
77 -30 68 -21 203 32 470 40 203 43 213 64 208 11 -3 203 -39 425 -80z m1369
-426 c224 -100 408 -182 410 -184 7 -6 -114 -235 -124 -235 -6 0 -125 52 -265
115 -139 63 -258 115 -264 115 -14 0 -189 -440 -179 -450 10 -9 830 -446 855
-455 12 -4 65 71 220 311 112 174 209 318 215 321 13 5 734 -523 734 -538 0
-16 -142 -194 -154 -193 -7 1 -111 71 -233 158 -122 86 -226 156 -231 156 -12
0 -274 -367 -276 -386 -1 -11 169 -160 681 -596 l91 -78 278 265 c154 145 282
265 285 265 4 0 544 -640 610 -725 l19 -23 -96 -77 c-53 -43 -102 -78 -109
-79 -8 -1 -268 308 -380 452 -8 10 -68 -29 -171 -108 -236 -184 -300 -190
-503 -52 -143 96 -242 176 -382 308 -194 183 -278 238 -759 504 -451 248 -738
385 -1035 496 -167 61 -338 134 -478 202 -211 102 -218 107 -212 132 4 14 8
27 10 29 2 2 166 -40 364 -93 198 -53 367 -96 375 -96 16 0 20 10 177 437 57
156 108 283 112 283 5 0 192 -81 415 -181z m-5089 -63 c34 -63 61 -117 61
-120 0 -3 -117 -64 -260 -136 l-259 -130 18 -42 c10 -24 41 -94 70 -155 80
-176 98 -284 66 -408 -34 -130 -107 -218 -275 -332 -58 -40 -175 -129 -260
-199 -202 -165 -276 -217 -385 -270 -99 -48 -187 -74 -250 -74 -39 0 -56 12
-356 266 -173 146 -320 272 -328 280 -13 11 -8 19 30 52 49 44 726 620 751
640 14 11 27 0 102 -88 l85 -101 -37 -33 c-20 -18 -133 -112 -250 -210 l-213
-177 33 -38 c177 -204 294 -329 303 -322 5 4 201 147 434 316 233 170 425 314
428 321 2 6 -82 156 -188 333 -116 195 -188 326 -182 332 12 12 775 406 790
408 6 0 39 -50 72 -113z m3403 -386 l367 -162 -16 -31 c-73 -143 -256 -484
-263 -491 -8 -9 -392 96 -620 170 -149 48 -253 103 -282 149 -53 84 47 225
306 431 71 57 132 102 135 100 3 -2 171 -76 373 -166z m-952 -77 c5 -4 -3 -42
-17 -83 -21 -62 -24 -88 -21 -150 8 -134 73 -220 242 -314 133 -75 144 -106
115 -340 -37 -303 -86 -542 -129 -625 -21 -42 -79 -97 -117 -112 -36 -13 -106
-11 -144 5 -53 22 -85 52 -146 134 -141 194 -249 269 -414 288 -86 10 -115 38
-183 177 -32 65 -74 134 -102 165 -93 105 -235 186 -408 231 -44 12 -81 23
-83 25 -2 2 9 11 24 21 15 10 111 80 213 155 385 285 566 381 805 425 85 16
350 14 365 -2z m-1146 -199 c4 -15 6 -27 4 -29 -2 -1 -88 -59 -191 -129 -295
-198 -416 -247 -611 -245 -56 0 -121 6 -146 12 -38 10 -46 17 -54 45 -6 21 -6
36 1 43 11 11 949 327 974 328 10 1 20 -10 23 -25z m2899 1 c117 -30 260 -123
696 -449 l304 -228 -104 -28 c-57 -15 -165 -44 -239 -65 -135 -37 -135 -37
-395 -45 -240 -7 -267 -9 -348 -34 -158 -47 -268 -112 -404 -238 -61 -56 -81
-68 -128 -79 -30 -7 -57 -10 -59 -8 -2 2 4 47 14 99 11 52 39 201 64 330 54
277 105 471 146 557 79 162 262 238 453 188z m-4029 -431 c436 -237 446 -243
581 -380 177 -180 546 -471 747 -589 127 -76 146 -74 393 29 61 25 117 46 126
46 9 0 127 -83 262 -185 l247 -185 0 -198 c0 -311 26 -465 105 -627 83 -171
194 -278 384 -373 l114 -57 -57 -3 c-241 -13 -566 228 -637 473 -66 226 -142
344 -269 422 -148 90 -355 65 -568 -70 -48 -30 -114 -63 -146 -72 -94 -27
-131 -18 -306 75 -209 111 -283 161 -360 239 -73 75 -118 152 -161 278 -16 47
-43 109 -61 137 -90 141 -277 313 -407 375 -174 82 -380 41 -545 -110 l-55
-50 -136 64 c-75 36 -136 68 -136 72 0 4 95 68 212 143 l213 137 -3 130 c-2
148 13 226 57 289 29 42 125 126 144 126 6 0 124 -61 262 -136z m2848 50 c176
-55 308 -150 362 -260 76 -154 74 -461 -5 -664 -56 -147 -173 -296 -273 -347
-98 -50 -268 -68 -346 -37 -46 19 -70 55 -70 107 0 41 9 63 72 177 61 112 110
235 144 362 37 142 45 417 17 581 -22 126 -29 121 99 81z m-1811 -257 c146
-46 239 -129 311 -276 51 -105 87 -145 206 -233 51 -38 92 -74 89 -81 -2 -7
-32 -27 -68 -45 -85 -45 -136 -42 -251 16 -209 104 -461 376 -518 558 -31 102
-34 98 68 91 49 -3 120 -16 163 -30z m4424 -118 c94 -29 282 -170 244 -183 -8
-3 -210 -35 -449 -71 -239 -37 -446 -70 -460 -74 -18 -5 -26 -17 -32 -46 -24
-112 -117 -239 -209 -283 -85 -41 -145 -46 -282 -21 -326 58 -614 27 -907 -97
-97 -41 -106 -43 -117 -27 -7 9 -13 22 -13 28 0 15 381 356 495 443 103 79
128 93 205 116 60 18 341 65 540 91 197 25 343 53 508 96 84 22 181 44 215 49
82 11 185 3 262 -21z m253 -354 c122 -31 287 -112 405 -201 48 -36 87 -69 87
-74 0 -13 -142 -55 -240 -71 -53 -9 -156 -14 -275 -13 -216 2 -363 23 -519 75
-135 45 -280 138 -262 167 10 16 163 76 266 105 184 52 361 56 538 12z m-8344
-46 c53 -39 96 -73 96 -75 0 -2 -20 -29 -44 -58 -140 -173 -271 -483 -327
-778 -6 -35 -15 -66 -18 -70 -8 -9 -392 214 -392 227 1 13 573 825 582 825 4
0 50 -32 103 -71z m2591 -92 c162 -75 294 -235 390 -476 20 -51 33 -97 28
-101 -4 -4 -226 -60 -493 -124 -267 -64 -491 -119 -498 -121 -7 -3 -1 14 13
38 126 202 160 373 114 557 l-22 84 59 56 c33 30 86 70 119 88 57 31 65 33
145 29 67 -2 98 -9 145 -30z m-885 -47 c99 -28 163 -65 211 -118 56 -64 104
-204 65 -189 -43 17 -276 69 -371 83 -150 22 -443 22 -590 0 -218 -34 -442
-100 -648 -192 -56 -25 -109 -48 -117 -51 -34 -13 92 103 171 157 219 151 558
281 829 319 41 6 86 13 100 15 64 11 277 -3 350 -24z m8030 -161 c122 -148
132 -163 121 -185 -6 -13 -14 -24 -19 -24 -6 0 -331 129 -420 167 -9 4 19 39
84 104 54 55 99 99 101 99 1 0 61 -72 133 -161z m-2003 -71 c182 -31 197 -32
488 -33 165 0 435 2 600 4 275 4 310 3 415 -17 332 -61 672 -202 972 -401 180
-120 280 -202 428 -351 134 -133 222 -241 315 -384 57 -86 155 -270 155 -288
0 -17 -79 53 -266 234 -245 237 -418 374 -628 497 -282 166 -595 285 -931 355
-140 29 -211 39 -475 66 -217 23 -415 54 -631 100 -216 46 -390 87 -424 100
-29 11 -225 138 -225 146 0 7 14 5 207 -28z m-979 -14 c48 -14 125 -27 172
-30 72 -5 94 -3 145 16 200 73 237 68 485 -58 206 -106 320 -151 650 -262 135
-45 247 -85 250 -87 3 -3 -74 -3 -170 0 -152 4 -190 9 -293 35 -312 81 -562
64 -1009 -68 -118 -35 -155 -37 -553 -27 -563 14 -748 31 -952 87 -46 12 -83
26 -83 30 0 4 37 23 83 41 45 18 213 86 372 152 160 65 331 132 380 149 189
62 355 69 523 22z m-5082 -138 c162 -34 400 -116 392 -135 -2 -4 -59 -58 -128
-120 -171 -155 -244 -201 -393 -250 -245 -79 -464 -107 -787 -98 -199 6 -870
53 -879 63 -14 14 204 197 320 269 181 112 358 187 567 241 210 54 305 64 562
59 194 -3 241 -7 346 -29z m3614 -315 c80 -52 170 -86 276 -107 77 -14 120
-15 324 -8 451 17 555 3 752 -98 158 -82 283 -213 373 -393 51 -103 118 -315
104 -329 -3 -3 -34 10 -70 29 -85 45 -223 90 -339 111 -127 23 -409 23 -640 0
-195 -20 -359 -22 -436 -7 -307 60 -484 290 -523 680 -12 113 -14 241 -5 264
4 12 21 0 65 -44 33 -33 87 -77 119 -98z m3809 14 c418 -28 945 -258 1401
-611 160 -123 464 -429 576 -579 183 -245 292 -459 344 -679 23 -94 35 -230
26 -280 l-7 -35 -52 31 c-298 180 -586 463 -783 768 -413 639 -467 715 -596
835 -241 224 -572 379 -1103 516 l-130 34 75 6 c41 3 95 4 120 3 25 -2 83 -6
129 -9z m-1249 -25 c52 -12 138 -30 190 -41 76 -16 153 -22 380 -28 306 -9
400 -22 566 -77 260 -87 475 -260 643 -519 60 -92 63 -84 -54 -141 -125 -60
-198 -63 -525 -24 -306 38 -404 43 -529 29 -425 -46 -736 30 -1009 246 -69 55
-442 439 -442 455 0 17 222 94 316 109 38 6 80 13 94 15 56 10 280 -5 370 -24z
m-4770 -35 c81 -19 227 -82 248 -107 11 -14 -6 -30 -128 -120 -218 -162 -327
-208 -496 -208 -121 0 -230 35 -527 169 l-69 31 53 44 c108 90 297 170 470
201 111 19 347 14 449 -10z m1428 -120 c34 -10 69 -31 103 -63 l52 -48 -163
-113 c-196 -137 -242 -175 -386 -319 -195 -194 -284 -244 -429 -245 -88 0
-209 29 -350 83 -146 57 -405 173 -405 183 0 16 141 156 220 220 142 114 284
160 426 137 84 -14 194 -50 274 -90 33 -17 64 -30 69 -30 6 0 34 21 63 47 138
122 278 210 381 238 68 18 83 18 145 0z m-2653 -141 c-30 -53 -55 -100 -55
-104 0 -4 105 -33 233 -65 262 -65 483 -135 609 -193 46 -21 190 -96 319 -165
251 -134 402 -203 538 -244 119 -36 279 -38 362 -5 126 50 214 125 474 404
109 117 181 158 280 158 72 0 135 -16 135 -34 0 -8 -13 -67 -30 -132 -39 -153
-124 -331 -207 -429 -219 -259 -524 -337 -883 -223 -57 18 -186 77 -325 148
-260 134 -367 174 -528 197 -94 14 -129 15 -217 5 -230 -26 -371 -87 -645
-282 -248 -177 -408 -283 -472 -311 -33 -16 -100 -36 -148 -46 -139 -27 -281
-2 -450 79 -37 17 -69 38 -72 46 -8 19 48 185 97 289 159 340 452 578 827 673
39 10 41 12 34 38 -7 26 -9 27 -91 30 -138 5 -232 -24 -430 -134 -212 -117
-314 -136 -593 -109 -407 40 -658 4 -965 -135 -208 -94 -381 -198 -567 -339
-132 -100 -410 -379 -511 -512 -79 -105 -80 -106 -106 -93 l-26 14 47 127
c205 548 623 992 1081 1148 92 31 208 59 320 77 111 17 556 17 840 0 318 -20
551 0 791 68 106 30 261 89 334 128 22 12 43 21 47 22 4 0 -17 -43 -47 -96z
m5588 -360 c159 -119 352 -208 542 -250 126 -28 340 -30 525 -4 143 19 173 21
260 10 235 -27 448 -110 507 -198 47 -71 42 -127 -31 -329 -37 -101 -45 -184
-46 -440 0 -177 -3 -223 -13 -223 -16 0 -439 213 -537 270 -38 22 -109 74
-157 115 -142 120 -230 155 -393 155 -67 0 -138 -9 -240 -30 -239 -49 -315
-37 -392 65 -42 55 -61 105 -111 285 -46 164 -101 315 -241 658 -64 155 -116
287 -116 293 0 5 78 -61 173 -147 94 -86 216 -189 270 -230z m2161 327 c208
-94 367 -254 594 -596 507 -766 763 -1073 1111 -1327 31 -23 59 -46 63 -52 17
-25 7 -56 -27 -82 l-36 -27 -135 22 c-327 54 -491 129 -618 281 -21 25 -78
115 -128 200 -120 204 -268 423 -522 768 l-208 284 43 36 c24 20 51 44 62 52
17 14 8 26 -162 208 -100 106 -181 196 -181 200 0 12 54 62 67 62 7 0 42 -13
77 -29z m-4697 -445 c45 -37 241 -169 320 -215 350 -202 699 -325 1208 -426
94 -18 201 -45 239 -59 307 -116 480 -374 520 -773 4 -44 2 -54 -13 -62 -15
-8 -30 3 -90 70 -163 179 -365 321 -603 422 -333 143 -695 210 -1528 286 -433
40 -423 39 -417 59 11 40 321 722 328 722 4 0 20 -11 36 -24z m-4325 -67 c142
-28 282 -80 286 -105 1 -10 -37 -100 -87 -199 -49 -99 -97 -207 -106 -239 -31
-105 -4 -207 72 -277 53 -50 178 -119 277 -153 25 -9 14 -18 -57 -46 l-58 -23
-38 29 c-22 16 -88 66 -147 112 -128 97 -230 152 -285 152 -31 0 -42 -6 -62
-32 -58 -79 -62 -118 -22 -264 33 -120 66 -196 138 -312 76 -123 122 -217 159
-325 27 -80 32 -109 36 -222 6 -194 -30 -319 -145 -502 -155 -249 -292 -290
-537 -160 -117 62 -206 182 -222 298 l-6 45 41 12 c83 25 215 86 285 132 191
125 270 272 269 505 0 262 -96 409 -326 501 -66 26 -73 32 -163 144 -113 141
-159 216 -173 281 -13 59 -5 84 44 137 52 58 269 231 304 243 32 11 38 29 25
77 -7 23 -9 23 -83 17 -149 -12 -161 -17 -299 -133 -134 -112 -226 -192 -595
-519 -126 -112 -263 -231 -305 -265 -80 -66 -274 -199 -280 -193 -7 7 81 172
142 265 206 314 548 611 981 853 320 178 618 231 937 166z m6146 -68 c225 -65
461 -224 524 -353 36 -72 51 -166 44 -258 -6 -68 -39 -254 -51 -289 -3 -8 -22
11 -47 50 -23 35 -83 105 -133 155 -185 186 -378 269 -845 364 -85 18 -182 41
-215 52 -71 23 -192 93 -255 148 -44 38 -44 38 -20 44 68 14 513 98 565 106
104 16 349 5 433 -19z m-3953 -222 c100 -14 196 -44 302 -95 116 -55 310 -185
291 -194 -7 -4 -94 -12 -193 -19 -215 -14 -330 -36 -524 -100 -152 -50 -169
-58 -471 -213 -284 -145 -421 -183 -645 -175 -117 4 -154 9 -225 32 -142 46
-152 31 116 182 291 164 366 209 559 334 337 217 548 283 790 248z m7019 -89
c23 -11 58 -33 78 -50 53 -44 232 -270 222 -280 -16 -15 -686 -430 -695 -430
-11 0 -63 112 -83 178 -66 227 19 433 223 541 121 64 187 74 255 41z m-5610
-348 c-135 -128 -312 -233 -461 -274 -120 -32 -311 -30 -463 5 -148 34 -219
46 -360 62 -178 19 -286 4 -404 -57 -79 -42 -218 -181 -270 -271 -21 -37 -40
-66 -42 -64 -9 9 31 131 67 206 78 159 215 264 404 311 93 23 336 48 875 90
212 17 441 36 510 44 69 7 145 14 170 14 l45 1 -71 -67z m577 -42 c644 -65
812 -90 1135 -170 846 -209 1243 -526 1366 -1093 20 -92 22 -127 21 -367 -3
-722 -95 -1265 -293 -1727 -167 -389 -429 -731 -886 -1158 -237 -222 -606
-531 -741 -621 -263 -178 -688 -188 -1029 -25 -145 70 -210 117 -368 271 -89
85 -180 163 -246 208 -579 394 -932 941 -1150 1787 -61 235 -105 448 -125 602
-9 65 -22 147 -30 183 -20 87 -19 232 1 301 46 158 183 295 386 385 l26 12
-24 -53 c-13 -30 -44 -95 -69 -146 l-46 -91 23 -25 c46 -50 205 -178 286 -230
114 -75 254 -139 369 -170 85 -23 118 -26 248 -26 130 0 163 3 248 26 113 30
226 77 330 137 113 65 113 65 96 97 -8 16 -52 67 -99 114 -137 139 -253 184
-475 183 -149 -1 -270 -19 -455 -71 -69 -19 -134 -37 -145 -40 -28 -6 76 92
140 132 28 18 76 42 107 53 72 27 256 46 367 38 l85 -6 -28 29 c-39 41 -115
80 -180 92 -109 20 -228 -18 -446 -142 -166 -94 -301 -162 -308 -154 -10 9 52
125 101 190 54 71 99 108 171 141 91 42 150 47 391 38 367 -15 497 -11 700 20
99 16 183 31 187 35 3 3 4 18 1 33 l-5 28 -629 2 -628 3 102 115 c162 183 310
332 647 649 173 163 351 331 395 373 44 43 81 78 81 78 1 0 179 -18 395 -40z
m3444 -49 c88 -40 210 -218 231 -335 l7 -40 -129 114 c-71 63 -139 123 -151
133 l-22 20 -79 -74 c-89 -84 -181 -142 -261 -166 -115 -33 -264 5 -334 87
-30 35 -85 146 -76 154 2 2 126 25 274 51 149 25 299 52 335 60 94 18 159 17
205 -4z m-7634 -150 c51 -65 141 -133 212 -159 80 -30 149 -36 253 -21 72 10
105 10 146 1 29 -7 231 -28 448 -47 217 -20 395 -37 397 -38 6 -7 22 -400 16
-428 -5 -25 -37 -64 -133 -159 -139 -138 -183 -205 -198 -304 -23 -147 61
-295 235 -411 32 -22 62 -42 66 -46 9 -7 -96 -275 -156 -399 -62 -126 -149
-201 -235 -203 -32 -1 -43 7 -114 83 -43 46 -78 90 -78 98 0 19 -123 145 -193
198 l-59 44 -36 -19 c-48 -24 -112 -87 -112 -109 0 -34 30 -141 54 -195 46
-105 104 -151 264 -211 39 -15 72 -33 72 -40 0 -30 -61 -106 -107 -133 -40
-23 -59 -28 -113 -28 -90 1 -143 31 -256 147 -171 175 -281 317 -336 434 -30
63 -33 78 -33 164 0 117 10 150 80 270 128 218 164 323 172 506 6 129 -6 217
-48 345 -30 91 -101 234 -165 330 -31 45 -68 108 -84 138 -29 59 -102 242 -98
247 2 1 19 9 38 17 32 13 36 13 48 -2 6 -9 31 -40 53 -70z m-933 49 c18 -11
40 -36 49 -55 l17 -36 -79 -72 c-44 -39 -106 -96 -137 -127 l-58 -55 28 -33
27 -33 99 41 c55 22 103 40 107 40 18 0 39 -62 39 -114 0 -47 -4 -60 -30 -90
-64 -73 -180 -85 -297 -31 -75 34 -100 58 -130 124 -69 154 -24 303 118 391
114 70 189 85 247 50z m10542 -46 c73 -42 142 -185 143 -294 2 -151 -93 -208
-215 -130 -89 58 -199 110 -228 110 -92 0 -121 -50 -164 -274 -39 -205 -146
-306 -333 -314 -72 -4 -89 -1 -140 23 -86 39 -144 106 -213 250 -32 66 -61
129 -64 141 -6 19 13 28 236 108 306 110 396 153 533 254 118 87 191 131 239
143 53 14 170 4 206 -17z m-1499 -90 c44 -22 97 -93 118 -158 11 -33 32 -115
47 -181 78 -358 222 -514 547 -596 48 -12 87 -25 87 -30 0 -21 -117 -83 -174
-92 -64 -10 -133 10 -305 89 -92 42 -203 85 -248 97 -73 18 -89 19 -138 8 -74
-17 -153 -76 -244 -187 -41 -49 -80 -95 -86 -102 -9 -10 -34 0 -121 50 -142
80 -224 114 -308 128 -122 19 -231 -15 -344 -109 -68 -57 -67 -57 -76 29 -3
30 -26 235 -51 454 -25 220 -45 407 -45 417 0 15 13 13 108 -18 280 -89 473
-60 661 98 57 48 75 59 82 48 5 -8 68 -109 139 -225 126 -205 142 -223 186
-224 7 0 28 101 54 265 48 294 39 276 111 239z m-5602 -41 c0 -8 -785 -696
-799 -701 -14 -5 -22 54 -21 151 1 135 28 220 104 323 79 107 242 195 412 223
64 11 305 13 304 4z m-3984 -253 c4 -99 4 -180 0 -180 -17 0 -118 76 -145 108
-62 76 -45 145 61 250 l64 63 6 -30 c4 -17 10 -112 14 -211z m4580 112 c-50
-49 -253 -250 -452 -447 -200 -197 -365 -356 -368 -353 -13 13 -5 307 10 378
61 292 268 435 715 494 58 8 123 14 145 15 l40 1 -90 -88z m-3676 22 c176 -81
244 -171 243 -325 -1 -185 -81 -350 -205 -423 -111 -64 -280 -75 -390 -24 -62
29 -162 117 -208 184 l-28 42 91 32 c295 102 378 206 378 470 0 106 -10 102
119 44z m10521 -264 c73 -146 103 -298 125 -635 8 -132 20 -269 25 -305 5 -36
10 -71 10 -77 0 -10 82 -13 375 -13 l375 0 0 -27 c-1 -50 -107 -1003 -112
-1008 -5 -5 -248 31 -252 37 -1 2 13 140 31 307 18 167 32 306 30 308 -2 1
-108 12 -236 24 -160 15 -235 18 -240 11 -10 -16 -214 -1092 -208 -1098 2 -3
165 -56 361 -118 196 -63 359 -115 361 -118 5 -5 -353 -919 -364 -931 -10 -10
-231 91 -231 105 0 5 50 131 111 279 61 149 109 272 107 273 -12 11 -454 156
-463 152 -11 -4 -480 -975 -473 -980 4 -4 412 -251 540 -327 59 -35 106 -68
105 -73 -8 -28 -574 -824 -584 -821 -19 6 -203 145 -203 153 0 4 83 122 185
262 102 140 185 258 185 263 0 8 -388 267 -401 267 -6 0 -714 -847 -732 -877
-5 -7 97 -98 285 -253 161 -133 294 -245 296 -249 2 -7 -797 -696 -809 -696
-3 0 -42 46 -87 102 l-82 102 250 207 c217 180 248 209 238 223 -37 46 -311
351 -317 351 -12 0 -876 -640 -874 -648 1 -5 85 -149 188 -320 102 -172 188
-318 191 -325 5 -14 -25 -30 -498 -271 l-306 -157 -61 115 c-34 63 -61 118
-61 123 0 5 117 67 260 138 143 71 260 131 260 132 0 2 -38 82 -85 179 -47 98
-85 184 -85 193 0 25 103 228 155 306 115 171 283 344 590 606 220 188 565
529 717 709 776 920 1194 1974 1288 3245 15 211 12 391 -11 616 -24 241 -28
397 -10 459 7 25 27 76 44 114 l31 68 19 -23 c11 -13 32 -49 47 -79z m-11810
-151 c-15 -156 -18 -224 -11 -229 15 -9 448 -53 458 -47 5 3 22 46 38 96 16
50 32 91 36 91 8 0 238 -277 315 -380 39 -51 60 -93 84 -167 69 -208 152 -333
277 -416 98 -65 204 -99 331 -105 l102 -5 333 -424 c292 -373 332 -428 330
-456 -1 -18 -5 -72 -9 -122 -14 -194 52 -324 311 -612 158 -176 217 -282 239
-431 8 -62 7 -90 -8 -175 -28 -152 -32 -267 -11 -344 24 -88 81 -173 157 -230
205 -157 235 -233 188 -488 -12 -66 -39 -239 -60 -384 -21 -145 -41 -265 -43
-267 -12 -13 -418 340 -607 527 -635 631 -1067 1318 -1335 2124 -179 537 -274
1088 -293 1704 l-7 206 -35 -4 c-19 -1 -38 -7 -41 -13 -16 -26 -31 -250 -25
-372 68 -1322 500 -2438 1308 -3376 209 -242 470 -497 773 -752 50 -42 128
-116 175 -164 96 -101 310 -341 310 -349 0 -3 -20 -5 -45 -5 -43 0 -46 -2
-121 -87 -126 -144 -191 -229 -307 -403 -60 -91 -111 -167 -113 -169 -12 -14
-624 431 -723 524 -11 11 -2 29 59 112 40 54 74 100 76 102 2 2 316 -223 440
-316 l31 -23 141 199 c78 110 142 202 142 205 0 2 -118 105 -262 228 -144 123
-318 271 -387 330 -69 59 -129 107 -133 105 -3 -1 -131 -121 -283 -265 -266
-253 -278 -263 -295 -245 -15 15 -577 697 -602 730 -6 8 22 35 92 88 55 42
105 75 109 73 5 -2 93 -105 195 -230 103 -125 191 -230 196 -233 5 -3 90 67
189 155 l180 160 -76 108 c-42 59 -180 253 -306 432 -126 179 -237 333 -246
342 -15 15 -39 4 -349 -169 -183 -102 -334 -184 -336 -182 -2 2 -103 203 -225
447 l-221 443 32 14 c18 7 74 31 125 53 67 29 94 37 101 29 4 -7 66 -136 136
-287 71 -151 129 -276 131 -278 2 -2 436 206 443 213 2 2 -28 84 -66 182 -148
375 -344 868 -347 871 -2 2 -168 -38 -369 -89 -202 -50 -369 -89 -372 -86 -7
7 -214 1021 -214 1047 0 13 27 23 125 45 69 15 127 26 129 24 3 -2 34 -156 69
-342 35 -185 67 -340 70 -343 7 -7 441 76 460 88 8 5 -7 178 -56 650 -37 354
-70 652 -72 663 -4 20 -17 22 -347 39 -189 10 -347 21 -351 25 -17 17 -39 247
-33 356 8 164 44 269 122 355 38 42 196 129 202 111 2 -5 -6 -110 -18 -232z
m11273 159 c183 -93 247 -180 269 -360 19 -155 16 -830 -5 -1038 -92 -913
-365 -1694 -840 -2405 -305 -457 -708 -901 -1160 -1277 -106 -88 -212 -157
-223 -145 -3 3 0 62 5 133 6 71 13 197 16 279 18 445 68 640 228 872 66 97 83
152 80 263 -10 405 -9 425 30 570 20 74 52 186 72 247 25 83 36 139 40 210 3
54 8 122 11 150 l5 53 334 2 334 3 -44 65 c-59 87 -80 156 -80 255 1 101 25
180 115 379 129 286 173 445 172 631 -1 99 -18 205 -46 275 -5 11 3 19 28 28
58 21 178 106 231 163 119 127 181 256 280 582 20 64 38 117 41 117 3 0 51
-23 107 -52z m-7273 -228 c-5 -29 -10 -105 -10 -170 0 -130 -13 -217 -40 -270
-29 -56 -131 -140 -170 -140 -6 0 -23 26 -37 57 -50 109 -32 230 53 359 36 54
203 229 211 221 2 -2 -1 -28 -7 -57z m-455 -224 c40 -9 50 -15 49 -31 -3 -34
-43 -217 -59 -266 -30 -89 -115 -138 -218 -124 -57 8 -112 52 -153 121 -64
109 3 257 136 299 55 17 177 17 245 1z m6589 -157 c72 -26 183 -106 234 -167
55 -65 97 -147 113 -218 23 -104 -13 -322 -101 -599 -36 -114 -240 -666 -250
-678 -7 -8 -15 46 -45 298 -38 312 -81 402 -329 680 -44 50 -88 100 -99 111
-18 21 -18 24 3 104 12 45 32 136 45 202 38 186 85 251 203 285 59 16 155 9
226 -18z m-904 -117 c100 -42 250 -140 281 -183 40 -56 34 -126 -20 -234 l-44
-87 6 -119 c4 -66 3 -119 -2 -119 -4 0 -90 43 -190 96 -101 54 -186 93 -191
88 -4 -5 -43 -120 -85 -257 -43 -136 -80 -245 -82 -243 -18 18 -68 631 -68
846 0 110 27 169 100 219 49 32 52 33 135 29 66 -4 101 -12 160 -36z m-4074
-301 c23 -10 49 -29 58 -42 24 -35 20 -95 -10 -146 -31 -54 -169 -159 -221
-169 -58 -11 -234 2 -277 20 -89 37 -174 133 -162 182 9 36 86 109 130 124
153 50 404 66 482 31z m4547 -392 c112 -59 173 -181 196 -389 7 -58 28 -194
47 -304 19 -109 33 -200 30 -203 -2 -2 -38 -7 -78 -10 -111 -8 -167 13 -238
90 -30 33 -123 128 -207 211 -83 83 -167 176 -185 206 -45 72 -148 265 -148
277 0 5 14 16 32 24 30 15 36 14 139 -28 130 -53 191 -62 243 -38 38 18 86 78
112 140 15 38 24 41 57 24z m-6289 -55 c11 -28 6 -100 -9 -143 -35 -100 -54
-118 -645 -615 -168 -141 -308 -256 -311 -256 -8 0 -19 91 -19 160 0 74 32
137 82 163 21 10 74 22 120 27 46 4 90 11 99 14 8 4 161 155 339 336 178 182
327 330 331 330 4 0 10 -7 13 -16z m188 -300 c17 -37 33 -88 36 -115 13 -135
-33 -183 -309 -325 -382 -197 -443 -253 -583 -533 l-37 -73 -25 23 c-78 73
-102 154 -67 227 24 51 140 165 323 318 85 71 260 222 389 337 129 114 236
207 238 207 2 0 18 -30 35 -66z m5258 -169 c226 -294 334 -427 453 -554 119
-126 195 -232 226 -315 69 -185 32 -335 -119 -488 -41 -43 -81 -78 -87 -78 -7
0 -62 73 -124 163 -155 224 -233 327 -328 432 -148 163 -222 296 -255 457 -20
97 -20 240 -1 351 18 105 64 253 74 241 5 -5 77 -99 161 -209z m379 -104 c205
-120 311 -245 369 -433 20 -65 41 -218 29 -218 -6 0 -557 716 -557 724 0 9 87
-31 159 -73z m-5471 -274 c36 -107 36 -107 25 -195 -14 -109 -54 -231 -97
-297 -48 -72 -174 -212 -423 -466 l-220 -223 -72 128 c-123 217 -161 340 -141
461 15 92 54 160 149 259 108 112 189 174 476 370 l230 156 18 -42 c10 -24 35
-91 55 -151z m4782 -254 c90 -97 130 -164 130 -218 0 -46 -39 -134 -105 -236
-42 -66 -48 -70 -78 -67 l-32 3 -3 298 c-1 178 1 297 7 297 5 0 42 -35 81 -77z
m284 -348 c59 -35 113 -91 127 -133 21 -63 6 -115 -82 -288 -46 -90 -80 -166
-77 -169 3 -4 45 24 93 61 79 61 89 66 111 55 17 -7 22 -15 17 -24 -4 -8 -146
-203 -315 -434 -170 -232 -308 -425 -308 -430 0 -6 9 -18 20 -28 19 -17 21
-16 87 43 37 33 77 69 87 81 49 54 38 5 -21 -94 -155 -258 -469 -543 -742
-674 -90 -42 -101 -45 -180 -46 -48 0 -85 4 -87 10 -1 6 91 91 206 190 115 99
221 190 235 203 l26 22 -21 30 c-12 17 -26 30 -32 30 -6 0 -62 -46 -125 -102
-187 -167 -335 -287 -379 -308 -56 -27 -123 -26 -182 4 -84 43 -84 42 36 146
151 132 558 542 679 685 302 354 535 705 703 1058 36 75 69 136 73 137 5 0 28
-11 51 -25z m-5040 -78 l39 -33 -298 -365 -298 -364 7 80 c14 160 92 324 222
464 58 63 270 250 284 251 3 0 22 -15 44 -33z m266 -124 c255 -403 324 -491
559 -711 285 -267 878 -765 960 -807 70 -35 150 -53 301 -66 384 -34 728 35
987 198 135 84 208 149 395 351 95 102 374 389 620 636 l448 450 25 -24 c30
-28 65 -117 65 -166 0 -45 -31 -131 -63 -180 -15 -20 -87 -108 -160 -193 -74
-86 -221 -257 -327 -381 -262 -307 -448 -507 -555 -598 -280 -236 -561 -345
-925 -359 -177 -7 -294 4 -512 48 -174 34 -225 36 -336 9 -182 -44 -320 -13
-477 105 -150 113 -440 412 -597 615 -268 348 -465 759 -518 1080 -24 151 -24
140 -1 140 13 0 46 -44 111 -147z m-175 -318 c125 -326 328 -669 569 -962 119
-143 361 -383 519 -513 l128 -105 -38 -33 c-99 -86 -202 -109 -293 -65 -25 13
-82 56 -127 97 -77 70 -252 197 -270 195 -4 0 -18 -13 -30 -28 l-21 -27 160
-173 c88 -94 158 -175 155 -178 -10 -9 -101 26 -166 65 -418 246 -921 1036
-957 1502 l-6 75 99 -200 c55 -110 124 -251 153 -313 57 -121 56 -120 116 -88
21 11 21 14 -61 226 -45 118 -96 250 -113 293 -49 120 -41 209 24 268 44 40
108 80 114 71 4 -4 23 -52 45 -107z m5600 -65 c28 -12 45 -25 42 -33 -30 -80
-133 -411 -191 -615 -91 -320 -150 -567 -221 -927 -118 -605 -191 -759 -415
-874 -111 -58 -182 -73 -353 -79 -307 -9 -573 49 -806 177 -103 57 -181 115
-295 220 -54 50 -172 143 -262 207 -145 103 -163 118 -154 135 6 10 16 19 23
19 29 0 302 -159 446 -259 201 -140 319 -212 457 -277 307 -147 573 -165 813
-57 l63 28 -148 1 c-370 1 -679 124 -1164 462 -165 115 -231 142 -529 218 -97
25 -180 49 -184 53 -14 14 151 72 251 89 82 14 102 14 185 0 141 -23 426 -139
867 -353 290 -140 360 -168 478 -191 95 -18 143 -18 211 2 146 41 237 170 285
404 8 41 24 176 36 301 11 124 29 281 40 350 47 287 134 551 239 723 42 69
220 296 232 296 4 0 28 -9 54 -20z m-6315 -426 c89 -46 221 -172 262 -249 15
-28 39 -91 55 -140 l28 -90 1 -445 c1 -524 12 -646 70 -760 57 -114 167 -165
305 -140 80 14 246 84 499 210 438 219 1143 498 1340 532 59 10 70 9 105 -8
21 -10 47 -30 57 -44 19 -27 55 -157 45 -166 -3 -3 -29 -1 -57 5 -71 15 -226
14 -307 -3 -143 -30 -251 -78 -548 -242 -93 -51 -272 -140 -396 -198 -264
-122 -512 -256 -474 -256 29 0 314 66 392 91 57 18 223 96 426 198 212 108
367 179 427 198 119 38 150 45 150 36 0 -5 -15 -35 -33 -67 l-32 -60 -210
-113 c-115 -63 -330 -174 -478 -248 -360 -181 -481 -219 -697 -218 -246 0
-456 89 -627 264 -123 126 -178 218 -230 384 l-28 90 2 282 c1 155 7 310 13
345 21 116 85 226 165 279 35 23 36 26 31 71 -10 95 -44 136 -209 248 -84 57
-136 110 -246 250 l-71 90 32 20 32 19 66 -63 c38 -37 96 -79 140 -102z m5666
-416 c-3 -18 -10 -98 -16 -178 -16 -213 -48 -482 -70 -590 -26 -126 -79 -233
-138 -274 -78 -55 -202 -48 -371 20 -93 37 -343 173 -339 183 5 12 923 870
931 870 4 1 6 -14 3 -31z m-4775 -603 l409 -440 -132 -63 c-276 -132 -391
-174 -476 -175 -133 -1 -206 83 -223 257 -13 141 -12 869 2 864 7 -2 196 -202
420 -443z m2221 -185 c78 -24 167 -86 308 -215 113 -103 206 -159 286 -171 53
-8 59 -17 47 -74 l-8 -42 -85 -29 c-207 -72 -363 -36 -520 121 -99 99 -175
245 -205 398 l-7 32 60 0 c33 0 89 -9 124 -20z m-305 -271 c59 -29 275 -281
256 -300 -17 -16 -170 -49 -229 -49 -123 0 -207 57 -262 179 -46 100 -46 101
23 138 106 58 147 64 212 32z m-354 -295 c29 -14 75 -48 104 -75 84 -79 96
-82 348 -89 151 -3 251 -1 320 8 79 10 120 10 193 1 216 -27 346 19 444 160
11 15 21 20 30 15 14 -8 466 -351 482 -365 12 -11 -75 -49 -185 -83 -501 -152
-1544 -167 -2191 -30 -143 30 -270 66 -345 98 l-55 23 168 103 c192 117 368
212 446 240 80 29 177 27 241 -6z m2588 -496 c19 -28 0 -42 -126 -98 -83 -37
-129 -63 -127 -71 1 -8 51 -174 111 -369 94 -309 106 -356 92 -362 -19 -9
-775 -208 -788 -208 -9 0 -73 214 -73 243 0 7 94 37 244 77 217 57 246 67 255
88 9 19 5 50 -20 150 -36 149 -69 223 -110 253 -43 30 -124 34 -249 11 -726
-131 -700 -125 -700 -152 0 -14 11 -176 25 -360 14 -184 25 -345 25 -357 l0
-23 -425 0 -425 0 0 115 0 115 268 2 267 3 3 258 2 257 -482 -2 -483 -3 -55
-365 -55 -365 -25 3 c-56 6 -825 155 -831 161 -3 3 7 61 23 128 28 114 32 123
51 118 113 -25 542 -94 547 -88 8 10 85 472 79 477 -8 7 -974 255 -977 251 -3
-2 -64 -165 -138 -362 -73 -197 -137 -357 -143 -356 -21 5 -806 354 -814 362
-8 8 36 106 90 197 l24 42 250 -114 c243 -111 251 -114 278 -99 41 21 64 64
104 193 39 126 63 167 115 203 33 22 46 24 231 30 108 4 246 10 306 14 69 5
131 3 165 -4 30 -5 132 -26 225 -46 408 -84 818 -126 1240 -127 502 0 937 52
1400 167 l140 35 239 -4 c183 -4 241 -8 247 -18z"/>
<path d="M10605 11445 c-168 -37 -301 -122 -535 -343 l-75 -71 65 0 c70 -1
119 20 140 58 20 39 164 152 242 191 201 100 446 92 733 -26 50 -20 113 -43
140 -50 38 -11 260 -29 408 -34 17 0 5 31 -15 40 -13 5 -129 37 -258 71 -129
33 -300 81 -380 106 -244 76 -334 87 -465 58z"/>
<path d="M10585 11119 c-132 -19 -290 -85 -364 -152 -27 -25 -81 -96 -81 -108
0 -4 53 15 118 43 251 106 411 147 498 128 57 -13 113 -49 93 -61 -8 -4 -88
-28 -179 -54 -192 -54 -395 -119 -461 -147 -37 -15 -52 -30 -73 -68 -35 -64
-45 -140 -22 -174 35 -55 92 -75 298 -107 354 -55 476 -50 630 27 148 74 233
136 569 411 133 110 136 113 152 170 8 32 15 59 13 60 -1 1 -47 -30 -101 -69
-55 -39 -128 -84 -163 -100 -55 -26 -71 -30 -128 -26 -59 4 -85 14 -267 106
-177 89 -213 103 -291 117 -96 16 -148 17 -241 4z m338 -366 c98 -64 174 -119
170 -124 -13 -13 -387 -157 -435 -168 -59 -14 -109 1 -159 46 -46 42 -104 118
-119 157 -9 25 -7 31 25 60 19 18 63 49 97 69 53 31 72 37 120 37 49 0 60 3
75 25 11 14 24 22 33 19 8 -3 95 -57 193 -121z"/>
<path d="M9197 10688 c-8 -402 -23 -705 -44 -893 -24 -222 -28 -388 -9 -468
21 -89 58 -167 112 -233 25 -30 38 -54 31 -54 -7 0 -145 18 -307 39 -162 22
-297 38 -299 35 -2 -2 16 -24 41 -47 112 -108 398 -149 539 -77 21 11 42 27
47 36 7 13 37 18 148 26 76 5 146 12 154 14 8 3 -33 24 -90 47 -170 68 -231
111 -273 192 -25 50 -26 181 -2 294 11 52 20 200 30 505 8 237 17 514 21 616
l6 185 -47 58 c-26 31 -48 57 -50 57 -1 0 -5 -150 -8 -332z"/>
<path d="M9895 9121 l-260 -96 100 -5 c123 -6 285 3 344 19 25 7 59 27 78 46
29 29 33 40 33 84 0 42 -3 51 -17 50 -10 -1 -135 -44 -278 -98z"/>
<path d="M9365 8680 c-86 -18 -445 -118 -454 -126 -2 -2 249 -4 559 -4 489 0
561 2 550 14 -20 26 -192 105 -260 121 -92 21 -282 19 -395 -5z"/>
<path d="M10330 8475 c-166 -70 -627 -117 -1150 -118 -339 0 -481 11 -611 49
-21 6 -156 -153 -142 -167 5 -5 43 -16 84 -25 99 -21 250 -14 444 22 200 37
371 39 460 5 93 -35 98 -35 156 -5 70 35 183 43 635 44 l332 0 12 29 c7 17 10
34 9 39 -6 15 -156 152 -165 151 -5 -1 -34 -12 -64 -24z"/>
<path d="M8775 8064 c192 -149 834 -182 1205 -62 71 22 140 57 140 70 0 4
-307 8 -682 8 -619 -1 -681 -2 -663 -16z"/>
<path d="M3165 2983 c3 -10 132 -367 285 -793 153 -426 282 -783 285 -793 7
-16 20 -17 129 -15 l121 3 292 790 c161 435 295 798 299 808 5 15 -3 17 -69
17 l-74 0 -244 -665 c-134 -365 -246 -661 -250 -657 -5 6 -210 606 -421 1235
l-30 87 -165 0 c-153 0 -165 -1 -158 -17z"/>
<path d="M5265 2988 c-3 -7 -4 -371 -3 -808 l3 -795 523 -3 522 -2 0 65 0 65
-352 2 -353 3 -3 318 -2 317 355 0 355 0 0 65 0 65 -355 0 -355 0 0 295 0 295
355 0 355 0 0 65 0 65 -520 0 c-407 0 -522 -3 -525 -12z"/>
<path d="M6963 2193 l2 -808 173 -3 172 -2 0 375 0 375 59 0 59 0 317 -375
317 -375 190 0 c177 0 189 1 177 17 -8 9 -155 181 -326 382 -172 200 -313 367
-313 371 0 3 27 12 59 18 146 30 300 143 358 260 39 79 44 183 13 265 -46 121
-162 223 -313 274 l-82 28 -432 3 -433 3 3 -808z m626 676 c116 -26 223 -105
267 -195 88 -179 -45 -379 -285 -430 -36 -7 -110 -14 -163 -14 l-98 0 0 325 0
325 118 0 c64 0 137 -5 161 -11z"/>
<path d="M9465 2984 c-84 -16 -213 -79 -276 -134 -97 -83 -166 -228 -156 -326
16 -159 189 -304 487 -409 145 -51 278 -115 324 -156 130 -114 88 -303 -88
-389 -180 -89 -405 -51 -548 92 l-56 56 -96 -66 -96 -66 22 -23 c38 -40 145
-104 217 -129 80 -28 238 -54 326 -54 317 0 574 119 667 308 30 61 33 75 33
162 0 88 -3 101 -33 162 -38 77 -127 166 -217 217 -32 18 -133 62 -224 98
-281 110 -363 158 -401 234 -24 45 -26 109 -6 148 36 69 141 131 259 152 132
24 268 -18 372 -113 l55 -50 95 57 c52 32 95 61 95 66 0 9 -70 58 -119 84
-158 81 -446 117 -636 79z"/>
<path d="M11447 2988 c-3 -7 -57 -139 -120 -293 -97 -236 -518 -1263 -534
-1303 -4 -10 14 -12 82 -10 l88 3 99 253 100 252 336 -2 335 -3 102 -250 101
-250 177 -3 177 -2 -9 22 c-5 13 -138 327 -296 698 -158 371 -308 725 -334
785 l-46 110 -127 3 c-95 2 -127 -1 -131 -10z m197 -626 c75 -188 136 -344
136 -347 0 -3 -126 -5 -280 -5 -234 0 -280 2 -280 14 0 8 57 158 126 333 69
175 130 329 135 342 6 14 13 20 18 15 4 -5 69 -163 145 -352z"/>
<path d="M13477 2985 c-166 -32 -326 -118 -419 -225 -141 -163 -205 -362 -195
-605 8 -198 58 -338 172 -484 168 -214 428 -317 711 -281 266 33 463 138 533
283 17 34 31 78 33 97 l3 35 -126 3 -126 3 -22 -60 c-44 -120 -157 -203 -308
-225 -184 -26 -348 79 -447 288 -62 129 -81 214 -80 366 0 69 6 152 13 185 48
219 177 398 330 456 63 23 195 26 267 4 105 -31 190 -115 217 -212 l11 -43
133 0 c154 0 148 -5 112 103 -53 160 -155 250 -337 299 -104 27 -363 34 -475
13z"/>
<path d="M15065 2988 c-3 -7 -4 -371 -3 -808 l3 -795 523 -3 522 -2 0 65 0 65
-352 2 -353 3 -3 318 -2 317 355 0 355 0 0 65 0 65 -355 0 -355 0 0 295 0 295
355 0 355 0 0 65 0 65 -520 0 c-407 0 -522 -3 -525 -12z"/>
</g>
</svg>
