<?xml version="1.0" standalone="no"?>
<!DOCTYPE svg PUBLIC "-//W3C//DTD SVG 20010904//EN"
 "http://www.w3.org/TR/2001/REC-SVG-20010904/DTD/svg10.dtd">
<svg version="1.0" xmlns="http://www.w3.org/2000/svg"
 width="25px" height="25px" viewBox="0 0 300.000000 145.000000"
 preserveAspectRatio="xMidYMid meet">
<metadata>
Created by potrace 1.16, written by Peter Selinger 2001-2019
</metadata>
<g transform="translate(0.000000,145.000000) scale(0.100000,-0.100000)"
fill="#000000" stroke="none">
<path d="M771 1385 c-22 -37 -41 -70 -41 -76 0 -5 15 -9 34 -9 19 0 179 -9
356 -21 177 -11 324 -18 327 -16 2 3 -6 45 -19 94 l-24 88 -296 3 -296 2 -41
-65z"/>
<path d="M1806 1428 c-41 -67 -96 -168 -96 -177 0 -6 21 -12 48 -12 26 -1 94
-4 152 -8 l105 -6 -167 -14 c-129 -11 -171 -18 -181 -30 -8 -9 -40 -58 -73
-110 l-59 -94 -33 107 -33 106 -62 -5 c-83 -8 -697 -45 -739 -45 -31 0 -36 -5
-79 -83 -26 -45 -45 -83 -44 -85 2 -2 281 -21 622 -43 340 -21 623 -41 628
-43 6 -3 -15 -5 -45 -5 -30 -1 -329 -19 -665 -41 -335 -22 -616 -40 -625 -40
-15 0 -97 -137 -87 -146 3 -3 286 -23 629 -44 342 -20 614 -38 603 -39 -141
-7 -1288 -83 -1310 -87 -26 -4 -36 -16 -73 -84 -30 -57 -39 -81 -30 -84 7 -2
132 -11 278 -21 146 -9 294 -18 330 -21 l65 -6 54 106 55 106 31 -108 31 -107
46 -6 c25 -4 105 -10 177 -14 72 -4 131 -11 131 -15 0 -4 -55 -10 -122 -14
-68 -4 -143 -9 -166 -13 -50 -6 -50 -5 -11 -133 l21 -70 545 0 c516 0 549 1
626 20 190 48 366 169 428 295 27 55 32 76 33 142 0 68 -4 87 -32 146 -17 38
-45 86 -62 107 -30 38 -30 50 -1 50 34 0 163 71 212 117 88 82 139 199 139
316 -1 107 -39 165 -140 211 -90 41 -158 46 -612 46 l-428 0 -14 -22z m667
-294 c39 -39 43 -77 15 -131 -35 -70 -77 -87 -216 -91 l-113 -4 22 44 c12 23
41 80 66 126 l45 82 77 0 c71 0 81 -2 104 -26z m-286 -544 c21 -13 36 -32 44
-59 10 -35 9 -45 -11 -85 -15 -32 -35 -54 -64 -71 -39 -23 -53 -25 -155 -25
l-112 0 67 130 68 130 65 0 c48 0 75 -5 98 -20z"/>
<path d="M480 173 c-179 -12 -344 -22 -367 -22 -43 -1 -43 -1 -78 -71 -19 -38
-35 -72 -35 -75 0 -3 161 -5 358 -5 l357 0 48 90 c27 50 47 94 45 98 -2 4
-149 -3 -328 -15z"/>
</g>
</svg>
