<?xml version="1.0" standalone="no"?>
<!DOCTYPE svg PUBLIC "-//W3C//DTD SVG 20010904//EN"
 "http://www.w3.org/TR/2001/REC-SVG-20010904/DTD/svg10.dtd">
<svg version="1.0" xmlns="http://www.w3.org/2000/svg"
 width="25" height="25" viewBox="0 0 768.000000 432.000000"
 preserveAspectRatio="xMidYMid meet">
<metadata>
Created by potrace 1.16, written by Peter Selinger 2001-2019
</metadata>
<g transform="translate(0.000000,432.000000) scale(0.100000,-0.100000)"
fill="#000000" stroke="none">
<path d="M3140 4073 c-244 -30 -510 -136 -680 -272 -67 -53 -211 -200 -245
-251 -16 -25 -32 -47 -36 -50 -19 -18 -113 -196 -149 -285 -31 -77 -61 -185
-87 -310 -23 -113 -26 -484 -5 -580 31 -141 56 -241 63 -255 4 -8 18 -44 30
-79 42 -119 135 -283 220 -386 30 -38 144 -152 184 -185 43 -36 160 -113 225
-147 114 -60 275 -111 438 -138 106 -17 401 -20 482 -5 29 6 55 9 56 7 2 -2
-29 -20 -69 -40 -70 -36 -185 -98 -324 -173 -82 -44 -227 -121 -303 -161 -30
-15 -57 -30 -60 -33 -3 -3 -40 -23 -83 -44 -109 -56 -147 -89 -147 -130 0 -54
45 -81 105 -65 28 8 177 124 205 160 3 4 30 20 60 36 90 49 160 65 284 64 218
0 446 -81 741 -264 202 -126 353 -217 359 -217 3 0 33 -20 67 -45 34 -25 67
-45 75 -45 8 0 14 -4 14 -10 0 -5 6 -10 13 -10 6 0 23 -6 37 -13 142 -73 344
-96 511 -58 121 27 187 55 301 127 21 13 41 24 44 24 15 0 118 96 154 144 68
90 140 263 140 337 0 27 -3 29 -40 29 -31 0 -40 -4 -40 -17 0 -36 -56 -130
-109 -183 -148 -148 -333 -169 -711 -84 -78 17 -167 42 -195 54 -11 5 -90 31
-175 60 -85 28 -168 57 -185 65 -44 20 -354 122 -395 130 -19 4 -48 11 -65 16
-90 27 -218 42 -390 48 l-190 6 45 22 c25 13 72 38 105 56 158 87 195 107 260
142 39 21 104 56 145 78 41 22 80 43 85 47 6 4 55 31 110 60 55 29 107 59 116
66 8 8 20 14 26 14 6 0 13 3 15 8 2 4 23 21 48 37 59 39 247 227 285 285 17
25 32 47 35 50 31 28 126 221 163 331 73 215 90 323 91 559 1 218 -11 305 -69
500 -31 103 -129 327 -155 350 -3 3 -27 38 -55 79 -46 68 -237 271 -256 271
-4 0 -14 6 -21 13 -47 47 -199 132 -303 170 -203 74 -293 89 -545 92 -118 2
-231 1 -250 -2z m358 -78 c227 -17 480 -156 628 -343 27 -34 54 -68 59 -75 15
-17 97 -156 117 -197 77 -160 122 -319 153 -535 28 -206 12 -536 -35 -710 -39
-144 -50 -179 -82 -255 -152 -359 -406 -586 -748 -667 -107 -26 -366 -25 -470
2 -187 47 -329 125 -461 255 -208 205 -334 472 -390 830 -21 134 -23 400 -4
540 16 115 63 327 84 375 5 11 19 45 31 75 39 102 113 234 177 320 107 142
283 277 433 332 121 44 295 71 400 62 19 -2 68 -6 108 -9z"/>
<path d="M3920 3065 c-101 -28 -183 -94 -229 -183 -65 -128 -40 -323 55 -426
116 -124 344 -136 456 -24 34 34 78 112 78 139 0 5 -18 9 -39 9 -33 0 -40 -4
-45 -25 -11 -43 -63 -93 -116 -110 -47 -15 -54 -15 -100 0 -90 30 -140 135
-140 293 0 178 55 272 161 272 68 0 76 -6 95 -63 9 -29 23 -60 32 -69 22 -26
74 -23 100 5 57 61 -3 151 -121 180 -76 19 -123 20 -187 2z"/>
<path d="M2490 3020 l0 -40 53 0 c29 0 58 -5 65 -12 9 -9 12 -105 12 -370 0
-416 1 -408 -80 -429 -47 -12 -50 -15 -50 -46 l0 -33 170 0 170 0 0 33 c0 31
-3 34 -50 46 -81 21 -81 22 -78 353 l3 283 29 -75 c15 -41 35 -88 42 -104 8
-16 14 -33 14 -39 0 -5 7 -23 15 -40 8 -18 30 -75 50 -127 19 -52 39 -104 45
-115 5 -11 26 -64 46 -117 37 -96 38 -98 69 -98 29 0 34 4 50 48 10 26 26 65
35 87 10 22 47 119 83 215 37 96 84 220 106 275 l40 100 0 -303 1 -303 -25
-24 c-18 -19 -35 -25 -67 -25 -43 0 -44 -1 -43 -32 l0 -33 226 -3 227 -2 4 35
4 35 -48 0 c-39 0 -54 5 -73 25 l-25 24 0 370 c0 426 -6 401 92 401 51 0 59 2
54 16 -3 9 -6 27 -6 40 l0 25 -156 -3 -157 -3 -34 -90 c-50 -135 -93 -246
-108 -280 -7 -16 -36 -92 -66 -167 -29 -76 -56 -138 -59 -138 -3 0 -14 24 -24
53 -10 28 -26 70 -36 92 -9 22 -30 74 -45 115 -15 41 -36 93 -45 115 -10 22
-32 81 -50 130 -19 50 -37 95 -41 100 -3 6 -10 25 -14 43 l-7 32 -159 0 -159
0 0 -40z"/>
</g>
</svg>
