<?xml version="1.0" standalone="no"?>
<!DOCTYPE svg PUBLIC "-//W3C//DTD SVG 20010904//EN"
 "http://www.w3.org/TR/2001/REC-SVG-20010904/DTD/svg10.dtd">
<svg version="1.0" xmlns="http://www.w3.org/2000/svg"
 width="25" height="25" viewBox="0 0 900.000000 592.000000"
 preserveAspectRatio="xMidYMid meet">
<metadata>
Created by potrace 1.16, written by Peter Selinger 2001-2019
</metadata>
<g transform="translate(0.000000,592.000000) scale(0.100000,-0.100000)"
fill="#000000" stroke="none">
<path d="M1844 4699 c-52 -12 -121 -71 -145 -123 -26 -57 -25 -148 2 -203 12
-24 41 -61 66 -81 25 -20 122 -129 216 -242 95 -113 296 -351 447 -530 339
-399 637 -752 716 -845 32 -39 293 -346 579 -683 286 -337 537 -637 557 -667
68 -98 172 -135 279 -100 62 21 60 19 311 315 100 118 259 305 353 415 94 110
333 389 530 620 198 231 519 607 714 835 195 228 422 494 505 590 82 96 184
211 226 255 93 97 112 130 118 215 5 80 -16 129 -78 182 -62 54 -106 65 -198
48 -42 -8 -95 -14 -117 -14 -22 0 -715 3 -1540 7 -3260 16 -3500 16 -3541 6z
m120 -130 c35 -16 60 -72 51 -116 -9 -52 -48 -83 -102 -83 -38 0 -51 6 -79 34
-86 86 16 216 130 165z m4291 -5 c335 -3 610 -6 612 -7 1 -2 -2 -20 -7 -42
-11 -49 4 -122 33 -167 12 -18 46 -48 74 -67 46 -30 51 -37 39 -50 -7 -9 -231
-271 -497 -582 -1346 -1572 -1717 -2007 -1752 -2051 -35 -44 -67 -62 -67 -39
0 5 -12 24 -27 42 -36 42 -116 79 -174 79 -60 0 -139 -40 -185 -93 l-36 -42
-26 31 c-15 17 -196 230 -402 474 -206 244 -418 494 -470 555 -580 681 -1376
1628 -1378 1639 -2 8 6 17 18 21 34 11 89 65 112 109 18 34 20 52 15 124 l-5
84 1757 -6 c966 -4 2030 -9 2366 -12z m898 -4 c38 -30 52 -80 34 -123 -19 -45
-52 -67 -102 -67 -81 1 -128 79 -93 156 24 51 115 70 161 34z m-2592 -3039
c33 -34 39 -83 14 -130 -35 -69 -144 -70 -179 -2 -44 84 2 160 97 161 30 0 45
-7 68 -29z"/>
<path d="M4963 4432 c-27 -4 -31 -22 -5 -22 10 0 28 -7 40 -16 22 -15 22 -19
22 -254 0 -131 -3 -245 -6 -254 -3 -8 -22 -21 -42 -28 l-37 -13 60 -6 c95 -11
294 -10 364 1 142 24 235 109 267 247 22 96 -13 191 -100 271 -72 66 -88 70
-328 74 -117 1 -223 2 -235 0z m394 -78 c49 -31 58 -67 58 -229 0 -129 -3
-155 -18 -179 -26 -39 -96 -68 -154 -64 l-46 3 2 240 c1 132 5 243 8 248 8 13
124 -2 150 -19z"/>
<path d="M5761 4432 c0 -4 21 -20 47 -37 53 -34 94 -89 90 -120 -2 -11 -50
-105 -107 -209 -75 -135 -113 -194 -133 -205 -15 -9 -28 -19 -28 -23 0 -5 39
-8 88 -8 l87 0 -29 23 -29 24 26 55 c14 31 35 61 46 67 13 7 64 11 133 9 l112
-3 32 -55 c39 -64 42 -86 14 -95 -53 -17 -8 -25 140 -25 88 0 160 4 160 9 0 5
-13 14 -29 21 -16 6 -36 19 -44 28 -8 10 -84 134 -168 277 -83 143 -153 260
-153 261 -5 6 -256 12 -255 6z m225 -293 l41 -74 -85 -3 c-46 -2 -87 -1 -90 2
-12 13 65 159 82 153 6 -2 29 -37 52 -78z"/>
<path d="M2600 4422 c0 -4 14 -13 30 -19 l30 -11 0 -242 c0 -135 -4 -249 -10
-259 -5 -10 -23 -24 -40 -31 -47 -19 -36 -30 33 -32 145 -3 233 -4 254 0 27 5
21 22 -7 22 -10 0 -31 11 -46 24 -26 22 -28 29 -28 102 l-1 79 150 6 c161 5
194 15 233 64 32 40 46 114 32 166 -15 55 -72 113 -125 128 -46 12 -505 15
-505 3z m411 -65 c41 -28 59 -60 59 -110 0 -42 -18 -83 -48 -110 -16 -15 -35
-17 -113 -15 l-94 3 4 115 c1 63 5 117 6 119 8 7 72 19 111 20 27 1 52 -7 75
-22z"/>
<path d="M3320 4426 c0 -3 14 -18 30 -34 l30 -30 0 -232 c0 -131 -4 -239 -10
-250 -5 -10 -21 -21 -35 -24 -14 -4 -25 -11 -25 -16 0 -6 53 -10 133 -10 72 0
149 -3 170 -6 45 -8 50 8 7 26 -49 20 -60 45 -60 132 0 43 3 78 6 78 3 0 60
-49 126 -109 l122 -108 130 -7 c74 -3 134 -2 139 3 5 5 -34 43 -99 95 l-107
86 -97 0 c-81 0 -100 3 -113 18 -10 10 -17 21 -17 24 0 2 44 4 98 4 91 -1 102
1 139 26 123 81 118 255 -9 317 -42 20 -60 21 -301 21 -141 0 -257 -2 -257 -4z
m420 -59 c88 -31 98 -178 15 -233 -16 -11 -50 -16 -107 -17 l-83 -2 -3 133 -3
132 73 -1 c40 0 89 -5 108 -12z"/>
<path d="M4280 4420 c0 -5 23 -44 51 -85 l50 -76 -59 -107 c-33 -59 -78 -144
-100 -188 -24 -49 -55 -93 -74 -108 l-33 -26 103 0 c61 0 102 4 102 10 0 6
-11 10 -24 10 -47 0 -51 23 -18 95 l31 65 120 0 119 0 36 -57 c41 -65 45 -93
16 -100 -55 -14 -5 -23 135 -23 97 0 155 4 155 10 0 6 -6 10 -13 10 -26 0 -67
59 -193 280 -70 124 -138 242 -151 263 l-23 37 -115 0 c-69 0 -115 -4 -115
-10z"/>
<path d="M4736 3633 c-10 -34 -18 -182 -12 -207 13 -53 26 -24 26 58 0 47 4
87 10 91 5 3 37 -35 70 -85 34 -50 67 -89 73 -87 8 2 13 42 15 120 2 98 0 117
-12 117 -12 0 -16 -18 -18 -92 l-3 -93 -63 95 c-35 52 -67 96 -72 98 -5 2 -11
-5 -14 -15z"/>
<path d="M3895 3588 c-9 -75 -2 -171 12 -175 9 -3 13 19 15 79 3 76 4 81 15
55 43 -97 66 -138 76 -134 11 3 35 45 64 111 l18 41 3 -60 c3 -74 9 -105 22
-105 11 0 13 88 4 179 -4 38 -11 61 -19 61 -12 0 -41 -59 -65 -132 -16 -53
-28 -55 -46 -11 -34 85 -66 143 -79 143 -9 0 -16 -18 -20 -52z"/>
<path d="M4557 3614 c-26 -51 -79 -195 -74 -201 9 -8 27 7 27 23 0 17 40 34
81 34 24 0 33 -7 46 -35 17 -36 33 -46 33 -20 0 24 -68 197 -84 213 -12 13
-16 11 -29 -14z"/>
<path d="M5039 3623 c-55 -34 -74 -105 -44 -163 51 -99 180 -91 221 15 15 40
15 49 3 82 -28 71 -118 105 -180 66z m132 -42 c84 -84 -32 -213 -125 -140 -38
30 -49 64 -35 106 21 66 109 84 160 34z"/>
<path d="M4210 3276 c-132 -19 -197 -35 -211 -52 -8 -10 -10 -35 -6 -80 6 -63
6 -65 -21 -75 -48 -18 -238 -12 -370 11 -136 25 -164 20 -114 -21 16 -13 50
-36 76 -51 25 -15 46 -34 46 -41 0 -15 -49 -41 -98 -51 -36 -8 -42 -30 -13
-45 60 -33 369 -52 495 -31 84 14 94 25 56 65 -16 17 -30 37 -30 43 0 19 50
37 175 63 95 21 137 24 305 24 207 -1 289 -14 409 -65 61 -27 70 -45 36 -80
-21 -21 -23 -29 -13 -38 7 -6 103 -20 213 -33 164 -18 213 -20 273 -12 40 6
76 13 79 16 13 14 -10 38 -71 72 -36 20 -66 41 -66 45 0 5 27 30 60 56 79 62
80 80 3 68 -72 -11 -355 -12 -405 -1 l-37 8 -3 72 c-4 86 -2 84 -158 117 -133
28 -461 37 -610 16z"/>
<path d="M4435 2940 c-10 -11 -29 -20 -43 -20 -40 0 -92 -46 -92 -81 0 -89 73
-145 179 -137 87 6 140 54 141 129 0 47 -30 79 -74 79 -22 0 -40 8 -56 25 -28
30 -32 31 -55 5z"/>
<path d="M4210 2692 c-21 -17 -23 -28 -28 -159 -2 -77 -2 -152 1 -165 4 -16
43 -51 111 -102 58 -43 110 -84 117 -92 8 -9 32 -14 75 -14 l63 0 72 63 c39
34 89 78 111 98 l41 35 -5 145 c-7 209 -23 232 -131 184 -51 -23 -79 -29 -173
-33 l-113 -5 -42 32 c-49 36 -68 38 -99 13z"/>
</g>
</svg>
