<?xml version="1.0" standalone="no"?>
<!DOCTYPE svg PUBLIC "-//W3C//DTD SVG 20010904//EN"
 "http://www.w3.org/TR/2001/REC-SVG-20010904/DTD/svg10.dtd">
<svg version="1.0" xmlns="http://www.w3.org/2000/svg"
 width="25" height="25" viewBox="0 0 564.000000 236.000000"
 preserveAspectRatio="xMidYMid meet">
<metadata>
Created by potrace 1.16, written by Peter Selinger 2001-2019
</metadata>
<g transform="translate(0.000000,236.000000) scale(0.100000,-0.100000)"
fill="#000000" stroke="none">
<path d="M4905 2350 c-11 -5 -39 -9 -63 -9 -35 -1 -44 -5 -54 -26 -6 -14 -9
-26 -7 -28 12 -9 202 -58 206 -53 3 3 15 -1 27 -9 11 -8 24 -15 29 -15 7 0 4
88 -4 138 -3 14 -102 16 -134 2z"/>
<path d="M2548 2309 c-1202 -72 -2089 -452 -2250 -962 -16 -51 -19 -85 -16
-187 3 -120 4 -128 40 -202 50 -106 89 -160 174 -245 502 -496 1779 -763 3004
-627 1154 128 1937 573 1934 1099 -1 170 -68 310 -223 465 -213 212 -558 384
-1012 504 -478 127 -1121 187 -1651 155z m887 -133 c977 -107 1681 -421 1855
-826 34 -80 39 -206 12 -297 -120 -395 -814 -731 -1747 -847 -326 -41 -835
-53 -1140 -27 -584 49 -1071 166 -1440 346 -348 170 -547 371 -586 593 -36
203 100 424 371 604 91 60 347 188 381 190 13 1 26 5 29 8 8 10 98 45 185 73
277 89 636 158 975 187 69 5 143 12 165 14 106 10 809 -3 940 -18z"/>
<path d="M2328 2133 c-10 -2 -18 -8 -18 -13 0 -4 8 -6 18 -3 10 2 24 -3 31
-11 8 -9 9 -16 3 -16 -24 0 -45 -55 -47 -126 -4 -113 -13 -151 -37 -157 -15
-4 -19 -11 -15 -26 4 -16 0 -21 -14 -21 -13 0 -19 -7 -19 -21 0 -11 -5 -29
-10 -40 -7 -13 -7 -19 0 -19 5 0 10 6 10 13 0 9 2 9 8 -1 6 -9 28 -12 70 -9
62 4 96 -5 77 -20 -6 -4 -67 -7 -137 -5 -109 3 -127 5 -130 20 -3 10 -9 1 -17
-23 -21 -65 -35 -94 -42 -89 -9 5 -59 -43 -59 -56 0 -22 -48 -29 -137 -21 -7
0 -13 9 -14 19 0 16 -1 16 -8 -1 -4 -10 -11 -17 -16 -15 -6 2 -11 -9 -13 -24
-4 -34 -19 -37 -24 -5 -2 14 -11 23 -27 25 -18 3 -22 0 -18 -11 9 -23 -4 -29
-25 -10 -11 9 -18 29 -17 47 1 19 3 24 6 13 5 -18 6 -18 19 1 8 11 11 26 8 34
-7 16 -104 81 -111 75 -2 -3 19 -21 49 -41 61 -42 57 -43 -88 -21 -54 8 -103
20 -109 27 -5 8 -23 19 -40 26 l-30 12 28 -23 c16 -13 34 -36 42 -50 13 -26
13 -27 -11 -27 -15 0 -24 6 -24 15 0 11 -12 15 -50 15 -47 0 -50 -2 -50 -25 0
-23 -4 -25 -47 -26 -27 -1 -52 0 -58 1 -34 8 -40 3 -51 -50 -6 -30 -12 -47
-13 -37 -1 20 -12 22 -29 5 -10 -10 -15 -10 -21 0 -6 10 -10 9 -14 -7 -3 -12
-12 -21 -21 -21 -10 0 -16 -9 -16 -25 0 -22 -4 -25 -37 -25 -21 0 -42 -4 -48
-8 -5 -4 -11 -43 -12 -86 -1 -43 -5 -81 -7 -83 -7 -7 -45 -5 -85 3 -23 5 -36
3 -42 -7 -8 -12 -10 -12 -18 -1 -16 25 -46 10 -46 -23 l0 -30 75 -5 75 -5 -78
-50 c-61 -38 -77 -54 -75 -70 3 -17 13 -21 63 -28 33 -4 76 -9 95 -12 19 -3
103 -8 186 -10 82 -2 161 -6 175 -9 65 -14 1350 -23 1604 -11 39 1 186 4 328
5 141 1 257 6 257 11 0 4 181 8 403 9 526 1 903 9 947 21 19 5 50 9 68 9 29 0
32 3 32 30 0 27 -3 30 -30 30 -28 0 -33 6 -64 73 -22 48 -30 77 -25 88 12 23
-13 70 -53 100 -17 13 -41 35 -54 48 -24 26 -21 26 -189 1 -38 -6 -83 -8 -99
-4 -19 4 -32 2 -38 -7 -7 -11 -11 -11 -15 -1 -2 6 -9 12 -14 12 -6 0 -7 -4 -4
-10 3 -5 1 -10 -4 -10 -6 0 -12 12 -12 28 -1 21 -3 22 -6 6 -3 -17 -14 -22
-51 -27 -26 -3 -54 -8 -62 -11 -11 -3 -24 15 -47 63 -18 38 -33 74 -33 80 0 6
-5 11 -12 11 -6 0 -8 3 -5 7 4 3 18 -4 31 -16 13 -12 36 -24 52 -27 16 -3 56
-11 88 -19 33 -7 65 -11 72 -8 8 3 16 -6 20 -21 7 -28 24 -36 24 -10 0 13 8
15 53 9 28 -3 64 -8 80 -11 42 -8 33 18 -13 39 -22 10 -88 52 -147 94 -153
107 -159 110 -200 88 -18 -10 -33 -26 -33 -36 0 -12 -11 -21 -32 -27 -18 -6
-41 -13 -52 -17 -16 -7 -17 -6 -6 15 10 19 8 26 -15 50 -33 34 -64 44 -100 30
-22 -8 -32 -6 -52 10 -16 13 -34 18 -47 15 -16 -5 -18 -4 -6 4 12 8 11 14 -10
38 -32 36 -52 53 -62 53 -5 0 -23 -16 -41 -35 -31 -33 -34 -34 -64 -23 -18 7
-34 19 -37 28 -3 12 -4 11 -5 -2 -1 -12 -9 -18 -26 -18 -28 0 -29 -3 -14 -32
6 -11 8 -22 5 -25 -7 -7 -56 92 -56 113 0 19 -14 10 -16 -9 0 -7 -2 -20 -2
-29 -3 -33 -22 -18 -22 17 0 37 -18 48 -27 16 -4 -16 -9 -18 -36 -10 -44 13
-47 12 -47 -12 0 -15 -4 -19 -16 -15 -9 3 -20 6 -26 6 -6 0 -6 6 2 15 12 14 7
20 -14 16 -5 -1 -12 3 -16 9 -5 8 -9 7 -13 -4 -4 -9 -2 -16 3 -16 6 0 10 -4
10 -10 0 -5 -7 -10 -15 -10 -14 0 -20 24 -16 58 1 6 -3 12 -9 12 -5 0 -10 -13
-10 -28 0 -25 -4 -29 -30 -30 -51 -1 -101 39 -72 57 6 3 13 26 17 51 6 44 6
45 -22 47 -47 4 -73 -6 -73 -27 0 -11 5 -20 10 -20 6 0 10 -18 10 -40 0 -22 5
-40 10 -40 6 0 10 6 10 13 0 8 3 7 10 -3 5 -9 5 -17 -1 -21 -15 -9 -104 -11
-95 -2 4 5 13 8 19 8 7 0 13 10 15 21 2 15 -3 23 -18 27 -17 4 -22 0 -27 -24
-5 -25 -10 -29 -39 -29 -21 0 -34 -5 -34 -12 0 -9 -3 -9 -9 1 -5 8 -16 11 -26
7 -27 -10 -55 21 -49 53 4 21 0 28 -23 38 -42 18 -153 28 -153 14 0 -6 7 -11
15 -11 8 0 15 -4 15 -10 0 -5 -9 -10 -21 -10 -15 0 -19 -5 -15 -15 8 -21 -11
-19 -41 5 -16 12 -34 18 -45 15 -14 -5 -18 -1 -19 22 -1 17 -3 21 -6 10 -2 -9
-9 -15 -14 -12 -12 8 -12 122 1 130 5 3 7 12 4 19 -3 8 -1 17 5 20 16 10 -9
45 -28 39 -14 -4 -14 -3 -1 6 13 9 12 13 -8 31 -17 16 -22 18 -22 5 0 -8 -7
-15 -16 -15 -11 0 -13 6 -9 19 7 23 -13 39 -21 17 -3 -9 -10 -16 -15 -16 -6 0
-5 8 1 19 6 13 23 21 48 24 20 2 -3 4 -53 4 -49 0 -98 -1 -107 -4z m1007 -452
c124 -15 137 -20 163 -65 27 -46 10 -46 -32 0 -27 30 -38 36 -59 30 -18 -4
-27 -1 -32 12 -6 15 -8 14 -16 -5 -5 -15 -14 -21 -23 -17 -17 6 -76 -16 -76
-28 0 -5 -8 -8 -17 -8 -14 0 -15 2 -5 9 10 6 8 10 -9 14 -28 7 -39 -1 -19 -13
11 -7 11 -10 2 -10 -7 0 -15 7 -19 16 -4 12 -7 13 -14 3 -6 -11 -9 -10 -15 4
-3 10 -17 17 -31 17 -13 0 -32 4 -41 9 -25 13 -82 2 -82 -16 0 -15 -29 -11
-60 9 -12 8 -12 9 3 4 9 -3 17 -1 17 3 0 11 -26 21 -53 20 -12 0 -16 -3 -9 -6
35 -14 3 -23 -78 -22 -88 1 -99 6 -87 36 3 10 117 13 117 3 0 -5 -8 -11 -17
-13 -10 -3 -3 -5 16 -6 28 -1 32 1 21 14 -10 12 3 15 97 17 164 4 248 2 358
-11z m-1140 -96 c39 2 66 -3 76 -12 13 -11 23 -11 45 -3 16 6 31 12 34 13 3 1
4 6 2 11 -2 5 5 5 15 1 10 -5 50 -7 90 -6 40 1 74 -3 78 -9 3 -5 11 -10 16
-10 6 0 7 5 4 10 -4 6 7 10 24 10 24 0 31 -4 31 -20 0 -22 -16 -27 -22 -8 -3
7 -9 8 -19 3 -8 -5 -114 -11 -236 -13 l-223 -3 0 27 c0 20 3 24 13 17 6 -5 39
-9 72 -8z m1171 -59 c8 -8 14 -19 14 -25 0 -7 33 -12 88 -13 48 -1 106 -2 130
-3 23 -1 42 2 42 7 0 4 25 8 55 8 42 0 55 -3 55 -15 0 -8 8 -15 18 -16 9 0 47
-3 84 -8 45 -4 69 -3 71 3 7 20 16 0 10 -22 -3 -12 -10 -19 -16 -15 -7 4 -8
-16 -5 -59 6 -78 -2 -99 -31 -81 -14 9 -22 9 -26 2 -4 -6 -12 -4 -19 7 -9 12
-15 14 -20 6 -4 -7 -5 -16 -2 -21 11 -17 126 -33 126 -17 0 4 10 5 23 1 12 -4
32 -8 43 -9 22 -2 84 -48 84 -62 0 -3 -6 -1 -14 5 -28 24 -29 -10 0 -40 26
-27 43 -37 149 -85 38 -18 38 -19 15 -25 -39 -11 -118 -10 -125 1 -3 6 0 10 7
11 7 0 1 5 -14 11 -16 5 -28 16 -28 23 0 7 -7 15 -15 19 -8 3 -20 17 -27 31
-9 20 -21 26 -59 31 -27 4 -54 13 -60 20 -6 8 -18 14 -25 14 -7 0 -11 6 -8 13
3 8 -9 18 -31 26 -38 13 -55 9 -55 -16 0 -13 -5 -12 -25 7 -14 13 -27 21 -30
18 -3 -3 9 -19 28 -35 18 -16 37 -38 41 -49 4 -12 -8 -4 -33 20 -23 22 -43 48
-47 58 -7 23 5 43 18 30 13 -13 48 -3 48 14 0 8 -6 17 -13 20 -8 3 -12 16 -9
33 4 28 3 29 -60 35 -134 14 -208 17 -361 18 -86 0 -160 4 -163 9 -3 5 -40 9
-82 9 -100 0 -291 19 -319 33 -47 21 -10 30 108 24 114 -5 118 -4 121 16 2 15
10 21 28 21 24 -1 216 -13 270 -17 20 -2 25 2 23 21 -3 26 3 28 23 8z m-921
-35 c202 -3 225 -6 225 -31 0 -15 -9 -17 -57 -16 -58 1 -58 1 -58 -29 0 -26 4
-30 30 -31 17 -1 32 -3 35 -4 3 -2 14 -3 25 -4 11 -1 21 -9 23 -19 3 -16 -2
-18 -30 -16 -18 1 -59 1 -90 0 -50 -1 -58 -4 -58 -20 0 -27 7 -30 68 -22 49 7
53 6 69 -18 9 -14 22 -30 30 -34 20 -12 15 -27 -9 -26 -13 0 -17 3 -10 6 22 9
2 23 -24 17 -14 -4 -35 -2 -47 3 -55 26 -77 32 -77 23 0 -6 -5 -10 -11 -10 -5
0 -7 5 -4 10 3 6 -3 10 -14 10 -12 0 -21 5 -21 10 0 6 9 10 20 10 14 0 20 7
20 23 0 23 -1 24 -120 25 l-120 2 -17 -38 c-16 -38 -16 -38 -80 -40 l-64 -3 3
33 c3 32 5 33 51 36 28 2 47 -1 47 -7 0 -6 5 -11 12 -11 6 0 5 7 -5 18 -12 13
-30 18 -61 17 -35 0 -43 2 -34 12 16 20 72 16 93 -7 10 -11 23 -20 29 -19 6 0
1 7 -11 16 -25 17 -31 35 -10 32 28 -3 37 2 37 26 0 22 -5 25 -60 31 -52 6
-60 9 -60 28 0 20 5 21 78 20 42 -1 158 -2 257 -3z m545 -127 c35 -7 42 -39
10 -47 -12 -3 -20 -14 -20 -26 0 -12 -4 -21 -10 -21 -5 0 -10 -11 -10 -25 0
-16 6 -25 16 -25 11 0 15 -8 13 -33 -2 -18 0 -37 3 -43 11 -18 -3 -53 -18 -47
-8 3 -14 11 -14 18 0 7 -11 13 -24 13 -17 0 -23 -5 -19 -14 3 -8 0 -14 -7 -14
-8 0 -10 8 -7 22 4 12 1 28 -5 35 -6 8 -8 16 -4 20 3 3 6 1 6 -5 0 -7 5 -12
10 -12 5 0 9 3 8 8 -1 4 4 20 10 35 16 39 16 52 -2 38 -11 -9 -15 1 -24 56 -6
36 -9 70 -6 75 3 5 19 7 35 4 16 -3 43 -9 59 -12z m1584 -74 c10 0 15 4 12 9
-3 5 1 11 9 15 9 3 15 0 15 -9 0 -8 9 -19 21 -26 14 -7 19 -17 16 -30 -4 -16
0 -19 25 -19 24 0 29 3 24 16 -5 14 -4 15 8 5 10 -8 16 -9 21 -1 16 26 49 6
59 -35 7 -30 7 -30 -9 -8 -18 25 -60 28 -83 6 -11 -11 -9 -15 12 -24 27 -13
64 -59 47 -59 -5 0 -13 5 -16 10 -5 8 -11 7 -21 -1 -11 -9 -17 -9 -29 1 -13
10 -15 9 -15 -9 0 -13 6 -21 17 -21 13 0 10 -7 -12 -30 -26 -27 -31 -29 -41
-15 -6 8 -19 15 -28 15 -21 0 -20 7 4 57 11 23 28 44 37 46 15 4 14 5 -3 6
-25 1 -55 31 -33 32 8 0 5 4 -6 8 -27 11 -45 3 -38 -16 5 -13 1 -15 -22 -11
-18 4 -39 0 -54 -10 -24 -15 -25 -15 -13 0 16 20 -1 28 -41 21 -15 -3 -27 -1
-27 5 0 5 -10 10 -22 10 -66 0 -118 5 -118 12 0 31 12 35 98 33 107 -3 136 2
128 24 -5 12 -1 14 14 10 11 -3 20 0 20 6 0 7 7 4 14 -5 7 -10 21 -18 30 -18z"/>
<path d="M2273 1442 c-28 -3 -33 -7 -33 -28 0 -24 2 -25 73 -25 39 0 106 -1
147 -2 l75 -2 0 30 0 30 -115 0 c-63 0 -130 -1 -147 -3z"/>
<path d="M4050 830 c8 -5 42 -10 75 -11 55 -1 57 -2 25 -10 -19 -5 -54 -6 -76
-3 -26 4 -44 2 -48 -5 -5 -7 1 -11 15 -11 12 0 20 -3 17 -6 -7 -7 -41 -12
-128 -21 -38 -3 -68 -11 -73 -19 -4 -8 -22 -14 -40 -14 -30 1 -31 1 -13 15 15
11 16 15 5 15 -8 0 -24 -7 -35 -15 -10 -8 -41 -15 -69 -16 -62 -1 -104 -12
-88 -22 6 -4 57 -6 112 -3 80 3 107 8 134 25 31 19 49 21 208 21 164 0 202 5
200 26 0 5 20 8 44 6 35 -2 45 1 45 13 0 9 -4 14 -9 11 -5 -4 -20 -2 -33 3
-21 9 -19 10 15 10 20 1 37 6 37 11 0 6 -62 10 -167 10 -112 0 -163 -4 -153
-10z"/>
<path d="M3230 810 c14 -4 49 -8 79 -9 30 -1 52 -4 48 -7 -5 -6 -177 -17 -229
-15 -16 1 -28 -4 -28 -10 0 -8 16 -10 50 -7 28 3 50 1 50 -3 0 -11 -69 -15
-107 -6 -42 10 -253 14 -253 5 0 -5 17 -9 38 -9 49 -2 25 -6 -72 -14 -59 -5
-75 -10 -63 -17 10 -5 26 -7 36 -3 11 3 22 1 26 -5 8 -13 -8 -12 -130 5 -58 8
-155 12 -230 10 -72 -2 -146 0 -165 5 -34 8 -34 8 15 11 28 1 59 4 70 5 11 1
34 3 50 3 25 1 27 3 13 11 -26 16 -361 8 -381 -8 -13 -11 -22 -10 -54 12 -39
27 -63 33 -63 16 0 -5 10 -10 21 -10 18 0 19 -2 9 -15 -11 -13 -8 -15 13 -15
14 0 29 -5 32 -10 3 -6 17 -7 30 -4 13 3 32 1 42 -5 15 -9 13 -10 -16 -11 -78
0 -16 -9 109 -15 74 -4 139 -11 145 -16 5 -5 23 -9 40 -9 23 0 26 3 15 10 -12
8 -11 10 6 10 11 0 25 -5 31 -11 16 -16 674 -2 691 16 3 3 -5 5 -18 5 -13 0
-20 3 -17 6 4 4 84 9 179 12 171 4 210 11 205 35 -1 8 11 11 40 9 61 -5 77 9
28 24 l-40 12 37 1 c20 1 40 6 43 11 4 7 -55 10 -172 9 -105 -1 -168 -4 -153
-9z"/>
<path d="M1174 791 c-73 -4 -117 -11 -128 -20 -14 -12 -19 -11 -36 4 -19 17
-50 15 -50 -3 0 -10 47 -22 86 -22 12 0 25 -4 28 -9 4 -5 -3 -7 -14 -4 -11 3
-20 0 -20 -6 0 -7 21 -11 53 -12 110 -2 196 -7 227 -14 18 -4 36 -2 45 5 10 9
21 8 44 -5 17 -8 31 -11 31 -6 0 5 -6 12 -12 14 -7 3 33 6 90 6 59 1 102 5
102 11 0 18 -52 23 -179 18 -69 -3 -139 -2 -156 2 -28 7 -27 8 15 11 25 1 54
4 65 5 11 1 36 3 55 3 26 1 31 4 20 11 -8 5 -38 9 -66 9 -27 -1 -59 0 -70 3
-10 2 -69 2 -130 -1z"/>
<path d="M3640 630 c14 -4 49 -8 79 -9 30 -1 51 -4 48 -8 -6 -6 -58 -9 -205
-12 -42 -1 -61 -5 -57 -12 4 -6 28 -9 54 -8 37 2 52 -2 69 -19 19 -19 33 -22
110 -22 87 0 117 8 117 32 0 9 15 13 45 13 50 0 67 17 23 23 -41 5 -41 12 0
12 20 0 39 5 42 10 4 7 -55 10 -172 9 -105 -1 -168 -4 -153 -9z"/>
<path d="M2640 570 c14 -4 49 -8 79 -9 128 -2 -15 -21 -181 -24 -21 0 -35 -4
-31 -10 3 -5 28 -7 54 -5 29 3 49 1 49 -5 0 -6 -40 -7 -107 -3 -163 9 -242 10
-250 3 -3 -4 14 -8 38 -8 33 -1 26 -4 -31 -10 -41 -5 -88 -6 -104 -3 -19 4
-26 3 -22 -5 4 -6 24 -11 44 -11 20 -1 48 -7 62 -15 38 -22 178 -20 238 4 42
17 66 18 193 14 146 -6 192 2 186 30 -1 8 14 12 47 12 27 0 51 5 53 11 2 6 -9
10 -27 9 -16 -1 -30 2 -30 7 0 4 12 8 28 9 69 3 103 6 108 11 3 3 -91 6 -208
6 -124 0 -203 -3 -188 -8z"/>
<path d="M431 104 c-6 -16 -23 -45 -37 -64 l-25 -35 62 -3 c34 -2 67 -1 74 2
20 7 68 97 57 108 -5 5 -34 12 -64 15 -54 5 -56 5 -67 -23z"/>
</g>
</svg>
