<?xml version="1.0" standalone="no"?>
<!DOCTYPE svg PUBLIC "-//W3C//DTD SVG 20010904//EN"
 "http://www.w3.org/TR/2001/REC-SVG-20010904/DTD/svg10.dtd">
<svg version="1.0" xmlns="http://www.w3.org/2000/svg"
 width="25" height="25" viewBox="0 0 880.000000 880.000000"
 preserveAspectRatio="xMidYMid meet">
<metadata>
Created by potrace 1.16, written by Peter Selinger 2001-2019
</metadata>
<g transform="translate(0.000000,880.000000) scale(0.100000,-0.100000)"
fill="#000000" stroke="none">
<path d="M4360 7330 c0 -11 -4 -20 -10 -20 -5 0 -10 -6 -10 -12 0 -7 -18 -49
-40 -92 -22 -43 -40 -85 -40 -92 0 -8 -4 -14 -10 -14 -5 0 -10 -6 -10 -12 0
-7 -14 -40 -30 -73 -16 -33 -30 -66 -30 -72 0 -7 -4 -13 -10 -13 -5 0 -10 -5
-10 -10 0 -6 -14 -41 -31 -78 -62 -134 -120 -258 -147 -314 -15 -32 -33 -58
-39 -58 -7 0 -13 4 -13 9 0 5 -11 12 -25 15 -14 4 -25 11 -25 16 0 6 -7 10
-15 10 -8 0 -15 4 -15 9 0 5 -10 13 -22 17 -13 4 -25 10 -28 14 -8 12 -220
140 -231 140 -6 0 -8 -13 -4 -32 6 -35 21 -135 35 -228 5 -30 14 -93 20 -140
6 -47 15 -99 21 -116 5 -17 9 -44 9 -60 0 -16 4 -45 10 -64 5 -19 14 -71 20
-115 20 -143 29 -199 45 -290 8 -49 20 -124 26 -165 5 -41 14 -93 19 -115 5
-22 10 -57 10 -78 0 -21 4 -46 9 -55 4 -9 11 -40 14 -69 7 -60 -4 -63 -40 -10
-13 17 -35 46 -50 62 -16 17 -55 62 -88 100 -33 39 -63 72 -67 73 -5 2 -8 8
-8 14 0 5 -12 22 -27 37 -16 15 -44 47 -63 71 -19 24 -47 56 -61 71 -15 15
-33 36 -40 47 -12 16 -106 125 -144 166 -6 6 -26 31 -45 56 -19 25 -49 59 -67
77 -18 17 -33 36 -33 42 0 24 -26 9 -38 -21 -14 -35 -24 -58 -66 -151 -14 -32
-26 -60 -26 -63 0 -5 -37 -89 -62 -141 -8 -16 -15 -20 -27 -14 -9 5 -34 12
-56 16 -22 4 -44 10 -50 15 -5 4 -23 10 -40 13 -78 15 -140 31 -145 37 -3 4
-18 9 -35 12 -47 8 -128 30 -147 39 -10 5 -27 9 -38 9 -11 0 -36 7 -55 14 -21
9 -35 11 -35 5 0 -11 47 -131 81 -206 10 -24 19 -46 19 -49 0 -3 7 -22 16 -42
15 -34 29 -67 56 -132 5 -14 16 -38 24 -53 8 -16 14 -37 14 -48 0 -10 4 -19 8
-19 4 0 17 -26 27 -57 11 -32 30 -79 42 -105 13 -27 23 -52 23 -57 0 -5 7 -22
15 -37 27 -53 28 -53 -130 -74 -285 -39 -266 -34 -229 -63 31 -24 59 -47 108
-89 17 -15 35 -28 40 -28 5 0 19 -11 32 -25 13 -14 26 -25 29 -25 4 0 12 -6
20 -12 7 -7 27 -23 43 -36 17 -13 45 -36 64 -52 18 -16 37 -30 41 -30 4 0 18
-9 30 -21 12 -12 47 -40 77 -63 30 -22 60 -46 65 -52 6 -5 28 -23 50 -39 22
-16 42 -32 45 -35 3 -4 32 -26 65 -51 33 -24 62 -46 65 -49 3 -3 25 -21 50
-40 25 -19 47 -37 50 -40 3 -3 32 -25 65 -50 33 -25 62 -47 65 -50 3 -3 25
-21 50 -40 25 -19 50 -39 56 -45 6 -5 36 -28 67 -50 31 -22 56 -45 57 -51 0
-7 -10 -18 -22 -27 -13 -8 -38 -29 -55 -46 -18 -17 -35 -31 -38 -31 -5 0 -51
-38 -81 -67 -7 -7 -15 -13 -18 -13 -4 0 -21 -15 -39 -33 -17 -18 -41 -39 -53
-47 -49 -35 -147 -121 -142 -125 6 -4 569 32 688 45 52 5 134 10 182 10 48 0
109 4 135 9 26 6 96 12 155 14 l108 4 -6 -116 c-3 -64 -9 -136 -14 -161 -5
-25 -12 -87 -15 -137 l-7 -93 146 0 146 0 -6 103 c-3 56 -10 118 -15 137 -5
19 -9 67 -9 105 0 39 -4 86 -9 106 -5 21 -6 41 -2 46 4 6 56 7 136 2 72 -5
200 -13 285 -18 85 -5 178 -12 205 -16 79 -9 637 -43 643 -39 2 1 -8 13 -23
26 -15 13 -33 28 -39 33 -6 6 -31 26 -56 45 -25 19 -52 41 -60 50 -8 9 -35 31
-60 50 -57 44 -87 70 -114 95 -12 11 -38 33 -58 49 -21 16 -38 33 -38 40 1 6
26 29 57 51 31 22 61 45 67 50 6 6 31 26 56 45 25 19 47 37 50 40 3 3 32 25
65 49 33 25 62 47 65 51 3 3 25 21 50 40 25 19 47 37 50 40 3 3 32 25 65 49
33 25 62 47 65 51 3 3 23 19 45 35 22 16 45 34 50 39 6 6 35 30 65 52 30 23
65 51 77 63 12 12 26 21 30 21 4 0 23 14 41 30 19 16 47 39 64 52 16 13 36 29
43 36 8 6 16 12 20 12 3 0 16 11 29 25 13 14 26 25 30 25 4 0 12 5 19 10 32
28 65 54 90 73 64 50 70 56 56 61 -13 4 -48 9 -244 36 -158 21 -157 21 -130
74 8 15 15 32 15 37 0 5 12 34 26 66 47 105 54 124 54 138 0 8 5 15 10 15 6 0
10 9 10 19 0 11 6 32 14 48 8 15 22 46 31 68 22 54 33 81 45 108 5 12 18 45
29 73 20 52 56 137 71 164 4 9 11 30 14 47 l7 31 -38 -14 c-21 -7 -47 -13 -59
-14 -11 0 -24 -4 -30 -8 -5 -5 -45 -16 -89 -26 -44 -10 -89 -22 -100 -26 -24
-10 -99 -30 -140 -37 -16 -3 -34 -9 -40 -13 -5 -5 -28 -11 -50 -15 -22 -4 -47
-11 -56 -16 -16 -8 -39 18 -39 46 0 8 -3 15 -8 15 -4 0 -16 24 -26 52 -10 29
-30 78 -43 108 -14 30 -31 69 -38 85 -21 49 -39 90 -42 94 -3 5 -82 -77 -123
-129 -19 -25 -47 -58 -62 -75 -44 -49 -68 -78 -101 -119 -18 -21 -43 -50 -57
-65 -14 -14 -41 -46 -60 -71 -19 -25 -50 -59 -67 -76 -18 -17 -33 -36 -33 -42
0 -6 -3 -12 -7 -14 -5 -1 -35 -34 -68 -73 -33 -38 -72 -83 -88 -100 -15 -16
-37 -45 -50 -62 -36 -53 -47 -50 -40 10 3 29 10 60 14 69 5 9 9 33 9 52 0 19
5 57 10 83 6 26 15 77 20 113 12 82 37 248 50 320 9 56 33 205 50 315 5 33 16
103 25 155 9 52 20 122 24 155 12 79 29 192 36 233 4 19 2 32 -4 32 -13 0
-275 -162 -279 -172 -2 -5 -10 -8 -18 -8 -8 0 -14 -4 -14 -9 0 -5 -11 -12 -25
-15 -14 -4 -25 -11 -25 -16 0 -6 -6 -10 -12 -10 -7 0 -26 29 -42 63 -16 34
-39 85 -52 112 -13 28 -24 56 -24 63 0 6 -4 12 -10 12 -5 0 -10 4 -10 9 0 6
-18 48 -40 95 -22 47 -40 90 -40 95 0 6 -4 11 -10 11 -5 0 -10 5 -10 12 0 6
-20 52 -44 102 -68 141 -116 247 -116 257 0 5 -4 9 -10 9 -5 0 -10 9 -10 20 0
11 -7 20 -15 20 -8 0 -15 -9 -15 -20z"/>
<path d="M339 2248 c0 -2 -2 -173 -3 -381 l-2 -378 355 3 c348 3 357 3 402 26
32 16 52 35 65 60 11 20 22 39 25 42 20 17 31 291 15 400 -12 84 -49 152 -99
181 -23 13 -60 28 -82 33 -36 8 -674 21 -676 14z m692 -99 c63 -29 79 -63 91
-199 14 -149 1 -284 -32 -330 -12 -17 -27 -30 -35 -30 -7 0 -15 -5 -17 -10 -4
-12 -605 -22 -613 -10 -9 15 -14 319 -8 463 l6 138 286 -3 c238 -3 292 -6 322
-19z"/>
<path d="M1430 2236 c-19 -6 -51 -28 -72 -48 -30 -30 -38 -46 -43 -93 -4 -31
-5 -77 -1 -101 9 -72 28 -92 126 -132 14 -6 142 -16 285 -22 320 -13 338 -15
375 -50 27 -25 30 -34 30 -90 0 -58 -2 -65 -34 -95 l-34 -32 -197 -6 c-199 -7
-395 0 -395 13 0 4 -11 11 -25 14 -18 5 -29 19 -42 56 -16 46 -20 50 -50 50
-32 0 -33 -2 -33 -39 0 -22 5 -43 10 -46 6 -3 10 -13 10 -21 0 -24 50 -68 98
-87 36 -15 83 -17 337 -17 259 0 299 2 332 18 77 36 98 76 98 191 0 75 -3 90
-24 120 -28 39 -94 71 -171 83 -30 5 -163 12 -295 16 -192 7 -246 11 -271 24
-50 27 -57 41 -52 112 4 73 25 101 82 111 17 4 148 5 291 3 309 -4 323 -7 352
-89 16 -45 20 -49 50 -49 32 0 33 2 33 38 0 59 -50 142 -85 142 -8 0 -15 4
-15 9 0 19 -74 24 -350 26 -190 2 -297 -1 -320 -9z"/>
<path d="M2520 2240 c-8 -5 -24 -10 -36 -10 -11 0 -34 -7 -50 -15 -63 -31 -98
-93 -109 -190 -3 -33 -9 -82 -12 -108 -8 -64 14 -251 35 -302 21 -51 61 -86
126 -107 77 -25 494 -26 579 0 64 18 106 50 125 96 18 40 42 180 42 243 0 73
-29 277 -41 281 -5 2 -9 9 -9 16 0 28 -62 69 -141 95 -44 14 -487 15 -509 1z
m500 -80 c64 -16 93 -53 108 -140 15 -89 16 -245 1 -307 -29 -122 -63 -143
-227 -143 l-102 0 -2 168 -3 167 -30 0 -30 0 -3 -167 -2 -168 -104 0 c-201 0
-230 37 -227 290 2 183 8 223 41 260 42 47 128 61 355 55 99 -2 200 -9 225
-15z"/>
<path d="M3323 2235 c-9 -26 4 -517 16 -565 21 -84 53 -126 121 -158 30 -14
75 -17 305 -17 289 0 305 2 373 53 19 13 43 45 54 71 19 43 21 67 22 336 l1
290 -35 0 -35 0 -5 -285 c-7 -407 8 -390 -363 -390 -317 0 -331 5 -363 127
-10 39 -14 121 -14 303 l0 250 -35 0 c-23 0 -38 -6 -42 -15z"/>
<path d="M4614 2193 c-16 -32 -31 -60 -34 -63 -11 -11 -40 -72 -40 -85 0 -7
-3 -15 -7 -17 -5 -1 -27 -41 -51 -88 -132 -258 -177 -346 -182 -350 -8 -8 -40
-80 -40 -90 0 -6 17 -10 38 -10 37 0 38 1 84 88 l45 87 275 3 275 2 14 -32 c7
-18 15 -35 18 -38 3 -3 17 -27 31 -55 24 -47 29 -50 68 -53 23 -2 42 0 42 5 0
9 -52 115 -60 123 -3 3 -32 59 -65 125 -33 66 -62 122 -65 125 -11 11 -40 72
-40 85 0 7 -3 15 -7 17 -5 2 -39 65 -77 141 l-69 137 -62 0 -63 0 -28 -57z
m131 -76 c16 -34 32 -64 35 -67 3 -3 14 -25 25 -50 11 -25 22 -47 25 -50 11
-10 40 -72 40 -85 0 -7 3 -15 8 -17 10 -4 42 -67 42 -84 0 -12 -37 -14 -220
-14 -121 0 -220 3 -220 6 0 8 63 137 70 144 3 3 32 59 65 125 33 66 63 122 68
123 4 2 7 10 7 18 0 33 27 9 55 -49z"/>
<path d="M5237 2203 c-5 -42 -4 -489 1 -655 l2 -58 40 0 40 0 0 175 0 175 288
0 c166 0 303 -4 324 -10 67 -19 78 -48 78 -204 l0 -136 40 0 40 0 0 151 c0
166 -8 194 -68 238 -27 19 -27 19 -7 41 25 28 45 86 45 133 0 57 -42 139 -82
158 -75 36 -102 39 -420 39 l-316 0 -5 -47z m660 -49 c46 -12 83 -60 83 -107
0 -32 -28 -87 -49 -95 -9 -3 -19 -10 -23 -16 -5 -7 -106 -12 -298 -15 l-290
-3 0 120 0 121 43 4 c65 6 504 -2 534 -9z"/>
<path d="M6217 2243 c-4 -3 -7 -174 -7 -380 l0 -373 345 0 345 0 0 29 c0 22
-6 32 -22 38 -13 4 -124 8 -248 8 -124 1 -251 2 -282 3 l-58 2 0 135 0 135
290 0 290 0 0 40 0 40 -290 0 -290 0 0 125 0 125 289 0 c159 0 296 3 305 6 9
4 16 18 16 34 0 16 -7 30 -16 34 -21 8 -659 8 -667 -1z"/>
<path d="M7037 2244 c-4 -4 -7 -175 -7 -381 l0 -373 340 0 c373 0 406 4 461
60 56 56 64 95 64 316 0 132 -4 206 -11 215 -6 8 -14 26 -18 42 -3 15 -11 27
-16 27 -6 0 -10 7 -10 15 0 8 -7 15 -15 15 -8 0 -15 3 -15 8 0 11 -59 39 -100
48 -47 9 -664 17 -673 8z m697 -100 c22 -11 44 -29 50 -40 6 -10 16 -22 21
-26 14 -10 13 -426 -1 -436 -6 -4 -14 -15 -17 -25 -4 -11 -16 -21 -27 -24 -11
-3 -20 -9 -20 -13 0 -9 -480 -21 -563 -13 l-67 6 0 292 c0 160 3 295 7 299 5
4 136 6 293 4 265 -3 288 -4 324 -24z"/>
<path d="M8042 2215 c-52 -29 -70 -85 -27 -85 18 0 25 5 25 20 0 11 8 23 18
26 9 3 25 10 34 15 26 13 192 11 225 -3 44 -20 53 -33 53 -81 0 -65 -23 -77
-147 -77 -131 0 -168 -8 -203 -40 -26 -25 -30 -35 -30 -84 l0 -56 210 0 c180
0 210 2 210 15 0 13 -27 15 -182 15 -101 0 -189 4 -197 9 -9 6 -11 17 -7 32
13 51 19 53 148 61 196 12 213 18 234 87 14 49 -1 110 -35 138 -24 22 -35 23
-166 22 -92 -1 -148 -5 -163 -14z"/>
</g>
</svg>
