<?xml version="1.0" standalone="no"?>
<!DOCTYPE svg PUBLIC "-//W3C//DTD SVG 20010904//EN"
 "http://www.w3.org/TR/2001/REC-SVG-20010904/DTD/svg10.dtd">
<svg version="1.0" xmlns="http://www.w3.org/2000/svg"
 width="25" height="25" viewBox="0 0 550.000000 545.000000"
 preserveAspectRatio="xMidYMid meet">
<metadata>
Created by potrace 1.16, written by Peter Selinger 2001-2019
</metadata>
<g transform="translate(0.000000,545.000000) scale(0.100000,-0.100000)"
fill="#000000" stroke="none">
<path d="M1100 4780 l0 -540 1770 0 1770 0 0 540 0 540 -1770 0 -1770 0 0
-540z"/>
<path d="M3418 3887 c-3 -100 -3 -185 -1 -189 2 -5 102 -8 221 -8 119 0 241
-3 269 -6 l52 -7 -26 -31 c-79 -95 -282 -306 -648 -674 l-410 -414 -547 552
c-302 304 -548 557 -548 561 0 5 122 9 270 9 l270 0 0 184 0 184 -332 7 c-183
3 -454 5 -603 3 l-270 -3 -3 -618 -2 -617 187 2 c159 3 188 5 189 18 1 8 2
142 3 297 l1 282 539 -542 c297 -298 548 -553 559 -567 l19 -25 -556 -562
c-307 -310 -560 -563 -563 -563 -3 0 -5 125 -4 278 l1 277 -185 0 -185 0 -7
-599 c-4 -330 -6 -601 -5 -603 2 -1 276 -4 610 -5 l607 -3 0 187 0 188 -279 2
-280 3 152 155 c313 322 960 970 968 970 8 0 1122 -1125 1127 -1138 1 -4 -131
-6 -293 -4 l-295 3 0 -184 0 -185 273 -6 c149 -3 422 -9 605 -12 l332 -7 0
190 c0 104 -3 386 -7 627 l-6 436 -186 -2 -186 -3 3 -272 c2 -150 0 -273 -4
-273 -13 0 -1089 1092 -1089 1106 0 7 245 261 545 565 l545 552 5 -299 5 -299
181 -3 181 -4 6 618 c4 340 3 622 -1 626 -5 5 -202 11 -438 13 -236 3 -504 7
-595 10 l-167 4 -4 -182z"/>
</g>
</svg>
