<?xml version="1.0" standalone="no"?>
<!DOCTYPE svg PUBLIC "-//W3C//DTD SVG 20010904//EN"
 "http://www.w3.org/TR/2001/REC-SVG-20010904/DTD/svg10.dtd">
<svg version="1.0" xmlns="http://www.w3.org/2000/svg"
 width="25" height="25" viewBox="0 0 460.000000 260.000000"
 preserveAspectRatio="xMidYMid meet">
<metadata>
Created by potrace 1.16, written by Peter Selinger 2001-2019
</metadata>
<g transform="translate(0.000000,260.000000) scale(0.100000,-0.100000)"
fill="#000000" stroke="none">
<path d="M1180 1965 l0 -565 480 0 c450 0 480 1 481 18 1 15 0 153 -1 195 0
16 -24 17 -370 17 l-370 0 0 340 0 340 260 0 260 0 0 -115 0 -115 -115 0 -116
0 3 -112 3 -113 214 -3 c122 -1 218 2 225 7 8 7 10 104 8 340 l-3 331 -479 0
-480 0 0 -565z"/>
<path d="M2370 2195 l0 -334 33 -6 c17 -3 118 -5 222 -3 l190 3 3 113 3 112
-111 0 -110 0 0 115 0 115 258 -2 257 -3 3 -337 2 -338 -375 0 -375 0 0 -115
0 -115 485 0 485 0 0 565 0 565 -485 0 -485 0 0 -335z"/>
<path d="M1180 615 l0 -565 481 2 480 3 0 330 c-1 182 -1 333 -1 338 0 4 -100
6 -222 5 l-223 -3 -3 -112 -3 -113 116 0 116 0 -3 -113 -3 -112 -257 -3 -258
-2 0 340 0 340 370 0 c239 0 370 4 371 10 1 6 2 17 2 25 0 8 -1 56 -2 105 l-1
90 -480 0 -480 0 0 -565z"/>
<path d="M2370 1065 l0 -115 375 0 374 0 -2 -337 -2 -338 -257 -3 -258 -2 0
115 0 115 110 0 111 0 -3 112 -3 113 -220 0 -220 0 -3 -337 -2 -338 485 0 485
0 0 565 0 565 -485 0 -485 0 0 -115z"/>
</g>
</svg>
