<?xml version="1.0" standalone="no"?>
<!DOCTYPE svg PUBLIC "-//W3C//DTD SVG 20010904//EN"
 "http://www.w3.org/TR/2001/REC-SVG-20010904/DTD/svg10.dtd">
<svg version="1.0" xmlns="http://www.w3.org/2000/svg"
 width="500.000000pt" height="500.000000pt" viewBox="0 0 500.000000 500.000000"
 preserveAspectRatio="xMidYMid meet">
<metadata>
Created by potrace 1.16, written by Peter Selinger 2001-2019
</metadata>
<g transform="translate(0.000000,500.000000) scale(0.100000,-0.100000)"
fill="#000000" stroke="none">
<path d="M195 3732 c-51 -24 -92 -72 -101 -117 -3 -19 -5 -70 -3 -113 5 -105
29 -141 145 -218 101 -67 124 -98 124 -171 0 -49 -22 -94 -39 -78 -3 4 -8 46
-11 93 l-5 87 -107 3 -108 3 0 -88 c1 -140 39 -200 141 -222 69 -15 134 -14
203 4 119 31 146 72 146 224 0 149 -24 188 -176 286 -44 29 -84 60 -87 70 -11
27 -8 113 3 120 22 13 40 -17 40 -66 l0 -49 105 0 105 0 0 63 c0 80 -23 124
-81 157 -38 21 -59 25 -149 28 -86 2 -112 -1 -145 -16z"/>
<path d="M4555 3738 c-89 -33 -119 -85 -119 -208 0 -130 21 -162 167 -260 82
-54 107 -89 107 -149 0 -41 -17 -81 -34 -81 -18 0 -26 31 -26 113 l0 67 -105
0 -105 0 0 -90 c0 -104 13 -144 59 -182 65 -55 232 -62 337 -14 75 34 93 75
94 204 0 145 -24 185 -165 277 -44 28 -86 59 -94 68 -21 26 -25 98 -7 122 16
20 16 20 31 1 8 -11 15 -39 15 -63 l0 -43 105 0 105 0 0 55 c0 82 -23 130 -79
163 -41 24 -57 27 -151 29 -59 1 -118 -2 -135 -9z"/>
<path d="M737 3733 c-4 -3 -7 -188 -7 -410 l0 -403 101 0 101 0 -5 193 c-3
105 -8 206 -12 222 -4 20 -3 25 3 15 5 -8 33 -108 63 -222 l53 -208 98 0 98 0
-2 408 -3 407 -95 0 -95 0 -5 -190 c-4 -153 -7 -178 -13 -130 -10 76 -76 308
-91 317 -14 10 -180 10 -189 1z"/>
<path d="M1400 3330 l0 -410 190 0 190 0 0 79 c0 91 0 91 -91 91 l-59 0 0 85
0 84 63 3 62 3 3 78 3 77 -66 0 -65 0 0 75 0 75 70 0 71 0 -3 83 -3 82 -182 3
-183 2 0 -410z"/>
<path d="M2016 3731 c-3 -4 -26 -172 -51 -372 -25 -200 -48 -381 -51 -401 l-6
-38 115 0 114 0 7 38 c3 20 6 52 6 70 0 29 3 32 30 32 29 0 30 -1 30 -47 0
-96 -3 -93 127 -93 l115 0 -6 28 c-3 15 -29 196 -57 402 -30 222 -55 378 -62
382 -17 11 -305 10 -311 -1z"/>
<path d="M2590 3330 l0 -410 111 0 112 0 -6 143 c-4 78 -9 156 -12 172 -14 79
17 -23 50 -162 l37 -153 123 0 123 0 -13 43 c-7 23 -38 124 -70 225 l-56 183
59 179 c49 147 57 180 45 184 -8 3 -57 6 -108 6 l-94 0 -25 -82 c-13 -46 -34
-116 -46 -156 -12 -40 -24 -71 -26 -69 -2 2 1 29 6 60 6 30 9 98 8 149 l-3 93
-107 3 -108 3 0 -411z"/>
<path d="M3250 3330 l0 -410 195 0 195 0 0 79 c0 91 0 91 -96 91 l-64 0 0 85
0 85 54 0 c85 0 86 1 86 86 l0 74 -70 0 -70 0 0 75 0 75 75 0 75 0 0 79 c0 63
-3 80 -16 85 -9 3 -94 6 -190 6 l-174 0 0 -410z"/>
<path d="M3788 3734 c-5 -4 -8 -189 -8 -411 l0 -403 115 0 115 0 0 191 c0 175
1 190 17 187 35 -6 43 -47 43 -215 l0 -163 105 0 105 0 0 173 c0 198 -8 225
-75 247 l-37 12 40 18 c58 26 67 48 67 167 0 117 -12 144 -81 178 -33 16 -66
20 -219 23 -99 2 -183 1 -187 -4z"/>
<path d="M3115 2741 c-51 -23 -101 -79 -114 -128 -14 -51 -14 -496 0 -548 28
-101 105 -150 239 -150 111 0 186 33 225 99 l25 43 0 277 c0 212 -3 284 -14
310 -17 41 -75 90 -125 105 -60 18 -189 14 -236 -8z m143 -113 c9 -9 12 -86
12 -284 0 -243 -2 -274 -17 -290 -16 -15 -17 -15 -24 2 -9 23 -12 546 -3 568
7 19 16 20 32 4z"/>
<path d="M960 2340 l0 -410 115 0 115 0 0 170 0 170 30 0 30 0 0 -170 0 -170
115 0 115 0 0 404 c0 359 -2 405 -16 410 -9 3 -60 6 -115 6 l-99 0 0 -150 0
-150 -30 0 -30 0 0 144 c0 122 -2 145 -16 150 -9 3 -60 6 -115 6 l-99 0 0
-410z"/>
<path d="M1644 2736 c-3 -7 -4 -162 -2 -342 l3 -329 25 -45 c31 -56 75 -86
148 -101 106 -22 227 3 284 58 56 53 59 76 56 438 l-3 330 -110 0 -110 0 -5
-340 c-3 -187 -7 -341 -8 -342 -6 -8 -32 -1 -39 10 -4 6 -10 161 -13 342 l-5
330 -108 3 c-85 2 -108 0 -113 -12z"/>
<path d="M2328 2744 c-5 -4 -8 -189 -8 -411 l0 -405 198 4 c175 3 201 5 231
23 66 39 76 63 79 193 3 141 -9 176 -75 207 -43 21 -55 35 -28 35 35 0 74 30
85 66 17 51 9 194 -13 228 -35 53 -65 60 -272 64 -104 2 -193 0 -197 -4z"/>
<path d="M3863 2701 c-38 -36 -70 -55 -118 -71 l-65 -22 0 -49 0 -49 59 0 c42
0 62 -5 72 -17 11 -12 15 -76 17 -290 l3 -273 105 0 104 0 -2 408 -3 407 -60
2 c-59 3 -61 2 -112 -46z"/>
</g>
</svg>
