<?xml version="1.0" standalone="no"?>
<!DOCTYPE svg PUBLIC "-//W3C//DTD SVG 20010904//EN"
 "http://www.w3.org/TR/2001/REC-SVG-20010904/DTD/svg10.dtd">
<svg version="1.0" xmlns="http://www.w3.org/2000/svg"
 width="25" height="25" viewBox="0 0 734.000000 180.000000"
 preserveAspectRatio="xMidYMid meet">
<metadata>
Created by potrace 1.16, written by Peter Selinger 2001-2019
</metadata>
<g transform="translate(0.000000,180.000000) scale(0.100000,-0.100000)"
fill="#000000" stroke="none">
<path d="M912 1785 c-72 -20 -106 -39 -152 -85 -72 -72 -89 -203 -40 -306 31
-63 92 -106 228 -159 164 -64 194 -83 209 -128 32 -96 -74 -168 -180 -123 -45
19 -68 48 -82 103 l-12 48 -107 3 -106 3 0 -40 c0 -52 25 -126 59 -173 115
-160 450 -176 588 -27 87 95 85 288 -5 382 -32 34 -80 59 -225 117 -127 50
-177 90 -177 139 0 51 46 91 104 91 24 0 56 -4 70 -10 30 -11 66 -65 66 -97 0
-22 3 -23 110 -23 109 0 110 0 110 24 0 13 -8 48 -17 77 -23 73 -89 139 -169
169 -76 29 -199 36 -272 15z"/>
<path d="M1691 1784 c-61 -16 -115 -46 -150 -84 -104 -112 -86 -308 37 -394
21 -14 95 -48 166 -76 151 -59 181 -78 196 -125 16 -50 -11 -104 -62 -124 -90
-33 -187 20 -205 112 l-9 42 -108 3 -109 3 6 -54 c18 -181 153 -287 365 -287
216 0 346 111 345 295 -1 155 -56 211 -306 311 -119 47 -156 76 -164 126 -5
32 -1 41 25 68 27 26 37 30 85 30 71 0 114 -32 123 -91 l7 -39 108 0 109 0 0
28 c0 44 -28 115 -61 155 -80 98 -250 141 -398 101z"/>
<path d="M6882 1790 c-109 -23 -199 -99 -226 -191 -20 -65 -20 -93 -2 -153 32
-105 83 -147 275 -221 153 -59 186 -85 186 -149 0 -36 -6 -51 -28 -73 -24 -25
-35 -28 -90 -28 -48 0 -69 5 -93 22 -32 23 -64 85 -64 123 0 19 -7 20 -111 20
l-112 0 7 -57 c13 -116 75 -200 186 -252 50 -24 66 -26 180 -26 116 0 129 2
181 28 116 56 178 164 166 287 -11 120 -78 194 -234 254 -200 78 -253 120
-238 186 10 44 39 63 105 68 57 4 61 3 95 -31 25 -25 35 -44 35 -66 l0 -31
115 0 115 0 -6 33 c-27 160 -140 253 -316 262 -46 2 -102 0 -126 -5z"/>
<path d="M0 1295 l0 -475 288 2 287 3 3 88 3 87 -181 0 -180 0 0 105 0 105
180 0 180 0 0 85 0 85 -180 0 -180 0 0 105 0 105 178 2 177 3 3 88 3 87 -291
0 -290 0 0 -475z"/>
<path d="M2260 1295 l0 -475 285 0 285 0 0 90 0 90 -175 0 -175 0 0 105 0 105
178 0 177 0 -3 85 -3 85 -175 0 -174 0 0 105 0 105 173 0 c96 0 176 2 178 4 2
2 3 43 1 90 l-3 86 -285 0 -284 0 0 -475z"/>
<path d="M2970 1300 l0 -470 105 0 105 0 0 295 c0 162 3 295 8 295 4 -1 21
-31 39 -68 54 -114 274 -517 286 -524 7 -4 58 -8 115 -8 l102 0 0 475 0 475
-105 0 -105 0 -2 -297 -3 -296 -159 296 -158 297 -114 0 -114 0 0 -470z"/>
<path d="M3842 1673 l3 -98 127 -3 128 -3 2 -372 3 -372 105 0 105 0 3 373 2
372 114 0 c63 0 121 3 130 6 13 5 16 24 16 100 l0 94 -370 0 -371 0 3 -97z"/>
<path d="M4690 1295 l0 -475 110 0 110 0 0 475 0 475 -110 0 -110 0 0 -475z"/>
<path d="M5320 1738 c-19 -55 -301 -892 -303 -903 -1 -6 42 -10 113 -10 l114
0 16 55 16 55 166 3 165 2 17 -60 17 -60 115 0 c62 0 114 2 114 5 0 5 -167
502 -284 845 l-33 95 -110 3 -111 3 -12 -33z m180 -418 c29 -102 55 -191 57
-197 4 -10 -22 -13 -111 -13 -64 0 -116 4 -116 8 0 9 96 357 105 381 3 8 7 12
9 10 2 -2 27 -87 56 -189z"/>
<path d="M5977 1298 l3 -473 279 -3 280 -2 3 96 c2 53 1 98 -1 100 -2 2 -83 4
-179 4 l-175 0 5 238 c3 130 3 299 0 375 l-5 137 -106 0 -106 0 2 -472z"/>
<path d="M1980 215 l0 -215 30 0 30 0 0 84 0 85 48 3 c45 3 47 4 50 36 l3 32
-50 0 -51 0 0 65 0 65 65 0 65 0 0 30 0 30 -95 0 -95 0 0 -215z"/>
<path d="M2290 215 l0 -215 95 0 95 0 0 30 0 30 -65 0 -65 0 0 54 0 55 48 3
c45 3 47 4 50 36 l3 32 -50 0 -51 0 0 65 0 65 65 0 65 0 0 30 0 30 -95 0 -95
0 0 -215z"/>
<path d="M2661 378 c-25 -124 -60 -315 -63 -343 -3 -27 0 -30 30 -33 28 -3 32
0 32 20 0 58 9 68 60 68 l48 0 6 -45 c7 -43 9 -45 42 -45 19 0 34 3 34 8 0 4
-19 100 -42 214 l-43 208 -47 0 -47 0 -10 -52z"/>
<path d="M2960 215 l0 -215 35 0 35 0 0 86 c0 82 1 85 22 82 17 -2 27 -19 48
-83 26 -78 28 -80 58 -80 18 0 32 3 33 8 0 4 -12 45 -27 91 l-27 84 26 32 c23
27 27 41 27 95 0 58 -2 65 -31 89 -28 23 -39 26 -115 26 l-84 0 0 -215z"/>
<path d="M3601 416 c-44 -24 -50 -51 -51 -207 0 -145 0 -147 26 -172 47 -47
119 -48 171 -3 l28 24 0 157 0 157 -33 29 c-25 23 -42 29 -75 29 -23 -1 -53
-7 -66 -14z m90 -56 c17 -10 19 -22 19 -140 0 -104 -3 -132 -16 -144 -20 -20
-34 -20 -63 0 -22 16 -23 20 -19 146 2 101 6 131 18 138 20 13 37 12 61 0z"/>
<path d="M3890 215 l0 -215 35 0 35 0 0 84 0 85 48 3 c45 3 47 4 50 36 l3 32
-50 0 -51 0 0 65 0 64 63 3 c59 3 62 4 65 31 l3 27 -100 0 -101 0 0 -215z"/>
<path d="M4487 410 c-15 -12 -31 -38 -37 -58 -13 -48 -13 -226 1 -275 19 -69
104 -97 179 -59 40 20 48 47 46 150 l-1 67 -57 3 -58 3 0 -31 c0 -25 4 -30 25
-30 24 0 25 -3 25 -59 0 -55 -2 -59 -26 -65 -17 -5 -35 -1 -50 9 -23 15 -24
19 -24 145 0 104 3 132 16 144 30 30 74 10 74 -34 0 -28 2 -30 41 -30 40 0 41
0 34 33 -10 49 -27 77 -57 93 -40 21 -101 18 -131 -6z"/>
<path d="M4837 414 c-15 -8 -32 -26 -37 -40 -14 -36 -13 -287 1 -318 28 -60
137 -72 188 -22 25 26 26 31 29 167 4 157 -4 191 -49 214 -36 19 -96 18 -132
-1z m107 -61 c4 -9 7 -73 7 -142 0 -108 -3 -127 -17 -138 -22 -16 -36 -16 -57
0 -14 10 -17 32 -18 140 -1 88 3 132 11 142 17 20 66 19 74 -2z"/>
<path d="M5130 214 l0 -216 86 3 c82 4 87 5 115 37 l29 32 0 148 c-1 194 -13
212 -154 212 l-76 0 0 -216z m153 137 c5 -5 10 -64 10 -131 1 -133 -3 -145
-61 -156 l-32 -6 0 157 0 158 37 -6 c20 -4 41 -11 46 -16z"/>
</g>
</svg>
