<?xml version="1.0" standalone="no"?>
<!DOCTYPE svg PUBLIC "-//W3C//DTD SVG 20010904//EN"
 "http://www.w3.org/TR/2001/REC-SVG-20010904/DTD/svg10.dtd">
<svg version="1.0" xmlns="http://www.w3.org/2000/svg"
 width="25" height="25" viewBox="0 0 500.000000 240.000000"
 preserveAspectRatio="xMidYMid meet">
<metadata>
Created by potrace 1.16, written by Peter Selinger 2001-2019
</metadata>
<g transform="translate(0.000000,240.000000) scale(0.100000,-0.100000)"
fill="#000000" stroke="none">
<path d="M450 1710 c-155 -20 -285 -101 -367 -228 -188 -291 -33 -679 305
-766 142 -37 321 -14 424 54 74 49 75 52 34 109 l-37 50 -47 -30 c-27 -16 -81
-36 -125 -46 -135 -29 -263 6 -356 98 -114 114 -137 294 -58 442 58 111 161
170 292 171 97 0 142 -12 219 -59 33 -20 62 -32 66 -28 45 55 71 96 66 108 -8
23 -107 82 -172 103 -70 23 -168 32 -244 22z"/>
<path d="M3220 1215 l0 -495 83 0 84 0 -5 305 c-3 168 -2 305 2 305 4 0 128
-109 274 -242 425 -386 439 -398 445 -398 4 0 7 225 7 500 l0 500 -84 0 -85 0
6 -315 c3 -173 3 -315 -1 -315 -8 0 -74 60 -516 469 -107 100 -198 181 -202
181 -5 0 -8 -223 -8 -495z"/>
<path d="M1140 1205 l0 -485 300 0 300 0 0 75 0 75 -220 0 -220 0 0 145 0 145
160 0 160 0 0 75 0 75 -160 0 -160 0 0 115 0 115 200 0 200 0 0 75 0 75 -280
0 -280 0 0 -485z"/>
<path d="M1990 1205 l0 -485 285 0 285 0 0 75 0 75 -205 0 -205 0 0 410 0 410
-80 0 -80 0 0 -485z"/>
<path d="M2770 1205 l0 -485 80 0 80 0 0 485 0 485 -80 0 -80 0 0 -485z"/>
<path d="M4400 1205 l0 -485 300 0 300 0 0 75 0 75 -220 0 -220 0 0 145 0 145
160 0 160 0 0 75 0 75 -160 0 -160 0 0 115 0 115 200 0 200 0 0 75 0 75 -280
0 -280 0 0 -485z"/>
</g>
</svg>
