<?xml version="1.0" standalone="no"?>
<!DOCTYPE svg PUBLIC "-//W3C//DTD SVG 20010904//EN"
 "http://www.w3.org/TR/2001/REC-SVG-20010904/DTD/svg10.dtd">
<svg version="1.0" xmlns="http://www.w3.org/2000/svg"
 width="25" height="25" viewBox="0 0 1280.000000 886.000000"
 preserveAspectRatio="xMidYMid meet">
<metadata>
Created by potrace 1.16, written by Peter Selinger 2001-2019
</metadata>
<g transform="translate(0.000000,886.000000) scale(0.100000,-0.100000)"
fill="#000000" stroke="none">
<path d="M3995 8844 c-323 -33 -668 -106 -962 -204 -1136 -377 -2079 -1206
-2597 -2282 -215 -446 -339 -864 -408 -1373 -20 -151 -22 -212 -23 -540 0
-386 4 -442 51 -735 247 -1546 1347 -2877 2834 -3428 528 -196 1054 -282 1638
-269 620 14 1153 133 1719 387 l155 69 118 -54 c401 -184 810 -304 1241 -364
432 -60 916 -53 1359 20 1059 174 2038 754 2725 1614 459 574 773 1272 895
1989 51 303 55 357 55 756 0 395 -6 483 -51 750 -308 1815 -1731 3264 -3544
3609 -288 54 -424 65 -815 66 -386 0 -442 -4 -735 -51 -382 -61 -879 -217
-1190 -374 l-60 -30 -68 34 c-367 185 -861 330 -1352 397 -206 28 -770 36
-985 13z m621 -894 c192 -12 353 -32 513 -64 149 -31 353 -86 349 -96 -2 -4
-57 -57 -123 -117 -232 -213 -469 -491 -654 -766 -265 -394 -475 -847 -594
-1284 l-26 -93 479 0 478 0 28 83 c91 275 267 616 457 882 208 291 517 600
809 809 l68 48 67 -47 c295 -206 608 -522 830 -835 156 -221 316 -525 412
-783 28 -75 51 -142 51 -147 0 -6 170 -10 481 -10 453 0 480 1 475 18 -3 9
-19 65 -35 124 -154 535 -432 1071 -784 1513 -159 200 -321 372 -525 559 -29
26 -52 49 -50 51 7 7 196 57 306 81 624 135 1279 97 1887 -109 559 -189 1086
-536 1475 -971 497 -556 798 -1224 886 -1966 21 -176 24 -581 6 -745 -89 -788
-396 -1468 -919 -2036 -579 -631 -1365 -1023 -2235 -1115 -193 -20 -620 -15
-803 10 -206 29 -574 111 -597 134 -4 4 43 52 105 107 121 109 332 336 452
485 392 489 680 1067 836 1676 53 210 119 603 119 714 l0 20 -1045 0 -1045 0
0 -455 0 -455 480 0 c264 0 480 -2 480 -4 0 -12 -89 -215 -135 -306 -103 -205
-225 -398 -381 -600 -162 -211 -502 -534 -740 -704 l-52 -36 -78 56 c-301 215
-595 510 -823 826 -131 181 -299 486 -380 688 l-30 75 480 3 479 2 0 455 0
455 -1045 0 c-832 0 -1045 -3 -1045 -13 0 -6 7 -71 15 -142 91 -780 384 -1515
853 -2140 157 -209 388 -463 571 -628 l85 -76 -30 -11 c-123 -47 -498 -120
-714 -140 -167 -15 -513 -12 -675 5 -692 73 -1307 328 -1860 769 -132 105
-419 393 -529 531 -752 942 -972 2206 -581 3345 444 1290 1601 2214 2950 2355
245 25 357 28 571 15z"/>
</g>
</svg>
