<?xml version="1.0" standalone="no"?>
<!DOCTYPE svg PUBLIC "-//W3C//DTD SVG 20010904//EN"
 "http://www.w3.org/TR/2001/REC-SVG-20010904/DTD/svg10.dtd">
<svg version="1.0" xmlns="http://www.w3.org/2000/svg"
 width="25" height="25" viewBox="0 0 360.000000 280.000000"
 preserveAspectRatio="xMidYMid meet">
<metadata>
Created by potrace 1.16, written by Peter Selinger 2001-2019
</metadata>
<g transform="translate(0.000000,280.000000) scale(0.100000,-0.100000)"
fill="#000000" stroke="none">
<path d="M1025 2763 c-112 -75 -207 -178 -307 -333 -106 -162 -148 -278 -168
-457 -20 -185 11 -310 150 -602 104 -219 134 -304 151 -426 32 -244 -31 -425
-198 -571 l-71 -63 -49 18 c-76 29 -133 33 -211 17 -139 -29 -256 -107 -301
-200 -53 -108 1 -153 149 -122 85 18 166 56 289 138 l86 56 50 -30 c106 -63
217 -109 298 -125 100 -19 319 -13 444 11 134 27 336 98 534 189 314 144 404
163 714 154 317 -10 533 -62 719 -175 52 -31 63 -34 95 -26 20 5 35 14 35 19
-2 17 -158 91 -261 124 -332 106 -774 120 -1045 35 -46 -15 -159 -60 -253
-101 -337 -149 -462 -178 -735 -170 -152 4 -187 8 -265 31 -86 26 -204 82
-235 112 -13 13 -10 19 27 52 23 20 58 57 78 80 l35 44 -6 -34 c-4 -18 -7 -35
-6 -38 1 -49 29 -65 89 -48 54 15 183 148 266 274 54 84 143 181 154 170 2 -2
-6 -24 -18 -50 -11 -26 -23 -71 -26 -101 -5 -49 -4 -54 20 -70 22 -14 32 -14
69 -5 23 7 55 21 69 31 33 23 39 24 39 4 0 -39 82 -6 163 65 59 53 67 58 67
36 0 -7 16 -45 35 -84 31 -60 42 -74 81 -92 35 -17 55 -21 87 -16 55 9 117 46
160 96 l35 41 10 -31 c14 -38 27 -38 83 0 52 34 97 92 138 179 15 33 42 72 60
86 36 31 38 28 12 -23 -26 -51 -43 -119 -36 -142 12 -37 72 -19 152 47 43 34
43 34 43 10 0 -53 74 -39 148 28 l50 45 12 -29 c29 -71 63 -74 137 -15 l42 34
-6 -34 c-7 -43 6 -51 52 -32 31 14 37 14 42 1 10 -28 30 -15 102 64 52 58 88
88 132 110 92 46 99 31 43 -82 -85 -167 -95 -258 -35 -304 29 -22 123 -16 176
12 53 29 184 126 185 138 0 17 -30 4 -88 -37 -69 -48 -126 -63 -178 -46 -62
21 -59 101 11 248 25 52 45 105 45 118 0 71 -126 44 -226 -48 -49 -45 -56 -34
-19 31 30 52 30 51 5 51 -30 0 -64 -38 -104 -119 -20 -39 -41 -71 -46 -71 -21
0 -8 46 40 144 51 103 71 166 53 166 -27 0 -68 -51 -110 -138 -50 -103 -119
-187 -146 -177 -49 19 -56 203 -13 369 14 54 34 112 44 130 17 29 24 32 97 43
44 6 121 12 171 12 86 1 92 2 118 30 l28 29 -42 7 c-49 8 -179 -2 -258 -20
-31 -8 -58 -12 -60 -10 -2 2 19 37 47 79 29 42 47 76 42 76 -6 0 -27 -8 -46
-17 -26 -12 -49 -38 -81 -90 -43 -68 -49 -74 -129 -112 -78 -38 -151 -101
-127 -109 6 -2 44 15 85 37 40 23 79 41 86 41 7 0 2 -18 -13 -47 -45 -90 -68
-182 -73 -301 l-6 -112 -34 -30 c-18 -17 -40 -30 -49 -30 -30 0 -25 32 16 116
44 87 44 108 3 98 -15 -4 -37 -32 -62 -78 -49 -87 -126 -186 -146 -186 -36 0
-9 93 89 304 26 55 45 103 44 108 -8 24 -76 -45 -125 -127 -30 -49 -66 -101
-80 -115 l-25 -25 5 25 c2 14 12 62 21 107 20 92 18 121 -6 136 -21 14 -88
-30 -125 -83 -26 -35 -28 -36 -79 -32 -29 2 -91 -1 -138 -8 -94 -13 -169 -50
-238 -118 -50 -48 -50 -71 -1 -37 30 20 50 25 96 25 60 0 97 -13 155 -57 l34
-25 -7 -87 c-6 -82 -8 -87 -41 -117 -19 -17 -54 -37 -79 -44 -38 -11 -48 -10
-82 6 -31 16 -45 34 -78 98 l-40 79 0 121 c0 153 4 166 57 191 24 10 85 59
136 109 77 74 100 104 135 174 32 65 41 96 42 135 0 64 -18 71 -75 29 -128
-94 -248 -235 -311 -366 -60 -124 -89 -234 -89 -337 0 -75 -1 -79 -41 -129
-39 -49 -64 -68 -75 -57 -11 11 28 133 67 208 23 44 39 82 36 86 -3 3 -21 -4
-40 -16 -43 -27 -100 -110 -122 -179 -21 -65 -72 -122 -109 -122 -37 0 -41 19
-22 100 16 74 41 129 88 198 54 78 -7 41 -110 -68 -39 -41 -73 -72 -76 -69 -3
3 3 30 13 60 29 81 35 127 21 144 -10 12 -19 11 -63 -12 -83 -41 -194 -122
-242 -175 l-43 -48 5 93 c11 182 -33 363 -152 622 -112 245 -143 371 -131 540
12 175 60 318 153 457 46 71 227 268 244 268 24 0 28 -57 19 -223 -10 -199
-29 -278 -93 -401 -52 -100 -143 -199 -233 -251 -41 -24 -61 -41 -52 -43 39
-8 180 90 264 181 156 170 231 424 205 693 -7 65 -14 121 -17 126 -10 17 -60
7 -99 -19z m1000 -1355 c-21 -99 -87 -213 -154 -265 -59 -47 -102 -75 -106
-71 -7 7 62 144 109 218 58 90 114 150 138 150 17 0 19 -5 13 -32z m-958 -610
c-42 -56 -68 -118 -65 -151 3 -31 5 -32 45 -31 l43 1 -22 -36 c-73 -121 -156
-216 -182 -208 -31 10 -7 166 40 260 38 75 135 197 156 197 5 0 -2 -15 -15
-32z m-578 -558 c17 -9 -40 -49 -169 -118 -98 -52 -183 -82 -231 -82 -29 0
-59 23 -59 45 0 40 99 111 205 145 81 27 214 32 254 10z"/>
<path d="M1173 2183 c-25 -5 -30 -19 -10 -25 8 -3 13 -37 15 -107 3 -81 1
-107 -12 -126 l-16 -25 46 0 c45 0 46 1 31 18 -20 22 -23 108 -5 147 8 18 19
25 39 25 33 0 39 -14 39 -96 0 -48 -4 -66 -15 -70 -30 -12 -14 -24 30 -24 49
0 53 4 30 27 -11 11 -15 33 -14 81 2 57 -1 68 -21 84 -27 22 -49 23 -78 2 -22
-15 -22 -15 -22 40 0 31 -3 55 -7 55 -5 -1 -18 -4 -30 -6z"/>
<path d="M2052 2094 c-25 -17 -30 -54 -8 -54 8 0 16 10 18 23 2 17 10 22 33
22 25 0 31 -4 33 -27 3 -24 -3 -30 -45 -50 -42 -20 -48 -27 -51 -57 -2 -20 2
-37 10 -42 18 -12 66 -11 73 1 4 6 21 8 41 4 22 -4 34 -2 34 5 0 6 -4 11 -10
11 -6 0 -10 30 -10 70 0 57 -4 74 -20 90 -24 24 -67 26 -98 4z"/>
<path d="M2240 2097 c-35 -15 -36 -17 -20 -27 19 -12 21 -141 3 -147 -29 -10
-10 -23 34 -23 37 0 44 3 35 12 -7 7 -12 43 -12 90 0 74 1 79 25 90 41 19 55
-3 55 -85 0 -51 -4 -75 -17 -89 -15 -17 -14 -18 30 -18 26 0 47 5 47 10 0 6
-4 10 -10 10 -6 0 -10 31 -10 73 0 88 -16 117 -64 117 -17 0 -38 -6 -44 -12
-9 -9 -15 -10 -20 -2 -5 8 -14 8 -32 1z"/>
</g>
</svg>
