<?xml version="1.0" standalone="no"?>
<!DOCTYPE svg PUBLIC "-//W3C//DTD SVG 20010904//EN"
 "http://www.w3.org/TR/2001/REC-SVG-20010904/DTD/svg10.dtd">
<svg version="1.0" xmlns="http://www.w3.org/2000/svg"
 width="25" height="25" viewBox="0 0 1280.000000 586.000000"
 preserveAspectRatio="xMidYMid meet">
<metadata>
Created by potrace 1.16, written by Peter Selinger 2001-2019
</metadata>
<g transform="translate(0.000000,586.000000) scale(0.100000,-0.100000)"
fill="#000000" stroke="none">
<path d="M6180 5840 c-838 -69 -1488 -339 -1994 -830 -152 -147 -256 -271
-366 -437 -226 -340 -366 -733 -425 -1193 -33 -255 -30 -702 6 -955 118 -826
516 -1469 1183 -1916 132 -88 409 -229 556 -283 414 -151 815 -216 1330 -216
902 0 1783 265 2753 828 l148 86 -3 54 -3 53 -59 24 c-80 32 -126 71 -156 131
l-25 49 0 675 0 675 25 49 c30 60 76 99 156 131 l59 24 3 70 3 71 -1288 0
c-1235 0 -1290 1 -1329 19 -23 10 -51 29 -63 42 -29 31 -66 102 -80 157 l-12
42 -64 0 -65 0 0 -665 0 -665 63 0 62 0 23 67 c31 89 74 148 125 176 l42 22
688 3 687 3 0 -380 0 -380 -130 -65 c-316 -161 -670 -264 -1070 -312 -176 -21
-548 -24 -695 -5 -526 66 -911 252 -1229 593 -122 131 -205 251 -286 413 -103
205 -161 401 -190 640 -14 116 -14 434 0 550 59 471 231 835 543 1147 510 510
1272 671 2137 452 292 -75 552 -176 711 -279 107 -69 200 -146 233 -193 33
-49 76 -161 76 -201 0 -34 8 -41 78 -69 l53 -21 24 52 c341 749 585 1291 585
1296 0 7 -96 61 -110 61 -5 0 -30 -15 -54 -34 -115 -88 -164 -79 -616 101
-473 190 -801 279 -1200 328 -156 19 -674 28 -840 15z"/>
<path d="M10030 5549 c-332 -25 -706 -115 -874 -212 -39 -21 -48 -39 -372
-737 -182 -393 -336 -715 -340 -715 -5 0 -66 18 -135 39 l-126 39 -9 70 c-5
41 -14 72 -22 75 -7 2 -21 -15 -32 -41 -68 -154 -117 -563 -104 -869 l7 -168
448 0 449 0 -7 58 c-5 31 -8 147 -8 257 0 173 3 214 23 303 65 289 177 503
370 704 200 208 417 337 684 407 189 49 247 56 478 55 226 0 297 -8 529 -60
339 -76 691 -247 763 -371 10 -17 21 -55 25 -85 7 -62 14 -73 64 -99 l37 -19
30 63 c16 34 124 263 241 508 116 246 211 448 211 450 0 3 -19 15 -42 28 l-43
23 -59 -36 c-92 -55 -128 -50 -431 66 -388 149 -662 222 -935 247 -297 28
-610 36 -820 20z"/>
<path d="M0 5425 l0 -54 47 -21 c56 -24 79 -44 102 -85 15 -27 16 -150 22
-1360 6 -1463 3 -1393 69 -1658 51 -203 121 -341 241 -471 150 -165 438 -313
748 -385 272 -64 655 -92 1004 -73 435 23 732 88 987 217 75 38 206 120 215
135 3 5 -8 44 -25 87 -100 259 -153 553 -170 953 -29 654 75 1217 307 1660 64
123 176 296 257 395 l56 70 0 185 c0 102 4 200 10 219 13 47 46 80 108 107
l52 24 0 50 0 50 -550 0 -550 0 0 -53 0 -54 40 -12 c52 -16 105 -67 119 -116
15 -54 15 -2236 0 -2426 -18 -235 -53 -355 -133 -462 -123 -164 -338 -272
-626 -313 -143 -21 -433 -20 -573 1 -349 52 -579 195 -686 425 -39 83 -58 177
-71 343 -14 181 -13 2379 0 2429 16 54 53 93 115 119 l55 23 0 53 0 53 -585 0
-585 0 0 -55z"/>
<path d="M10410 3061 l0 -501 50 0 c39 0 52 4 56 18 31 98 76 153 142 172 23
6 229 10 555 10 l517 0 0 -289 0 -289 -50 -49 c-156 -153 -501 -274 -930 -327
-422 -52 -697 -43 -986 34 -137 36 -314 107 -416 166 -42 24 -80 44 -83 44 -3
0 -5 -186 -5 -414 l0 -414 98 -31 c291 -93 618 -135 1047 -135 354 1 606 31
920 111 466 119 891 328 1258 618 l98 77 -3 42 c-3 40 -4 41 -57 60 -69 25
-115 71 -130 129 -15 62 -15 966 0 1022 14 51 64 98 128 121 l51 18 0 53 0 53
-992 0 c-621 0 -1006 4 -1028 10 -49 13 -96 65 -119 131 l-19 54 -51 3 -51 3
0 -500z"/>
</g>
</svg>
