<?xml version="1.0" standalone="no"?>
<!DOCTYPE svg PUBLIC "-//W3C//DTD SVG 20010904//EN"
 "http://www.w3.org/TR/2001/REC-SVG-20010904/DTD/svg10.dtd">
<svg version="1.0" xmlns="http://www.w3.org/2000/svg"
 width="25" height="25" viewBox="0 0 736.000000 736.000000"
 preserveAspectRatio="xMidYMid meet">
<metadata>
Created by potrace 1.16, written by Peter Selinger 2001-2019
</metadata>
<g transform="translate(0.000000,736.000000) scale(0.100000,-0.100000)"
fill="#000000" stroke="none">
<path d="M1855 4265 c-55 -43 -104 -81 -109 -86 -6 -5 -1 -18 12 -32 22 -23
22 -28 22 -328 0 -293 -1 -305 -20 -317 -11 -7 -20 -17 -20 -23 0 -7 29 -45
66 -85 l65 -73 105 86 c57 47 104 90 104 95 0 11 -17 2 -46 -23 -20 -19 -21
-18 -47 9 l-27 28 -2 413 -3 413 -100 -77z"/>
<path d="M6318 4257 l-106 -82 20 -21 c19 -21 20 -35 18 -330 -1 -298 -1 -309
-22 -331 l-20 -22 68 -75 c58 -65 70 -74 84 -62 8 7 54 45 103 85 48 40 87 78
87 83 0 6 -15 -1 -34 -15 l-33 -26 -27 27 -26 28 -2 411 -3 412 -107 -82z"/>
<path d="M260 4238 c0 -79 15 -135 40 -148 10 -5 37 -10 59 -10 l41 0 0 -74 0
-73 -70 -54 c-62 -47 -83 -69 -64 -69 3 0 35 23 70 51 l64 51 0 -140 c0 -134
-1 -141 -21 -147 -37 -12 -101 -78 -125 -130 -54 -115 -13 -247 102 -328 43
-30 44 -32 44 -89 0 -32 2 -58 5 -58 4 0 93 31 148 52 22 9 27 17 27 44 0 27
9 42 46 76 45 41 70 76 61 84 -2 2 -24 -7 -48 -21 -24 -13 -47 -25 -51 -25 -5
0 -8 32 -8 71 l0 71 23 -16 c12 -9 29 -20 37 -25 11 -6 52 21 162 108 l147
116 1 230 0 230 35 30 34 30 -93 99 -93 98 -124 -97 -124 -98 -3 79 c-3 111
-7 113 -167 106 -123 -5 -126 -4 -132 17 -11 42 -23 20 -23 -41z m472 -145
l38 -37 0 -293 c0 -161 -3 -293 -6 -293 -3 0 -28 18 -55 41 l-49 41 0 283 c0
278 1 289 30 294 2 1 21 -16 42 -36z m-92 -264 l0 -260 -30 21 -30 21 0 221
c0 216 0 220 23 239 12 10 25 18 30 19 4 0 7 -117 7 -261z m-256 -325 c14 -5
16 -28 16 -145 l0 -139 -37 19 c-46 23 -88 66 -102 104 -16 41 -13 99 4 125
21 29 86 49 119 36z"/>
<path d="M3578 4275 c-86 -28 -129 -125 -98 -220 38 -117 210 -88 210 35 l0
31 -34 -35 c-28 -30 -40 -36 -75 -36 -57 0 -91 33 -91 88 0 75 73 126 145 102
39 -13 92 -68 101 -106 4 -17 -18 -115 -67 -292 l-74 -266 -31 -7 c-86 -17
-137 -97 -138 -214 -1 -138 81 -226 209 -226 28 0 64 5 80 11 65 25 113 96
121 183 l5 52 -30 -60 c-41 -82 -86 -108 -186 -108 -120 1 -185 51 -185 142 0
91 134 94 215 6 l32 -36 53 87 53 87 -24 19 c-37 29 -96 58 -124 60 -27 3 -32
19 -15 63 l10 26 117 -3 117 -3 35 -132 c31 -116 41 -137 72 -169 l36 -35 101
87 c56 47 102 91 102 96 0 10 -16 3 -42 -20 -15 -13 -21 -11 -49 11 -31 24
-37 41 -119 344 -77 285 -85 321 -74 348 21 54 26 75 15 75 -6 0 -16 -18 -22
-40 -7 -22 -14 -40 -16 -40 -3 0 -19 14 -36 31 -65 66 -202 95 -299 64z m222
-346 c22 -79 40 -147 40 -151 0 -5 -39 -8 -86 -8 -77 0 -86 2 -81 18 2 9 21
79 42 155 21 75 40 135 42 133 2 -2 21 -68 43 -147z"/>
<path d="M7092 4090 c-17 -36 -64 -64 -95 -54 -12 3 -37 17 -54 31 -38 28 -19
35 -206 -81 l-127 -80 0 -80 0 -80 66 -67 65 -66 -60 -55 c-70 -63 -91 -98
-91 -153 0 -65 45 -122 110 -139 l25 -7 -27 21 c-33 26 -36 62 -8 90 29 29 62
25 112 -13 l43 -33 86 57 c47 31 111 71 142 89 l57 32 0 113 0 113 -62 55 -61
55 27 33 c45 53 78 129 84 191 5 63 -6 75 -26 28z m-196 -190 c38 -15 97 -12
122 6 58 40 -4 -38 -96 -121 l-53 -48 -39 38 -40 39 0 84 0 84 41 -36 c22 -20
51 -41 65 -46z m21 -222 l33 -32 0 -100 0 -101 -27 38 c-36 50 -120 92 -170
84 l-37 -6 74 74 c41 41 79 75 84 75 6 0 25 -14 43 -32z"/>
<path d="M1218 4023 l-148 -67 0 -266 0 -266 54 -53 54 -53 95 81 c52 44 98
81 101 81 3 0 6 -12 6 -28 0 -21 13 -39 58 -79 l58 -50 99 84 c55 46 102 88
103 93 6 17 -10 11 -34 -11 l-23 -21 -40 28 -41 29 0 210 0 210 32 27 c18 14
30 30 25 34 -4 4 -17 -2 -30 -14 -13 -12 -29 -22 -36 -22 -6 0 -47 27 -89 60
-43 33 -82 60 -87 60 -6 0 -76 -31 -157 -67z m108 -125 l54 -43 0 -169 c0
-160 -1 -171 -22 -193 -28 -30 -32 -29 -79 8 l-39 31 0 210 c0 239 -6 228 86
156z"/>
<path d="M2131 4008 c-57 -45 -98 -84 -91 -86 6 -2 22 6 36 19 l24 23 55 -54
55 -54 0 -165 c0 -162 0 -165 -25 -191 l-25 -26 78 -77 78 -77 63 65 63 65
-26 31 -26 31 0 218 c0 256 2 260 81 179 l49 -50 0 -174 c0 -164 -1 -176 -20
-187 -11 -7 -20 -17 -20 -23 0 -5 33 -42 72 -82 l72 -73 63 62 c35 34 63 67
63 73 0 7 -11 22 -25 35 l-25 23 0 213 c0 210 0 213 22 225 20 11 27 7 70 -41
l48 -54 0 -173 c0 -162 -1 -174 -20 -185 -11 -7 -20 -17 -20 -23 0 -5 31 -43
68 -82 l67 -73 100 85 c95 80 148 140 73 83 l-35 -27 -27 28 -26 27 0 210 0
209 37 32 c25 21 32 32 22 33 -9 0 -24 -9 -34 -20 -10 -11 -23 -20 -29 -20 -6
0 -41 30 -78 67 l-67 66 -88 -71 -88 -71 -72 71 -71 71 -62 -49 c-34 -27 -73
-58 -87 -68 l-25 -19 -67 67 c-36 36 -69 66 -71 66 -3 0 -52 -37 -109 -82z"/>
<path d="M4247 4008 c-54 -44 -96 -83 -93 -86 4 -3 20 5 37 17 l31 23 49 -48
49 -48 0 -175 c0 -161 -2 -176 -20 -196 l-20 -21 72 -78 71 -77 68 67 69 68
-30 31 -30 31 0 205 c0 195 1 207 20 224 21 19 22 18 71 -32 l51 -50 -2 -174
c-1 -159 -2 -175 -21 -195 l-20 -21 67 -76 67 -76 27 22 c15 12 62 49 103 82
42 33 76 66 77 74 0 9 -11 5 -34 -12 l-33 -26 -27 28 -26 27 0 210 0 209 37
32 c25 21 32 32 22 33 -9 0 -24 -9 -34 -20 -10 -11 -22 -20 -27 -20 -5 0 -36
29 -69 65 -34 36 -65 65 -69 65 -5 0 -45 -29 -91 -65 -45 -36 -87 -65 -93 -65
-6 0 -38 29 -71 65 -33 36 -64 65 -70 64 -5 0 -54 -36 -108 -81z"/>
<path d="M5158 4022 l-147 -67 -1 -265 0 -266 45 -44 c25 -24 45 -47 45 -50 0
-3 -36 -36 -80 -73 -44 -38 -80 -71 -80 -75 0 -4 24 -16 53 -26 36 -13 70 -36
111 -77 l59 -58 46 40 c56 50 102 74 167 89 141 33 204 87 204 176 0 29 -8 46
-40 80 l-40 44 0 247 0 248 32 27 c18 14 30 30 25 34 -4 4 -17 -2 -30 -14 -13
-12 -29 -22 -35 -22 -6 0 -47 27 -89 60 -43 33 -82 60 -88 60 -5 0 -76 -31
-157 -68z m98 -119 l64 -47 0 -170 c0 -160 -1 -171 -22 -193 -28 -30 -32 -29
-79 8 l-39 31 0 209 c0 115 3 209 6 209 3 0 35 -21 70 -47z m64 -474 c0 -60
10 -82 61 -130 60 -55 50 -114 -21 -133 -14 -4 -42 -14 -62 -23 l-37 -16 -27
32 c-33 40 -94 71 -153 80 l-45 6 134 117 c74 64 138 117 143 117 4 1 7 -22 7
-50z"/>
<path d="M5820 3997 l-155 -93 -3 -202 -2 -202 -30 -21 c-16 -12 -27 -26 -24
-30 3 -5 18 1 35 13 l29 22 84 -83 83 -83 161 128 c88 71 161 132 161 137 2
16 -18 4 -103 -65 l-89 -71 -69 71 c-50 51 -67 75 -61 86 4 8 71 65 148 126
77 62 139 118 137 124 -5 18 -136 236 -142 236 -3 0 -75 -42 -160 -93z m94
-125 c37 -57 66 -108 66 -112 0 -10 -133 -120 -144 -120 -3 0 -6 79 -6 176 1
101 5 173 10 168 5 -5 38 -56 74 -112z"/>
</g>
</svg>
