<?xml version="1.0" standalone="no"?>
<!DOCTYPE svg PUBLIC "-//W3C//DTD SVG 20010904//EN"
 "http://www.w3.org/TR/2001/REC-SVG-20010904/DTD/svg10.dtd">
<svg version="1.0" xmlns="http://www.w3.org/2000/svg"
 width="25" height="25" viewBox="0 0 300.000000 290.000000"
 preserveAspectRatio="xMidYMid meet">
<metadata>
Created by potrace 1.16, written by Peter Selinger 2001-2019
</metadata>
<g transform="translate(0.000000,290.000000) scale(0.100000,-0.100000)"
fill="#000000" stroke="none">
<path d="M1140 2863 c0 -29 8 -45 36 -74 57 -58 56 -82 -16 -345 -135 -500
-217 -681 -381 -843 l-70 -68 16 -64 c34 -128 -3 -264 -96 -355 -49 -48 -50
-48 -44 -19 15 70 38 142 56 177 10 20 19 47 19 59 0 12 -25 72 -55 133 -79
161 -87 198 -92 426 l-4 195 48 -80 c27 -44 84 -142 128 -217 43 -76 83 -138
89 -138 28 1 140 174 181 279 l26 67 -155 314 c-166 336 -189 369 -264 390
-25 6 -132 9 -284 8 l-243 -3 3 -55 c2 -30 7 -56 12 -58 61 -22 116 -104 145
-217 20 -78 35 -306 37 -564 2 -202 2 -208 -27 -296 -44 -138 -43 -151 4 -237
59 -108 81 -180 88 -284 13 -205 -74 -384 -200 -409 -18 -4 -40 -9 -50 -11
-21 -7 -47 -54 -47 -88 0 -38 89 -68 201 -68 l86 0 139 -111 c219 -174 407
-289 498 -304 32 -5 36 -2 60 39 14 25 26 49 25 54 0 5 -33 35 -74 66 -159
123 -279 344 -334 615 -12 55 -21 118 -21 138 l0 37 27 -18 c43 -27 59 -52 99
-149 132 -321 300 -525 520 -633 100 -50 100 -50 129 7 14 28 25 56 25 63 0 7
-17 24 -38 37 -205 133 -304 333 -289 586 11 183 73 373 146 446 62 63 109 72
335 67 152 -3 176 -6 213 -26 79 -41 128 -132 175 -320 29 -116 31 -309 4
-397 -42 -141 -136 -266 -260 -349 l-55 -36 27 -60 c15 -33 32 -59 37 -60 17
0 153 68 203 102 157 107 298 297 399 536 55 132 77 168 114 187 29 15 29 15
29 -14 0 -17 -9 -78 -20 -136 -55 -280 -183 -514 -349 -635 -33 -24 -61 -50
-61 -57 0 -8 12 -32 26 -54 23 -38 29 -41 58 -36 93 15 292 137 506 311 l125
101 90 1 c117 3 205 32 205 70 0 40 -28 83 -58 90 -103 23 -151 60 -193 148
-40 84 -52 155 -47 266 6 111 31 195 89 292 21 36 39 76 39 88 0 12 -11 59
-24 104 -43 141 -48 196 -41 401 9 275 22 437 41 507 29 112 77 185 135 203
16 5 19 16 19 66 l0 60 -262 -3 c-283 -3 -297 -6 -348 -60 -22 -24 -330 -642
-330 -663 0 -6 24 -59 53 -116 51 -103 132 -219 152 -219 5 0 48 66 94 148 47
81 104 178 128 217 l43 69 0 -156 c0 -228 -28 -346 -121 -515 l-41 -73 35 -83
c20 -45 40 -105 45 -134 l9 -51 -28 21 c-99 73 -153 251 -115 382 l17 58 -69
66 c-163 156 -250 348 -387 856 -67 247 -68 276 -11 334 28 29 36 45 36 74 l0
37 -360 0 -360 0 0 -37z m479 -817 c70 -252 110 -413 106 -425 -6 -20 -13 -21
-225 -21 l-220 0 -6 23 c-3 15 36 173 105 421 61 218 111 399 111 401 0 3 4 5
8 5 5 0 59 -182 121 -404z"/>
<path d="M1258 1291 c-54 -34 -102 -101 -129 -178 l-20 -55 164 -282 164 -281
62 0 63 0 159 273 c97 167 159 284 159 300 0 34 -48 137 -84 179 -29 34 -100
73 -134 73 -17 0 -36 -25 -89 -115 -37 -63 -70 -115 -74 -115 -3 0 -36 52 -73
115 -78 132 -87 137 -168 86z"/>
</g>
</svg>
