<?xml version="1.0" standalone="no"?>
<!DOCTYPE svg PUBLIC "-//W3C//DTD SVG 20010904//EN"
 "http://www.w3.org/TR/2001/REC-SVG-20010904/DTD/svg10.dtd">
<svg version="1.0" xmlns="http://www.w3.org/2000/svg"
 width="25" height="25" viewBox="0 0 640.000000 480.000000"
 preserveAspectRatio="xMidYMid meet">
<metadata>
Created by potrace 1.16, written by Peter Selinger 2001-2019
</metadata>
<g transform="translate(0.000000,480.000000) scale(0.100000,-0.100000)"
fill="#000000" stroke="none">
<path d="M322 2413 l3 -2098 810 0 c714 1 825 3 940 18 316 43 584 121 820
239 l90 46 126 -62 c338 -165 658 -240 1024 -239 354 0 675 71 983 218 189 91
281 149 448 287 193 159 400 436 495 662 87 209 119 389 126 719 l6 237 -972
0 -971 0 2 -237 3 -238 631 -5 631 -5 -13 -65 c-78 -380 -317 -687 -669 -860
-189 -93 -329 -131 -552 -152 -219 -20 -498 17 -705 94 -49 18 -88 35 -88 39
0 3 25 37 57 75 139 169 259 390 332 609 177 533 139 1196 -96 1674 -54 111
-178 305 -245 384 -19 23 -28 41 -22 46 33 33 280 107 439 132 119 19 389 16
510 -5 214 -38 443 -134 625 -264 110 -78 295 -258 365 -354 27 -38 53 -68 57
-68 17 0 458 233 458 242 0 31 -105 194 -208 321 -253 314 -644 560 -1029 648
-298 67 -671 72 -990 13 -221 -40 -525 -152 -694 -255 l-37 -22 -113 56 c-254
123 -511 196 -854 243 -101 14 -250 17 -923 21 l-802 5 2 -2099z m1518 1537
c218 -26 503 -100 627 -164 l45 -22 -47 -58 c-85 -104 -176 -249 -246 -391
-149 -304 -219 -619 -219 -979 1 -480 132 -879 401 -1216 l78 -98 -87 -31
c-300 -107 -636 -146 -1187 -139 l-240 3 -3 1545 c-1 850 0 1551 3 1559 4 11
70 13 393 8 213 -3 430 -10 482 -17z m1264 -685 c225 -334 300 -786 205 -1238
-44 -210 -126 -398 -242 -554 -57 -75 -73 -91 -84 -81 -8 6 -41 51 -74 100
-355 532 -336 1329 46 1847 l47 64 24 -29 c13 -16 48 -65 78 -109z"/>
</g>
</svg>
