<?xml version="1.0" standalone="no"?>
<!DOCTYPE svg PUBLIC "-//W3C//DTD SVG 20010904//EN"
 "http://www.w3.org/TR/2001/REC-SVG-20010904/DTD/svg10.dtd">
<svg version="1.0" xmlns="http://www.w3.org/2000/svg"
 width="25" height="25" viewBox="0 0 924.000000 520.000000"
 preserveAspectRatio="xMidYMid meet">
<metadata>
Created by potrace 1.16, written by Peter Selinger 2001-2019
</metadata>
<g transform="translate(0.000000,520.000000) scale(0.100000,-0.100000)"
fill="#000000" stroke="none">
<path d="M3317 4123 c-129 -22 -234 -79 -378 -206 -45 -39 -51 -49 -39 -58 20
-15 10 -11 -118 40 -57 23 -108 39 -113 36 -5 -4 -9 1 -9 10 0 11 -5 15 -15
12 -9 -4 -23 8 -39 35 -24 40 -27 42 -68 40 -24 -2 -79 8 -123 22 -46 14 -84
20 -89 15 -11 -10 -18 -4 74 -69 41 -29 86 -66 100 -81 24 -27 27 -28 68 -17
31 9 49 9 70 1 15 -6 204 -82 421 -170 216 -87 386 -159 377 -161 -9 -2 -16
-13 -17 -25 l0 -22 -9 22 c-12 29 -44 45 -83 41 -26 -2 -32 -7 -31 -26 l1 -23
-25 26 c-31 34 -83 32 -92 -4 -5 -21 -7 -22 -19 -7 -17 21 -55 20 -92 -1 -27
-16 -28 -18 -11 -36 17 -19 16 -19 -15 -3 -31 15 -32 15 -47 -6 l-15 -22 -48
26 c-26 15 -72 36 -100 47 -47 18 -53 19 -53 5 0 -41 27 -100 61 -133 l38 -36
-22 -63 c-22 -63 -22 -64 -3 -78 19 -14 19 -14 -1 -14 -12 0 -25 -4 -28 -10
-4 -6 -55 -10 -121 -10 -63 0 -114 -4 -114 -9 0 -12 21 -27 45 -34 11 -3 59
-17 106 -32 111 -33 113 -36 99 -205 -5 -69 -10 -142 -10 -162 l0 -38 73 -2
c62 -1 65 -2 20 -5 -29 -2 -53 -8 -53 -12 0 -4 11 -18 25 -31 19 -18 31 -21
57 -16 82 16 106 27 113 49 4 13 8 17 12 10 7 -18 30 -16 41 3 6 11 11 13 16
5 13 -21 26 -11 26 19 0 32 23 42 34 15 9 -25 -4 -43 -49 -70 -52 -30 -75 -60
-75 -97 0 -37 32 -56 116 -70 65 -11 68 -11 87 13 15 17 18 19 14 6 -4 -11
-10 -30 -13 -44 -6 -23 -5 -25 17 -18 57 19 126 35 144 34 11 0 -9 -8 -45 -18
-174 -48 -161 -41 -158 -81 3 -34 5 -35 46 -38 24 -2 65 4 90 12 25 9 53 16
61 16 9 -1 -18 -12 -59 -25 -61 -20 -83 -23 -117 -16 l-43 9 -74 -132 c-40
-72 -86 -155 -102 -185 l-29 -53 -131 6 -132 7 -20 -29 c-12 -16 -30 -52 -41
-80 l-21 -52 32 -78 c17 -42 50 -140 72 -216 34 -115 46 -142 69 -160 24 -17
31 -19 48 -8 22 14 49 2 49 -22 0 -16 58 -70 96 -90 29 -14 33 -14 48 3 9 10
35 21 57 24 50 7 60 15 34 29 -11 6 -52 43 -91 83 -41 43 -80 75 -95 77 -17 2
-24 9 -24 25 0 26 -52 83 -75 83 -10 0 -33 26 -55 61 -30 48 -36 68 -32 93 7
43 49 129 65 134 7 2 2 -12 -11 -31 -13 -19 -30 -56 -37 -81 -12 -42 -11 -48
13 -89 16 -26 39 -49 57 -57 18 -7 75 -64 139 -140 96 -112 115 -129 165 -150
55 -22 57 -22 77 -4 14 13 18 14 14 3 -4 -10 13 -22 59 -43 77 -33 99 -31 106
9 5 27 6 28 12 8 6 -21 7 -21 53 -7 27 8 59 14 72 14 29 0 30 26 3 80 -21 42
-56 70 -120 99 -34 15 -49 16 -91 8 -46 -9 -50 -12 -45 -33 5 -20 2 -24 -15
-24 -18 0 -19 3 -9 15 6 8 9 19 5 25 -9 14 -80 50 -100 50 -30 0 -178 141
-163 155 2 2 53 -6 113 -16 134 -23 204 -24 253 -3 29 12 57 14 132 9 88 -6
97 -5 123 15 15 12 25 26 22 31 -8 12 2 11 115 -6 66 -10 96 -11 101 -3 4 7 8
6 11 -3 4 -12 8 -12 21 -1 13 11 15 10 11 -6 -4 -14 -12 -17 -35 -14 -17 2
-29 0 -29 -7 0 -13 56 -41 132 -66 47 -15 59 -16 72 -6 9 8 16 19 16 26 0 8 9
10 25 7 14 -2 25 -8 25 -13 0 -15 57 -10 70 6 10 12 10 21 1 41 -6 14 -7 23
-2 20 20 -13 43 6 37 30 -6 24 -5 24 71 24 43 0 93 4 111 9 25 8 32 7 32 -5 0
-9 -11 -14 -33 -14 -38 0 -157 -38 -157 -50 0 -15 136 -33 216 -28 66 4 96 12
186 51 71 31 137 52 200 63 51 9 95 18 98 21 3 2 -6 13 -20 23 -33 26 -102 25
-159 0 l-43 -20 -40 40 c-47 47 -80 51 -139 18 -44 -25 -57 -19 -40 18 6 14 9
29 7 32 -2 4 -43 6 -90 4 l-86 -3 -60 -58 c-33 -31 -60 -54 -60 -51 0 3 18 37
41 75 66 112 87 159 108 234 l20 71 -24 0 c-14 0 -35 14 -56 38 -18 20 -39 40
-48 44 -14 6 -14 7 -1 7 9 1 34 -17 55 -39 45 -46 91 -54 125 -20 20 20 20 50
0 90 -5 9 -2 23 6 35 8 11 14 35 13 55 -1 25 9 52 34 94 20 33 39 74 43 91 3
17 17 45 30 61 l25 29 -17 -28 c-21 -35 -12 -45 21 -23 36 23 65 75 65 113 0
17 5 35 10 38 14 9 13 -51 -2 -78 -6 -12 -30 -44 -53 -72 -23 -27 -47 -60 -54
-72 -13 -26 -15 -63 -2 -63 13 0 99 96 113 125 9 19 14 22 25 14 27 -23 66 33
77 111 4 25 10 58 13 74 l5 29 -51 -5 c-27 -3 -48 -1 -45 4 3 4 27 8 54 8 34
0 50 4 54 16 10 26 7 31 -23 44 -56 23 -160 -34 -161 -88 -1 -15 -2 -15 -11 1
-6 11 -22 17 -44 17 -35 0 -85 -18 -85 -30 0 -13 36 -40 69 -51 27 -9 35 -9
42 2 6 9 8 -4 7 -36 0 -27 -3 -40 -5 -27 -3 17 -11 22 -34 22 -22 0 -34 9 -55
40 -15 22 -30 40 -34 40 -18 0 -96 -215 -106 -292 l-7 -50 29 4 c30 3 37 13
80 112 14 32 27 56 30 54 2 -3 -11 -40 -31 -83 -19 -43 -35 -83 -35 -89 0 -8
-13 -11 -35 -8 -48 6 -90 -14 -115 -52 -11 -17 -20 -27 -20 -22 0 20 43 76 58
76 13 0 22 20 39 83 11 45 38 127 58 181 30 80 34 100 23 108 -9 6 -8 8 7 6
17 -2 20 2 18 27 -2 28 -2 29 6 5 4 -14 14 -23 22 -21 8 2 37 6 64 10 28 3 49
9 48 14 -2 4 -3 20 -3 37 0 28 -2 29 -26 20 -14 -6 -48 -10 -75 -10 -47 0 -49
1 -48 28 2 23 2 24 6 5 4 -20 11 -23 51 -23 26 0 57 7 68 15 26 18 34 11 34
-31 0 -18 4 -35 9 -39 13 -7 51 43 51 67 0 28 -27 76 -50 88 -18 10 -20 7 -21
-22 -2 -30 -2 -31 -6 -5 -4 23 -9 27 -36 27 -71 0 -107 -12 -108 -34 -1 -18
-2 -18 -6 -3 -4 14 -11 17 -33 12 -26 -6 -29 -3 -32 22 -2 19 -8 28 -20 27
-10 -1 -32 -2 -48 -3 l-31 -1 6 -62 c3 -35 8 -86 11 -115 5 -47 3 -53 -21 -69
-14 -9 -27 -15 -29 -13 -3 2 2 27 9 56 10 39 11 69 4 119 -12 84 -17 93 -41
63 -13 -17 -10 -5 10 41 16 36 34 87 42 113 9 35 17 46 27 43 8 -4 17 -6 20
-6 4 0 -1 -8 -9 -17 -8 -10 -25 -46 -36 -81 l-21 -64 42 7 c80 12 79 11 57 53
-20 36 -27 102 -12 102 4 0 16 -34 27 -76 10 -41 22 -77 27 -80 5 -3 25 4 46
16 l37 22 -30 -26 c-16 -14 -36 -26 -42 -26 -13 0 -18 -22 -8 -32 3 -3 31 1
63 8 31 8 77 14 101 14 33 0 42 3 38 14 -10 24 85 -9 640 -222 287 -111 534
-204 549 -208 23 -6 25 -4 22 17 -3 20 -30 35 -198 106 -107 46 -251 106 -320
134 -69 28 -225 94 -348 146 -207 89 -221 97 -202 110 28 20 25 34 -16 74 -20
18 -49 59 -64 90 -28 54 -105 133 -120 124 -11 -7 -25 15 -37 58 -10 35 -10
38 5 32 96 -37 293 -45 466 -20 221 32 356 45 473 45 107 0 130 -3 190 -26
219 -83 197 -78 347 -77 77 0 133 -3 125 -8 -17 -10 -14 -13 47 -33 28 -9 95
-48 148 -86 102 -72 138 -86 211 -78 34 4 42 2 38 -8 -3 -9 2 -14 14 -14 11 0
50 -19 87 -41 78 -47 127 -57 191 -39 49 14 57 25 24 35 -11 4 -42 26 -69 50
-59 53 -99 63 -169 42 -28 -8 -49 -11 -46 -7 3 4 -9 13 -25 20 -16 7 -50 37
-76 66 -53 62 -101 90 -188 109 -33 7 -51 14 -38 14 12 1 22 5 22 10 0 11 -61
27 -180 46 -107 18 -159 39 -309 127 -200 117 -374 187 -516 209 -71 10 -102
9 -260 -10 -247 -31 -348 -36 -446 -22 -71 10 -201 41 -245 58 -15 6 -29 -74
-20 -111 3 -13 23 -35 43 -47 20 -13 31 -25 24 -27 -18 -6 -79 56 -93 95 -7
18 -17 33 -23 33 -5 0 -16 9 -23 20 -10 17 -10 21 2 26 8 3 23 1 35 -5 27 -15
31 -14 31 9 0 42 -29 78 -82 103 -53 25 -53 26 -4 41 32 10 104 -18 165 -64
78 -57 105 -65 109 -32 3 17 10 22 33 22 32 0 37 11 14 30 -9 7 -14 15 -11 17
2 2 17 -10 34 -27 37 -36 96 -41 133 -11 21 17 22 21 11 47 -11 23 -3 19 39
-25 62 -64 99 -81 178 -81 69 0 91 6 91 26 0 8 11 20 25 26 32 14 32 26 0 34
-20 5 -23 9 -15 24 32 60 -11 139 -67 126 -15 -4 -45 -11 -66 -15 -55 -12 -65
-26 -33 -46 34 -22 33 -35 -2 -35 -17 0 -59 19 -102 47 -60 39 -83 48 -131 51
-46 3 -60 1 -75 -14 -18 -19 -20 -19 -54 -1 -26 14 -51 17 -97 15 -71 -4 -86
-13 -58 -35 20 -15 20 -15 0 -10 -92 26 -170 6 -203 -52 -14 -25 -24 -31 -52
-31 -39 0 -108 -29 -128 -52 -10 -12 -9 -21 3 -44 21 -41 19 -54 -9 -54 -35 0
-38 32 -8 90 14 27 23 52 20 56 -14 13 -156 66 -230 84 -94 24 -278 51 -328
48 -19 -1 -70 -8 -113 -15z m-67 -123 c11 -11 20 -23 20 -27 0 -5 40 -8 89 -8
75 0 94 -3 118 -21 72 -54 64 -111 -23 -149 -66 -29 -64 -29 -64 -10 0 15 -98
76 -202 125 -70 33 -88 37 -88 17 0 -24 36 -48 66 -45 21 2 29 -1 29 -12 0
-25 -60 -25 -84 -1 -32 32 -27 77 13 117 41 41 93 47 126 14z m575 -249 c72
-25 92 -26 119 -4 12 10 15 11 9 3 -7 -8 -13 -27 -13 -42 0 -26 2 -28 22 -17
l21 12 -21 -28 c-12 -15 -22 -32 -22 -36 0 -5 22 -9 49 -9 104 0 110 -25 9
-32 -116 -8 -229 -66 -198 -103 7 -8 8 -15 2 -15 -5 0 -12 6 -15 13 -5 14 -69
42 -278 123 l-127 49 49 32 c48 33 123 66 169 76 48 10 166 -1 225 -22z m1250
-21 c10 -11 15 -28 12 -40 -4 -16 3 -25 35 -41 30 -15 37 -23 28 -29 -9 -5
-29 0 -55 16 -54 31 -76 32 -47 1 25 -27 28 -37 9 -37 -12 0 -127 121 -127
134 0 7 37 13 86 15 29 1 46 -5 59 -19z m-170 -23 c50 -28 85 -87 66 -111 -36
-44 -156 18 -184 95 -15 42 55 52 118 16z m-757 -243 c36 -41 24 -96 -25 -115
-24 -9 -24 -11 -10 -27 48 -52 61 -165 28 -237 -19 -42 -82 -105 -106 -105 -7
0 -22 -2 -32 -6 -10 -3 1 5 25 17 58 29 93 90 99 173 7 78 -8 127 -53 171 -28
29 -30 33 -12 26 43 -15 78 12 78 60 0 35 -24 59 -59 59 -28 0 -28 -2 -55
-122 -14 -68 -28 -133 -30 -144 -3 -12 -9 -39 -15 -60 -6 -22 -11 -45 -11 -51
0 -16 42 -17 58 -1 13 13 16 59 5 74 -5 5 0 1 10 -10 39 -42 -10 -112 -72
-102 -18 3 -35 7 -38 9 -2 3 3 30 12 62 9 31 14 59 11 62 -10 10 -57 -39 -72
-75 -22 -51 1 -112 51 -133 18 -7 18 -8 2 -8 -11 -1 -34 14 -53 33 -28 28 -34
41 -34 78 1 51 22 81 77 108 37 18 37 18 64 141 15 68 23 126 18 127 -17 7 -9
21 14 25 46 10 102 -3 125 -29z m-833 -351 c2 -18 -1 -33 -5 -33 -4 0 -13 -48
-19 -107 -7 -60 -15 -118 -18 -130 -4 -20 -1 -23 23 -24 l29 -2 -27 -4 c-16
-2 -28 -10 -28 -17 0 -17 31 -109 40 -120 9 -10 99 49 107 70 3 8 12 14 20 14
22 0 102 60 108 82 4 10 14 18 23 18 19 0 72 49 72 67 0 7 7 13 15 13 8 0 29
13 46 28 l32 28 -19 30 -18 29 26 -23 26 -23 15 21 c13 19 15 19 21 3 6 -15 8
-15 16 -3 8 12 10 9 10 -10 0 -54 60 -224 99 -280 8 -12 13 -11 33 5 l23 20
-19 -22 c-27 -33 -17 -46 21 -26 37 21 103 81 162 150 l41 48 -14 -41 c-7 -22
-26 -64 -40 -92 -40 -79 -34 -89 29 -47 20 14 35 20 33 13 -2 -7 -32 -28 -67
-46 -72 -39 -101 -78 -101 -137 0 -46 32 -105 56 -105 11 0 14 5 10 17 -4 9
-10 37 -13 60 -7 53 10 76 102 134 41 26 66 51 81 81 l23 43 -6 -55 -6 -55 64
59 c35 32 66 64 68 70 1 6 12 28 22 49 14 28 17 43 9 57 -5 10 -10 27 -9 37 0
23 16 -14 28 -69 8 -33 7 -38 -10 -38 -13 0 -20 -10 -24 -34 -5 -25 -15 -37
-40 -49 -37 -17 -77 -66 -93 -112 -9 -26 -11 -27 -11 -7 -1 28 -21 24 -91 -16
-93 -53 -113 -103 -65 -160 24 -29 81 -60 91 -50 2 3 0 17 -6 32 -17 45 -12
66 30 119 l41 50 -6 -56 c-3 -32 -7 -81 -10 -111 -3 -38 -1 -56 8 -60 6 -3 3
-4 -9 -1 -15 4 -24 -3 -36 -28 -14 -29 -14 -36 -1 -61 12 -23 19 -27 41 -22
22 5 24 4 10 -4 -10 -6 -29 -28 -43 -48 -28 -41 -30 -40 -14 5 8 24 7 39 -6
69 -9 22 -19 34 -24 28 -10 -10 -63 -187 -60 -200 1 -5 -5 -26 -14 -46 -21
-46 -22 -98 -3 -98 18 0 31 17 46 63 9 30 9 41 0 52 -10 12 -9 15 3 15 9 0 19
9 22 21 4 11 9 19 11 17 5 -5 -52 -277 -64 -308 -9 -21 -11 -13 -11 46 -1 54
-5 73 -16 78 -17 6 -30 -11 -76 -106 -29 -58 -35 -65 -51 -57 -28 15 -84 7
-80 -11 3 -12 1 -13 -9 -2 -7 6 -38 13 -68 13 l-56 1 40 9 c22 4 75 8 118 8
l77 1 17 34 c9 19 13 41 10 49 -13 35 -119 59 -172 38 -15 -6 -30 3 -71 46
-49 50 -55 53 -101 53 -29 0 -63 -8 -86 -20 l-38 -21 -30 30 c-17 17 -47 36
-68 42 -33 10 -45 8 -86 -10 -47 -21 -47 -21 -72 -1 -56 44 -149 15 -255 -80
-27 -23 -48 -38 -48 -33 1 25 14 51 24 47 7 -3 35 11 62 31 63 46 122 75 154
75 14 0 43 -9 65 -20 22 -11 42 -20 46 -20 4 0 16 15 27 32 20 31 20 34 4 53
-16 18 -16 19 0 6 32 -24 54 18 26 48 -11 11 -9 11 9 0 28 -17 39 -6 25 25 -9
21 -8 23 10 18 18 -4 20 -1 16 21 -3 17 -1 24 8 20 21 -8 24 -42 3 -48 -28 -9
-23 -25 9 -25 27 0 27 0 -7 -18 -42 -21 -52 -42 -19 -42 18 0 15 -4 -17 -19
-42 -20 -42 -20 32 -40 24 -7 51 -23 63 -38 20 -26 21 -26 56 -10 53 26 133
22 178 -8 20 -14 41 -25 46 -25 18 0 10 44 -12 69 l-23 26 27 -24 c37 -32 52
-20 32 27 -10 24 -11 33 -3 25 34 -34 53 3 22 41 l-18 21 23 -20 c15 -12 26
-16 30 -8 4 5 15 7 25 4 17 -6 16 -8 -7 -19 -29 -13 -35 -42 -8 -42 13 0 11
-3 -7 -13 -43 -22 -37 -37 16 -38 l48 -2 -43 -6 c-48 -8 -68 -24 -77 -62 l-6
-25 61 4 c53 4 65 1 98 -22 21 -14 41 -26 44 -26 14 0 49 106 58 172 5 40 14
97 18 126 11 62 8 65 -96 102 -34 13 -61 25 -58 27 2 2 39 -10 82 -26 44 -17
82 -31 86 -31 8 0 38 65 38 81 0 13 -54 39 -160 76 -85 30 -89 35 -16 17 23
-5 24 -4 19 38 -3 24 -1 60 5 80 5 20 8 39 5 41 -2 3 -30 -10 -62 -27 -32 -18
-71 -36 -87 -40 -57 -15 -69 -39 -26 -54 22 -9 19 -10 -20 -5 -37 4 -48 2 -48
-8 -1 -9 -6 -7 -16 6 -13 17 -31 21 -142 26 l-127 7 136 -2 137 -2 4 61 c3 54
9 69 51 128 41 57 46 69 37 91 -12 33 -18 32 -61 -3 l-35 -29 4 31 c6 43 17
55 47 49 21 -4 25 -1 25 20 0 27 -28 118 -41 132 -5 5 -40 -21 -83 -62 -89
-84 -206 -178 -298 -240 -71 -47 -78 -56 -53 -66 8 -3 15 -13 15 -23 0 -15 -2
-15 -14 3 -16 21 -17 21 -40 -21 -12 -23 -16 -25 -15 -10 3 53 -9 57 -71 25
-47 -24 -50 -24 -50 -6 0 8 18 29 40 46 41 33 57 79 23 65 -15 -5 -16 -4 -5 6
6 7 12 25 12 41 0 63 -104 76 -153 18 -23 -27 -58 -50 -74 -50 -4 1 5 8 20 16
18 10 39 38 58 77 23 50 29 57 29 35 0 -27 2 -28 47 -28 44 0 45 1 30 18 -13
14 -16 30 -11 68 l6 49 -36 -38 c-36 -36 -36 -37 -30 -10 4 16 18 53 32 83 13
30 31 71 38 90 7 19 13 27 14 18 0 -9 -9 -37 -20 -63 -25 -58 -25 -58 3 -53
20 4 23 1 19 -24 -6 -37 10 -36 42 3 32 38 40 67 33 125 -4 37 -2 44 10 42 10
-2 17 -16 18 -35z"/>
<path d="M3137 3993 c-14 -14 -6 -24 38 -45 25 -12 45 -26 45 -30 0 -4 6 -8
14 -8 7 0 49 -20 92 -44 94 -52 118 -60 150 -52 31 8 31 36 -1 75 -36 42 -101
64 -175 59 -50 -4 -60 -2 -60 12 0 9 -5 21 -12 28 -13 13 -80 17 -91 5z"/>
<path d="M3833 2734 c-42 -54 -63 -98 -63 -134 0 -27 3 -30 32 -30 36 0 99 28
143 64 l30 25 -24 17 c-24 17 -49 43 -74 78 -13 17 -15 16 -44 -20z"/>
<path d="M4895 2680 c-9 -10 -20 -19 -24 -18 -20 2 -31 -4 -31 -18 0 -13 -3
-14 -14 -5 -12 10 -18 7 -30 -16 -9 -15 -15 -20 -14 -11 4 22 0 23 -45 14 -32
-6 -36 -10 -32 -29 3 -13 -3 -34 -16 -52 l-21 -30 6 28 c9 38 -5 34 -48 -13
-42 -47 -51 -75 -43 -141 5 -38 3 -49 -8 -49 -7 0 -16 14 -20 30 -9 41 -20 38
-39 -10 -20 -51 -20 -63 2 -83 24 -22 64 -21 110 2 56 29 69 49 91 141 19 82
59 189 60 162 1 -7 -5 -34 -13 -60 -8 -26 -28 -92 -44 -147 -16 -55 -60 -181
-96 -279 -37 -98 -65 -180 -63 -182 2 -2 21 1 42 7 46 13 102 0 130 -31 10
-11 22 -20 27 -20 11 0 58 103 87 190 32 94 51 191 58 292 6 95 18 114 14 24
-2 -45 1 -55 16 -59 15 -4 14 -5 -3 -6 -18 -1 -22 -9 -29 -63 -4 -35 -8 -75
-9 -90 0 -16 -4 -28 -7 -28 -5 0 -29 -68 -29 -83 0 -3 15 -8 33 -10 l32 -4
-36 -1 c-35 -2 -37 -4 -62 -70 -15 -37 -27 -70 -27 -73 0 -3 37 -5 83 -5 83 0
127 -13 156 -48 8 -9 17 -16 21 -16 11 0 33 126 27 150 -3 11 -1 20 5 20 5 0
8 20 7 45 -2 24 0 47 4 51 14 15 7 73 -10 84 -17 11 -17 11 0 6 14 -5 17 1 17
38 l0 43 -56 19 c-30 10 -51 20 -46 22 6 2 27 -4 47 -12 21 -9 42 -16 47 -16
15 0 -1 73 -18 86 -12 9 -12 13 -2 16 10 4 10 16 -3 64 -9 32 -19 68 -23 79
-5 13 -2 11 8 -5 8 -14 20 -47 27 -75 6 -27 16 -59 22 -70 6 -11 9 -38 8 -59
-2 -32 2 -43 21 -57 l23 -18 -22 6 c-21 5 -23 2 -23 -35 0 -23 5 -43 13 -45
10 -4 10 -6 0 -6 -8 -1 -13 -16 -13 -41 0 -32 5 -42 28 -55 15 -9 18 -13 7
-10 -37 12 -40 10 -43 -27 -2 -24 1 -38 8 -38 7 0 5 -7 -4 -16 -9 -8 -16 -23
-16 -32 0 -9 -3 -33 -6 -53 l-6 -36 68 0 c75 1 144 -23 178 -62 28 -31 39 -26
34 19 -2 27 1 41 10 45 10 4 12 -2 7 -26 -7 -30 -6 -31 16 -25 63 18 118 23
162 17 45 -8 47 -7 47 16 0 14 4 22 10 18 6 -4 27 7 46 25 20 17 49 33 65 37
23 4 29 11 30 32 1 17 3 20 6 9 6 -23 7 -23 39 7 15 14 38 25 51 25 23 0 24 2
17 48 -11 78 -53 213 -85 272 -21 40 -39 60 -67 72 -20 10 -57 34 -81 53 -24
20 -46 34 -48 31 -3 -3 11 -35 32 -71 20 -37 34 -69 31 -72 -3 -4 -6 -1 -6 6
0 7 -10 9 -27 6 -26 -5 -26 -5 -5 5 l23 10 -23 40 c-13 22 -40 63 -61 91 l-38
51 39 -22 c21 -12 64 -44 96 -71 67 -57 100 -69 124 -45 15 15 15 18 2 26 -26
16 0 25 72 25 70 0 70 0 107 -41 20 -23 49 -74 65 -114 38 -94 105 -168 183
-203 65 -28 120 -35 206 -23 40 6 66 5 87 -4 17 -7 33 -10 36 -7 9 8 -17 43
-44 59 l-25 16 48 21 c65 29 94 27 144 -10 43 -32 93 -41 114 -20 7 7 -1 15
-26 26 -21 9 -48 33 -67 60 -38 55 -55 65 -117 66 l-48 1 33 14 c35 15 59 8
151 -45 22 -13 40 -17 54 -12 26 10 35 31 13 31 -9 0 -42 23 -73 52 -32 28
-49 48 -38 44 39 -17 66 -18 95 -6 37 15 34 34 -5 38 -15 2 -50 21 -77 43 -59
47 -97 50 -166 15 -101 -51 -126 -46 -262 52 -159 115 -230 126 -420 62 -65
-22 -126 -40 -134 -40 -20 0 -20 -10 1 -39 9 -14 11 -21 5 -17 -7 4 -19 20
-27 36 -33 65 -247 136 -437 146 -57 3 -118 8 -136 11 -18 3 -38 0 -46 -6 -12
-10 -13 -8 -9 8 4 15 1 21 -12 21 -9 0 -23 7 -31 15 -22 22 -77 19 -99 -5z"/>
<path d="M4600 2256 c-87 -24 -157 -72 -185 -126 -7 -14 -16 -45 -20 -70 -4
-25 -14 -57 -21 -72 -8 -15 -14 -30 -14 -34 0 -6 188 1 195 7 4 5 115 297 115
304 0 7 -19 5 -70 -9z"/>
<path d="M5700 1878 c-30 -15 -52 -36 -65 -61 -16 -30 -24 -36 -40 -32 -74 23
-184 7 -215 -30 -9 -11 -19 -8 -54 19 -24 18 -64 38 -90 46 -40 11 -52 10 -89
-3 -28 -11 -58 -14 -89 -10 -58 7 -64 -11 -15 -42 29 -18 70 -69 80 -98 3 -9
14 -7 42 6 l38 18 41 -45 c42 -45 53 -49 157 -60 25 -2 72 -12 103 -21 37 -11
75 -15 104 -11 26 3 97 10 157 15 61 6 119 13 130 16 18 5 23 -4 48 -82 15
-48 28 -104 28 -123 0 -42 21 -105 43 -129 9 -10 34 -23 55 -30 26 -7 51 -25
71 -51 37 -47 62 -51 80 -12 l14 27 4 -25 c2 -16 22 -40 54 -64 l50 -39 21 22
c27 27 28 105 0 127 -16 14 -16 14 5 4 19 -10 27 -8 45 7 11 10 17 12 13 5 -5
-9 11 -32 48 -68 45 -44 62 -55 84 -52 18 2 28 9 30 24 3 19 9 21 75 19 40 -1
79 -5 88 -9 9 -4 22 1 34 14 17 19 17 21 0 60 -20 43 -84 109 -132 134 -27 13
-34 13 -76 -2 -28 -10 -50 -25 -56 -40 -15 -32 -33 -19 -21 14 16 42 12 50
-46 90 -73 51 -173 197 -218 319 -6 17 -30 48 -53 69 l-41 37 -79 -5 c-43 -3
-68 -3 -55 0 28 7 28 28 1 55 -17 17 -29 20 -61 16 -40 -5 -88 -31 -88 -47 0
-5 28 -11 63 -13 l62 -3 -68 -2 c-64 -2 -70 0 -95 27 -38 42 -68 46 -122 19z
m384 -277 c16 -11 44 -38 62 -60 35 -45 119 -200 111 -207 -2 -3 -17 0 -32 6
-20 7 -31 7 -41 -1 -11 -9 -14 -6 -14 15 0 15 -12 43 -27 63 -15 19 -39 69
-53 111 -14 41 -31 77 -37 79 -7 3 -22 -10 -33 -29 l-20 -33 0 32 c0 17 -6 34
-12 36 -7 3 5 6 27 6 24 1 52 -7 69 -18z"/>
</g>
</svg>
