<?xml version="1.0" standalone="no"?>
<!DOCTYPE svg PUBLIC "-//W3C//DTD SVG 20010904//EN"
 "http://www.w3.org/TR/2001/REC-SVG-20010904/DTD/svg10.dtd">
<svg version="1.0" xmlns="http://www.w3.org/2000/svg"
 width="25" height="25" viewBox="0 0 360.000000 360.000000"
 preserveAspectRatio="xMidYMid meet">
<metadata>
Created by potrace 1.16, written by Peter Selinger 2001-2019
</metadata>
<g transform="translate(0.000000,360.000000) scale(0.100000,-0.100000)"
fill="#000000" stroke="none">
<path d="M802 2743 l3 -58 55 -5 c93 -9 113 -28 171 -161 40 -90 60 -140 154
-369 23 -58 75 -181 115 -275 39 -93 80 -194 91 -222 l20 -53 -20 -55 c-11
-30 -40 -105 -65 -167 -24 -62 -65 -169 -91 -237 -27 -68 -60 -137 -74 -154
-42 -50 -101 -70 -224 -75 l-107 -5 -20 -45 c-11 -24 -20 -51 -20 -58 0 -12
140 -14 874 -14 l874 0 121 246 c67 135 121 249 121 253 0 7 -119 6 -125 -1
-1 -2 -33 -55 -71 -118 -75 -126 -150 -211 -204 -234 -28 -11 -128 -16 -492
-21 -267 -5 -458 -4 -458 1 0 13 111 285 125 306 9 14 18 1 52 -85 23 -56 44
-110 47 -120 5 -15 20 -17 119 -17 l113 0 76 162 c74 159 137 297 213 468 20
47 59 132 85 190 26 58 69 152 95 210 25 58 64 143 85 190 21 47 48 105 58
130 128 288 154 320 262 330 l55 5 3 58 3 57 -256 0 -255 0 0 -60 0 -60 48 0
c57 0 93 -29 94 -76 0 -16 -36 -110 -80 -209 -44 -99 -103 -234 -132 -300
-280 -644 -368 -840 -374 -834 -2 2 -37 83 -78 180 l-75 177 23 58 c13 33 48
124 79 204 92 236 137 353 150 385 7 17 18 45 25 63 25 63 103 102 206 102 31
0 36 4 53 43 10 23 21 52 25 65 l7 22 -311 0 -311 0 -25 -55 c-13 -31 -24 -60
-24 -65 0 -6 15 -10 33 -10 39 0 77 -24 77 -48 0 -15 -40 -123 -80 -217 -4
-11 -22 -54 -38 -95 -17 -41 -34 -76 -39 -77 -4 -1 -18 21 -30 50 -110 263
-140 334 -173 412 -66 158 -76 191 -61 209 9 10 29 16 57 16 l44 0 0 60 0 60
-300 0 -301 0 3 -57z"/>
</g>
</svg>
