<?xml version="1.0" standalone="no"?>
<!DOCTYPE svg PUBLIC "-//W3C//DTD SVG 20010904//EN"
 "http://www.w3.org/TR/2001/REC-SVG-20010904/DTD/svg10.dtd">
<svg version="1.0" xmlns="http://www.w3.org/2000/svg"
 width="25" height="25" viewBox="0 0 900.000000 520.000000"
 preserveAspectRatio="xMidYMid meet">
<metadata>
Created by potrace 1.16, written by Peter Selinger 2001-2019
</metadata>
<g transform="translate(0.000000,520.000000) scale(0.100000,-0.100000)"
fill="#000000" stroke="none">
<path d="M3395 3969 c-167 -21 -384 -90 -525 -168 -287 -157 -503 -423 -603
-746 -70 -225 -75 -579 -11 -805 56 -197 178 -406 327 -558 181 -186 467 -329
767 -384 111 -21 141 -22 838 -21 646 0 725 2 739 16 26 26 1 43 -68 50 -44 4
-68 11 -83 26 l-21 22 -3 1212 c-2 899 1 1219 9 1240 26 63 121 75 444 59 165
-9 216 -15 290 -37 415 -119 723 -492 806 -973 13 -80 19 -161 19 -272 0 -319
-77 -583 -235 -805 -115 -161 -269 -295 -430 -371 -144 -68 -203 -83 -385 -99
-86 -8 -90 -10 -90 -35 0 -12 9 -21 23 -24 102 -21 377 -11 538 20 657 124
1088 642 1089 1309 0 377 -135 714 -386 961 -197 195 -501 338 -804 379 -159
22 -1512 22 -1530 0 -22 -27 -4 -42 60 -48 76 -8 95 -18 109 -58 14 -41 16
-2405 1 -2443 -5 -14 -24 -33 -42 -43 -29 -16 -60 -18 -283 -17 -279 1 -363
12 -498 64 -220 85 -406 244 -542 463 -250 406 -270 983 -48 1420 84 167 261
360 417 456 151 93 336 151 485 151 83 0 110 19 75 54 -13 14 -44 16 -197 15
-100 -1 -213 -5 -252 -10z"/>
</g>
</svg>
