<?xml version="1.0" standalone="no"?>
<!DOCTYPE svg PUBLIC "-//W3C//DTD SVG 20010904//EN"
 "http://www.w3.org/TR/2001/REC-SVG-20010904/DTD/svg10.dtd">
<svg version="1.0" xmlns="http://www.w3.org/2000/svg"
 width="30" height="25" viewBox="0 0 1205.000000 980.000000"
 preserveAspectRatio="xMidYMid meet">
<metadata>
Created by potrace 1.16, written by Peter Selinger 2001-2019
</metadata>
<g transform="translate(0.000000,980.000000) scale(0.100000,-0.100000)"
fill="#000000" stroke="none">
<path d="M4094 7957 c-2 -7 -3 -478 -2 -1047 l3 -1035 245 -6 c367 -10 591
-53 890 -170 572 -224 1040 -635 1337 -1174 135 -245 229 -518 285 -829 22
-118 22 -144 26 -1178 l3 -1058 919 -2 c506 -1 941 -2 968 -3 l47 0 0 1045 c0
1139 -1 1169 -61 1520 -205 1203 -853 2266 -1830 3002 -730 551 -1663 892
-2554 933 -69 3 -158 8 -198 10 -50 2 -75 0 -78 -8z"/>
<path d="M4090 4716 l0 -1076 215 0 c232 0 319 -11 428 -55 215 -86 369 -254
448 -490 l24 -70 3 -782 c2 -494 6 -783 12 -784 6 -1 19 -1 30 -1 11 0 364 0
786 1 l765 1 -4 1038 c-4 1127 -2 1088 -62 1358 -56 246 -179 544 -314 759
-348 551 -892 946 -1513 1099 -214 53 -327 67 -585 73 l-233 6 0 -1077z"/>
<path d="M4090 2511 l0 -1051 520 0 520 0 0 733 c0 464 -4 756 -11 797 -36
226 -206 436 -419 518 -106 40 -134 44 -372 49 l-238 5 0 -1051z"/>
</g>
</svg>
