<?xml version="1.0" standalone="no"?>
<!DOCTYPE svg PUBLIC "-//W3C//DTD SVG 20010904//EN"
 "http://www.w3.org/TR/2001/REC-SVG-20010904/DTD/svg10.dtd">
<svg version="1.0" xmlns="http://www.w3.org/2000/svg"
 width="25" height="25" viewBox="0 0 2000.000000 2000.000000"
 preserveAspectRatio="xMidYMid meet">
<metadata>
Created by potrace 1.16, written by Peter Selinger 2001-2019
</metadata>
<g transform="translate(0.000000,2000.000000) scale(0.100000,-0.100000)"
fill="#000000" stroke="none">
<path d="M4350 14470 l0 -760 518 -2 517 -3 3 -4097 2 -4098 -520 0 -520 0 0
-785 0 -785 4159 0 c2773 0 4203 3 4288 10 747 61 1394 352 1899 855 264 263
452 528 611 862 311 653 409 1448 273 2200 -93 511 -330 1029 -662 1445 -99
124 -392 420 -503 508 -44 35 -84 67 -88 71 -5 4 29 54 75 110 387 481 630
1066 715 1729 25 194 25 752 0 930 -97 691 -353 1228 -794 1662 -175 173 -320
287 -510 401 -500 301 -1063 460 -1758 497 -120 6 -1583 10 -3947 10 l-3758 0
0 -760z m7490 -770 c454 -29 792 -127 1070 -313 106 -71 292 -262 359 -370
101 -163 174 -367 208 -578 23 -143 26 -573 5 -714 -107 -716 -474 -1131
-1141 -1294 -314 -77 -401 -81 -1828 -81 l-1213 0 0 1305 0 1305 -780 0 -780
0 0 -3725 0 -3725 -395 0 -395 0 0 4093 c0 2252 3 4097 7 4100 11 12 4699 8
4883 -3z m750 -4808 c311 -56 543 -141 745 -275 454 -301 689 -835 661 -1508
-30 -759 -392 -1270 -1051 -1488 -140 -47 -325 -85 -479 -100 -72 -7 -634 -11
-1638 -11 l-1528 0 0 1705 0 1706 1583 -3 1582 -4 125 -22z"/>
</g>
</svg>
