<?xml version="1.0" standalone="no"?>
<!DOCTYPE svg PUBLIC "-//W3C//DTD SVG 20010904//EN"
 "http://www.w3.org/TR/2001/REC-SVG-20010904/DTD/svg10.dtd">
<svg version="1.0" xmlns="http://www.w3.org/2000/svg"
 width="25" height="25" viewBox="0 0 300.000000 188.000000"
 preserveAspectRatio="xMidYMid meet">
<metadata>
Created by potrace 1.16, written by Peter Selinger 2001-2019
</metadata>
<g transform="translate(0.000000,188.000000) scale(0.100000,-0.100000)"
fill="#000000" stroke="none">
<path d="M889 1856 c-70 -28 -104 -52 -158 -111 -55 -60 -92 -140 -98 -217 -6
-56 -5 -60 13 -55 10 3 36 8 57 11 110 17 103 13 116 59 20 66 58 114 114 142
47 23 62 25 184 25 l133 0 0 85 0 85 -152 0 c-137 0 -159 -3 -209 -24z"/>
<path d="M1290 1680 l0 -200 90 0 90 0 0 110 0 110 254 0 254 0 53 -28 c178
-93 180 -322 4 -415 -34 -18 -61 -22 -192 -25 l-153 -4 0 216 0 216 -90 0 -90
0 0 -306 0 -306 253 4 c228 4 257 7 306 26 131 52 224 149 262 274 59 194 -34
394 -228 490 l-68 33 -372 3 -373 3 0 -201z"/>
<path d="M680 1444 c-118 -32 -212 -110 -267 -221 -32 -65 -37 -86 -41 -163
-3 -65 0 -102 13 -141 34 -105 115 -203 207 -250 92 -47 114 -49 621 -49 l477
0 0 205 0 205 -90 0 -90 0 0 -110 0 -110 -368 0 c-411 0 -426 2 -501 67 -56
48 -81 99 -81 168 0 97 36 156 125 203 l50 27 280 3 280 3 -3 -210 -3 -211 96
0 95 0 0 300 0 300 -372 -1 c-295 0 -384 -3 -428 -15z"/>
<path d="M1730 1349 l0 -91 133 4 c118 3 136 6 170 26 35 23 77 81 92 130 l6
22 -200 0 -201 0 0 -91z"/>
<path d="M2370 1368 c0 -13 -11 -49 -25 -82 l-24 -58 30 -25 c90 -76 99 -228
20 -324 -58 -70 -73 -73 -381 -79 l-275 -5 0 -85 0 -85 260 -3 c298 -3 344 4
444 68 199 128 245 406 100 590 -42 53 -112 110 -136 110 -7 0 -13 -10 -13
-22z"/>
<path d="M720 1236 c0 -24 98 -106 163 -137 72 -33 186 -52 297 -47 l75 3 3
98 3 97 -271 0 c-221 0 -270 -2 -270 -14z"/>
<path d="M0 185 l0 -185 80 0 c128 0 170 27 170 109 0 31 -6 44 -27 61 l-27
21 22 15 c28 19 38 74 20 111 -17 37 -63 52 -160 52 l-78 1 0 -185z"/>
<path d="M371 333 c-23 -87 -81 -322 -81 -328 0 -3 19 -5 42 -3 40 3 43 5 51
40 8 36 11 38 46 38 35 0 39 -3 50 -40 11 -38 14 -40 51 -40 25 0 40 5 40 13
0 6 -19 90 -42 185 l-42 172 -53 0 c-52 0 -52 0 -62 -37z"/>
<path d="M660 185 l0 -186 98 3 97 3 0 30 c0 29 -2 30 -52 33 l-53 3 0 150 0
149 -45 0 -45 0 0 -185z"/>
<path d="M920 185 l0 -185 110 0 110 0 0 35 0 35 -65 0 -65 0 0 40 0 39 58 3
57 3 3 38 3 37 -60 0 -61 0 0 35 0 35 66 0 65 0 -3 33 -3 32 -107 3 -108 3 0
-186z"/>
<path d="M1210 185 l0 -185 40 0 40 0 1 113 c0 61 2 108 4 102 2 -5 17 -56 35
-113 l31 -103 62 3 62 3 0 180 0 180 -42 3 -43 3 -1 -118 -1 -118 -19 80 c-11
44 -24 97 -30 118 l-10 37 -64 0 -65 0 0 -185z"/>
<path d="M1631 358 c-51 -27 -66 -62 -69 -162 -6 -156 30 -202 155 -194 76 5
93 19 100 82 l6 46 -45 0 c-41 0 -45 -2 -53 -33 -8 -25 -15 -32 -35 -32 -22 0
-26 6 -34 52 -5 31 -5 79 0 115 9 61 10 63 39 63 23 0 31 -5 33 -22 3 -20 9
-23 49 -23 l46 0 -7 33 c-10 52 -46 80 -108 84 -31 2 -63 -1 -77 -9z"/>
<path d="M1890 185 l0 -185 45 0 45 0 0 185 0 185 -45 0 -45 0 0 -185z"/>
<path d="M2156 362 c-7 -12 -86 -329 -86 -347 0 -11 11 -15 40 -15 37 0 40 2
50 40 10 38 13 40 50 40 37 0 38 -1 45 -40 7 -40 7 -40 51 -40 24 0 44 2 44 6
0 5 -59 244 -81 327 -10 36 -11 37 -59 37 -27 0 -51 -4 -54 -8z"/>
<path d="M2444 351 c-42 -25 -64 -85 -64 -169 0 -150 33 -186 165 -180 45 3
86 8 93 12 8 5 12 37 12 97 l0 90 -67 -3 -68 -3 0 -30 c0 -23 5 -31 23 -33 18
-3 22 -10 22 -38 0 -32 -2 -34 -33 -34 -50 0 -57 14 -57 113 0 104 9 127 50
127 23 0 31 -5 36 -25 5 -22 12 -25 51 -25 44 0 45 1 38 28 -10 40 -33 72 -61
82 -41 16 -106 11 -140 -9z"/>
<path d="M2810 364 c0 -3 -20 -83 -45 -178 -25 -95 -45 -176 -45 -180 0 -4 19
-6 43 -4 39 3 43 5 51 41 9 35 12 37 47 37 36 0 39 -2 49 -40 10 -38 13 -40
50 -40 25 0 40 5 40 13 0 6 -18 90 -41 185 l-42 172 -53 0 c-30 0 -54 -3 -54
-6z"/>
</g>
</svg>
